<?xml version="1.0" standalone="no"?>
<!DOCTYPE svg PUBLIC "-//W3C//DTD SVG 1.1//EN" "http://www.w3.org/Graphics/SVG/1.1/DTD/svg11.dtd" >
<svg>
<metadata>
Created by FontForge 20090914 at Wed Jan 29 15:00:20 2020
 By www-data
Typeface &#194;&#169; (your company). 2019. All Rights Reserved
</metadata>
<defs>
<font id="ApplemelonFONTBYLYAJKA" horiz-adv-x="1392" >
  <font-face 
    font-family="Apple melon(FONT BY LYAJKA)"
    font-weight="400"
    font-stretch="normal"
    units-per-em="2048"
    panose-1="2 0 5 0 0 0 0 0 0 0"
    ascent="1638"
    descent="-410"
    x-height="1431"
    cap-height="1439"
    bbox="-116.368 -324.189 1998 1783"
    underline-thickness="150"
    underline-position="-142"
    unicode-range="U+001D-U+0451"
  />
<missing-glyph horiz-adv-x="1024" 
d="M100 0v1434h824v-1434h-824zM150 50h724v1334h-724v-1334zM325 1148c20.667 18.667 40.002 32.998 58.002 42.998c35.333 20 72.666 30 111.999 30c61.333 0 110.666 -15.833 147.999 -47.5s56 -74.167 56 -127.5c0 -32.667 -7.66699 -65.5 -23 -98.5
s-44.333 -76.167 -87 -129.5c-42 -53.333 -75 -97.333 -99 -132s-36 -67.667 -36 -99c0 -25.333 8 -69.666 24 -132.999h-32c-23.333 64.667 -35 114 -35 148c0 50.667 27.167 123.334 81.5 218.001s81.5 167 81.5 217c0 38 -11 68 -33 90s-52.333 33 -91 33
c-25.333 0 -48.333 -5.66699 -69 -17c-17.333 -10 -36 -23.333 -56 -40v45zM389.002 333.998l57 57.999c7.33301 6.66699 14 10 20 10c6.66699 0 14 -3.66699 22 -11l56 -60c6 -7.33301 9 -14 9 -20c0 -7.33301 -3.33301 -14.666 -10 -21.999l-56 -62
c-9.33301 -9.33301 -16.333 -14 -21 -14c-7.33301 0 -14 3.33301 -20 10l-61 71c-4.66699 6 -7 12 -7 18c0 6.66699 3.66699 14 11 22z" />
    <glyph glyph-name=".notdef" horiz-adv-x="1024" 
d="M100 0v1434h824v-1434h-824zM150 50h724v1334h-724v-1334zM325 1148c20.667 18.667 40.002 32.998 58.002 42.998c35.333 20 72.666 30 111.999 30c61.333 0 110.666 -15.833 147.999 -47.5s56 -74.167 56 -127.5c0 -32.667 -7.66699 -65.5 -23 -98.5
s-44.333 -76.167 -87 -129.5c-42 -53.333 -75 -97.333 -99 -132s-36 -67.667 -36 -99c0 -25.333 8 -69.666 24 -132.999h-32c-23.333 64.667 -35 114 -35 148c0 50.667 27.167 123.334 81.5 218.001s81.5 167 81.5 217c0 38 -11 68 -33 90s-52.333 33 -91 33
c-25.333 0 -48.333 -5.66699 -69 -17c-17.333 -10 -36 -23.333 -56 -40v45zM389.002 333.998l57 57.999c7.33301 6.66699 14 10 20 10c6.66699 0 14 -3.66699 22 -11l56 -60c6 -7.33301 9 -14 9 -20c0 -7.33301 -3.33301 -14.666 -10 -21.999l-56 -62
c-9.33301 -9.33301 -16.333 -14 -21 -14c-7.33301 0 -14 3.33301 -20 10l-61 71c-4.66699 6 -7 12 -7 18c0 6.66699 3.66699 14 11 22z" />
    <glyph glyph-name=".null" horiz-adv-x="0" 
 />
    <glyph glyph-name=".null" horiz-adv-x="0" 
 />
    <glyph glyph-name="space" unicode=" " horiz-adv-x="508" 
 />
    <glyph glyph-name="space" unicode="&#xa0;" horiz-adv-x="508" 
 />
    <glyph glyph-name="exclam" unicode="!" horiz-adv-x="604" 
d="M117 237c56.667 45.333 134.332 65.667 232.999 61c14 -7.33301 23.667 -15 29 -23c18.667 -29.333 12.334 -97 -18.999 -203c-13.333 -17.333 -22 -27.333 -26 -30l-12 -10c-50 -40.667 -123.667 -41 -221 -1l-18 21c-28 82 -16.667 143.667 34 185zM515.998 1442
c16.667 -17.333 25.667 -34.668 27 -52.001l5 -46c29.333 -288 -21.334 -578.333 -152.001 -871c-42 -67.333 -99 -105 -171 -113c-31.333 -4 -54.333 6.33301 -69 31l-3 23c-1.33301 18 35 163 109 435c27.333 259.333 69.333 423.333 126 492
c46.667 62.667 89.334 96.334 128.001 101.001z" />
    <glyph glyph-name="quotedbl" unicode="&#x22;" horiz-adv-x="672" 
d="M175 1587l23 0.000976562c57.333 0 86 -54.333 86 -163c0 -32.667 -5.33301 -143.334 -16 -332.001h-8c-113.333 148 -170 271.667 -170 371c6.66699 82.667 35 124 85 124zM454 1587l15 0.000976562c46.667 -54.667 70 -160.334 70 -317.001
c-4 -108.667 -17 -163 -39 -163h-7c-67.333 0 -101 90.333 -101 271c0 85.333 20.667 155 62 209z" />
    <glyph glyph-name="quotesingle" unicode="'" horiz-adv-x="346" 
d="M175 1587l23 0.000976562c57.333 0 86 -54.333 86 -163c0 -32.667 -5.33301 -143.334 -16 -332.001h-8c-113.333 148 -170 271.667 -170 371c6.66699 82.667 35 124 85 124z" />
    <glyph glyph-name="parenleft" unicode="(" horiz-adv-x="768" 
d="M520 887c-17.333 -35.333 -32.8291 -70.502 -46.4961 -105.502s-26.167 -70.167 -37.5 -105.5c-17.333 -53.333 -31.5 -106.333 -42.5 -159s-18.5 -106.334 -22.5 -161.001c-4 -47.333 -3 -92.5 3 -135.5s15 -85.167 27 -126.5c6 -17.333 16.167 -35 30.5 -53
s29.666 -36.167 45.999 -54.5l46 -54c14.333 -17.667 22.833 -35.5 25.5 -53.5c2.66699 -20.667 -0.5 -39.834 -9.5 -57.501s-21.333 -32.667 -37 -45s-33.334 -21.833 -53.001 -28.5s-38.5 -9.33398 -56.5 -8.00098c-42 2.66699 -80.167 16.667 -114.5 42
s-63.333 56 -87 92s-42.334 75.167 -56.001 117.5s-21.167 83.5 -22.5 123.5c-2.66699 90 -0.666992 181.667 6 275s29 188.666 67 285.999l57.5 142.5c19 45.667 40.833 90.334 65.5 134.001s53.334 87.334 86.001 131.001s72.334 88.834 119.001 135.501l111.5 114.5
c43 45 88.5 87.667 136.5 128s96.167 73.833 144.5 100.5s92.833 36.334 133.5 29.001c27.333 -4 45.5 -12.833 54.5 -26.5s10.167 -29.834 3.5 -48.501c-11.333 -33.333 -38 -65 -80 -95c-46.667 -31.333 -90.834 -67.166 -132.501 -107.499l-127.5 -121.5l-66 -69
c-23.333 -25.333 -45.833 -51.166 -67.5 -77.499s-41.334 -53.166 -59.001 -80.499s-32.834 -53.333 -45.501 -78z" />
    <glyph glyph-name="parenright" unicode=")" horiz-adv-x="815" 
d="M487 444c32 67.333 59.333 135.664 82 204.997c36 109.333 58.667 218.666 68 327.999c5.33301 48 4.66602 93.167 -2.00098 135.5s-16.334 83.833 -29.001 124.5c-5.33301 18 -15.166 35.833 -29.499 53.5l-46 54c-16.333 18.333 -31.333 36.333 -45 54
s-21.834 35.5 -24.501 53.5c-2.66699 20.667 0 39.834 8 57.501s19.833 33 35.5 46s33.167 22.833 52.5 29.5s37.666 9.33398 54.999 8.00098c42.667 -4 81 -18.333 115 -43s63.333 -55 88 -91s43.834 -75.5 57.501 -118.5s21.167 -84.167 22.5 -123.5
c2.66699 -90.667 0.333984 -182.667 -6.99902 -276s-29.666 -188.666 -66.999 -285.999c-18.667 -48.667 -38 -95.667 -58 -141s-42.333 -89.833 -67 -133.5s-53 -87.667 -85 -132s-71 -89.5 -117 -135.5c-32 -31.333 -69.167 -69.666 -111.5 -114.999
s-87.333 -88 -135 -128s-95.667 -73.333 -144 -100s-93.166 -36.667 -134.499 -30c-27.333 4 -45 12.833 -53 26.5s-9.33301 30.167 -4 49.5c5.33301 14.667 15.166 30.167 29.499 46.5s31.166 32.166 50.499 47.499c44.667 32.667 87.834 68.834 129.501 108.501
l128.5 120.5c20.667 20.667 42.5 43.667 65.5 69l67.5 78c22 26.667 42.167 53.667 60.5 81s32.833 53 43.5 77z" />
    <glyph glyph-name="asterisk" unicode="*" horiz-adv-x="1235" 
d="M786 1421c6 12.667 15.0059 25.5039 27.0059 38.5039s25.667 24.5 41 34.5s30.833 18.167 46.5 24.5s30.834 9.5 45.501 9.5c24.667 0 41.667 -9.66699 51 -29c7.33301 -14.667 7.16602 -33 -0.500977 -55s-14.167 -42.667 -19.5 -62
c-15.333 -43.333 -31.666 -86.333 -48.999 -129c-2.66699 -6.66699 -6.83398 -14.834 -12.501 -24.501s-10.5 -19.5 -14.5 -29.5s-6.66699 -19.833 -8 -29.5s0 -16.5 4 -20.5c5.33301 -5.33301 13.166 -7 23.499 -5s21.333 6 33 12s22.5 12.833 32.5 20.5
s18.667 13.5 26 17.5l136 103.5c47.333 37.667 96.666 66.5 147.999 86.5c23.333 10 46 17.667 68 23s44 6.66602 66 3.99902c16 -1.33301 26 -5 30 -11s4.66699 -13.5 2 -22.5s-7.33398 -18.667 -14.001 -29s-14.334 -20.166 -23.001 -29.499
c-32.667 -42.667 -73.834 -79.334 -123.501 -110.001l-142.5 -91l-58.5 -36.5c-19.667 -12.333 -39.167 -26.166 -58.5 -41.499c-5.33301 -5.33301 -13 -11.666 -23 -18.999s-17.333 -14.666 -22 -21.999c-5.33301 -9.33301 -5.5 -17 -0.5 -23s9.5 -12.667 13.5 -20
c12 -17.333 26.5 -32.166 43.5 -44.499l54.5 -39.5l58.5 -37.5c21 -13 35.5 -29.167 43.5 -48.5c7.33301 -14.667 6.83301 -31.834 -1.5 -51.501s-22.833 -35.834 -43.5 -48.501c-26 -14.667 -54 -22 -84 -22c-14.667 0 -28.834 1.66699 -42.501 5
s-26.167 7.66602 -37.5 12.999c-22.667 10.667 -44 24.334 -64 41.001s-38.667 33 -56 49c-2.66699 2.66699 -6.83398 7.5 -12.501 14.5s-11.5 13.833 -17.5 20.5s-12.833 11.667 -20.5 15s-14.834 3.66602 -21.501 0.999023c-6.66699 -4 -13.167 -10.833 -19.5 -20.5
s-11.833 -20.5 -16.5 -32.5s-9 -23.833 -13 -35.5s-6.66699 -20.167 -8 -25.5c-8.66699 -23.333 -16 -47 -22 -71s-14.333 -47.667 -25 -71c-7.33301 -13.333 -16.333 -27.166 -27 -41.499s-22.834 -27 -36.501 -38s-28.167 -20.167 -43.5 -27.5s-29.666 -11 -42.999 -11
c-22 0 -39 10.667 -51 32c-19.333 34 -23.833 74 -13.5 120s22.833 89.333 37.5 130c2.66699 8 6.5 17.167 11.5 27.5s7.83301 19.666 8.5 27.999s-1.33301 14.166 -6 17.499s-15.334 2.33301 -32.001 -3c-35.333 -14 -69.833 -31.167 -103.5 -51.5l-99.5 -59.5
c-14.667 -6.66699 -30.167 -15.5 -46.5 -26.5s-32.166 -19.167 -47.499 -24.5c-12 -4 -22.5 -4.33301 -31.5 -1s-18.833 6.33301 -29.5 9c-23.333 4 -35.666 13.833 -36.999 29.5s5.33398 34.5 20.001 56.5c16.667 23.333 37.667 42.833 63 58.5l76 46.5l80 43.5
c26 14.333 52.667 30.5 80 48.5c16.667 12 27 22.5 31 31.5s4 17.5 0 25.5s-10.833 15.5 -20.5 22.5s-18.5 13.833 -26.5 20.5c-22 18 -39.833 37.5 -53.5 58.5l-42.5 62.5c-12.667 15.333 -22.667 30.833 -30 46.5s-3.66602 34.834 11.001 57.501
c10.667 18 30 33.167 58 45.5s51.667 17.833 71 16.5c23.333 -2.66699 42.833 -11.834 58.5 -27.501s30.5 -29.834 44.5 -42.501c13.333 -13.333 23.333 -28.5 30 -45.5s17.667 -31.833 33 -44.5c6.66699 -5.33301 14.5 -11.166 23.5 -17.499s18.333 -10.833 28 -13.5
s19.167 -1.83398 28.5 2.49902s17.333 13.833 24 28.5c19.333 44 33.166 88.167 41.499 132.5s22.5 88.166 42.5 131.499z" />
    <glyph glyph-name="plus" unicode="+" horiz-adv-x="1126" 
d="M1096 616c-31.333 -16 -65.5039 -24.002 -102.504 -24.002s-70.5 -1.33301 -100.5 -4c-19.333 -1.33301 -40.166 -2.66602 -62.499 -3.99902s-47.166 -2.66602 -74.499 -3.99902c-2.66699 -7.33301 -5.16699 -14.666 -7.5 -21.999s-4.83301 -14.333 -7.5 -21l-12 -40.5
l-12 -37.5c-6.66699 -23.333 -14.5 -46 -23.5 -68s-18.833 -44.333 -29.5 -67c-10 -18 -20.5 -34.833 -31.5 -50.5l-34.5 -48.5c-13.333 -14.667 -36.666 -25.334 -69.999 -32.001c-12 -3.33301 -22.5 -3.16602 -31.5 0.500977s-16.5 8.83398 -22.5 15.501
s-10.667 14.167 -14 22.5s-5.66602 15.833 -6.99902 22.5c-8.66699 27.333 -7.16699 57.333 4.5 90s21.5 64 29.5 94c6 22 11.333 43.167 16 63.5s10.334 41.5 17.001 63.5c-38 -4 -73.333 -8 -106 -12c-19.333 -2.66699 -45.666 -7.83398 -78.999 -15.501
s-65 -11.5 -95 -11.5c-33.333 0 -56.666 7 -69.999 21c-6.66699 8 -10.667 19.833 -12 35.5s-1.33301 30.5 0 44.5c0 20 5.33301 38.333 16 55s24 30.334 40 41.001s32.833 19.834 50.5 27.501s33.834 13.5 48.501 17.5c36 9.33301 69 15.5 99 18.5s58.667 4.5 86 4.5h43.5
c14.333 0 28.5 -1 42.5 -3c5.33301 18 12 39 20 63s15.5 47.833 22.5 71.5l19.5 67.5c6 21.333 10.333 38 13 50l17 48.5c5.33301 15.667 15.666 31.167 30.999 46.5c8 8 17.833 16.833 29.5 26.5s24 17.834 37 24.501s26.333 11.667 40 15s25.834 2.33301 36.501 -3
c19.333 -8 31.666 -20.5 36.999 -37.5s8.66602 -33.833 9.99902 -50.5c2.66699 -40.667 -2.5 -89 -15.5 -145s-29.833 -112.667 -50.5 -170c32 1.33301 60.833 2.66602 86.5 3.99902s48.167 2.66602 67.5 3.99902c12.667 1.33301 27.167 2.66602 43.5 3.99902
s33.166 2 50.499 2c30 0 56 -5.16699 78 -15.5s32.333 -32.5 31 -66.5c-2.66699 -20.667 -14.334 -41.834 -35.001 -63.501s-39.667 -37.5 -57 -47.5z" />
    <glyph glyph-name="comma" unicode="," horiz-adv-x="465" 
d="M288 281c31.333 0 52.667 -58.668 64 -176.001c0 -160 -62 -281 -186 -363h-16c-21.333 24.667 -35 70.334 -41 137.001c0 174.667 59.667 308.667 179 402z" />
    <glyph glyph-name="hyphen" unicode="-" horiz-adv-x="653" 
d="M543 680l24 0.000976562c7.33301 0 15.333 -8 24 -24v-31c0 -66.667 -76.333 -116.334 -229 -149.001c-172 -1.33301 -258 32.667 -258 102c0 42 146.333 76 439 102z" />
    <glyph glyph-name="hyphen" unicode="&#xad;" horiz-adv-x="653" 
d="M543 680l24 0.000976562c7.33301 0 15.333 -8 24 -24v-31c0 -66.667 -76.333 -116.334 -229 -149.001c-172 -1.33301 -258 32.667 -258 102c0 42 146.333 76 439 102z" />
    <glyph glyph-name="period" unicode="." horiz-adv-x="557" 
d="M198 292c75.333 0 155.331 -33.333 239.998 -100c8 -14.667 12 -26.667 12 -36c0 -34.667 -44 -84 -132 -148c-21.333 -5.33301 -34.666 -8 -39.999 -8h-16c-67.333 0 -132.666 46.667 -195.999 140l-4 28c22.667 82.667 68 124 136 124z" />
    <glyph glyph-name="slash" unicode="/" horiz-adv-x="1155" 
d="M846 1014l97.9951 110.503c34 39.667 68.833 78.167 104.5 115.5s73 72.833 112 106.5s78.833 60.5 119.5 80.5c16.667 8.66699 34.834 16 54.501 22s37.834 9 54.501 9c14.667 0 26.834 -3 36.501 -9s15.167 -17.333 16.5 -34
c1.33301 -14.667 -1.83398 -29.834 -9.50098 -45.501s-18 -31.5 -31 -47.5s-27 -31.5 -42 -46.5s-28.5 -27.833 -40.5 -38.5c-75.333 -72.667 -148.5 -149.167 -219.5 -229.5l-212.5 -237.5l-249 -266l-255 -262c-31.333 -31.333 -60.666 -62.833 -87.999 -94.5
s-56.666 -63.167 -87.999 -94.5c-11.333 -12 -24.166 -24.833 -38.499 -38.5s-29.333 -26.667 -45 -39s-31.667 -23.333 -48 -33s-32.5 -16.5 -48.5 -20.5c-26 -6.66699 -45.167 -1.5 -57.5 15.5s-16.5 37.167 -12.5 60.5s14.167 46.166 30.5 68.499
s33.5 43.166 51.5 62.499c128 152.667 260.333 301.167 397 445.5z" />
    <glyph glyph-name="zero" unicode="0" horiz-adv-x="1597" 
d="M1575 1270c70.667 -57.333 114.665 -123.167 131.998 -197.5s12.333 -153.833 -15 -238.5c-19.333 -56 -46.333 -112.667 -81 -170s-78 -115.666 -130 -174.999c-27.333 -31.333 -58.5 -64 -93.5 -98s-71.833 -66.667 -110.5 -98s-78.167 -60 -118.5 -86
s-79.833 -47.333 -118.5 -64c-30 -12 -66.167 -23.167 -108.5 -33.5s-87 -18.833 -134 -25.5s-93.333 -11.834 -139 -15.501s-86.834 -5.5 -123.501 -5.5h-35.5c-11 0 -21.167 1 -30.5 3c-64 6.66699 -120.667 26.667 -170 60s-88.666 75.333 -117.999 126
s-47 107.334 -53 170.001s2 128 24 196c4 12.667 8.33301 25.167 13 37.5s9.66699 24.5 15 36.5c52 106.667 123 205.334 213 296.001s190.333 162 301 214c32.667 15.333 74.334 30.166 125.001 44.499s104.667 26.833 162 37.5s116.333 19.5 177 26.5
s118.334 10.5 173.001 10.5s103.5 -3.83301 146.5 -11.5s75.5 -20.834 97.5 -39.501zM1339 628.999c16.667 20 30.1709 40.332 40.5039 60.999s18.833 40.667 25.5 60c10.667 31.333 16.667 62.666 18 93.999l4 96c0 28.667 -7.83301 52.5 -23.5 71.5
s-35.834 34.167 -60.501 45.5c-12 5.33301 -24.833 9 -38.5 11s-27.834 4.33301 -42.501 7c-12.667 1.33301 -34 1.33301 -64 0s-61.667 -3 -95 -5s-65.333 -4.66699 -96 -8s-53 -7 -67 -11c-18 -4.66699 -36.167 -10.334 -54.5 -17.001s-36.5 -12.667 -54.5 -18
c-31.333 -10 -66.333 -22.5 -105 -37.5s-73 -32.5 -103 -52.5c-58.667 -40 -105.834 -86.167 -141.501 -138.5s-60.167 -108.833 -73.5 -169.5c-7.33301 -28.667 -11 -58.667 -11 -90s1.33301 -60.666 4 -87.999c6 -31.333 14.333 -55.5 25 -72.5s29.667 -30.833 57 -41.5
c22 -10 48.333 -17 79 -21s63 -6 97 -6c52 0 105 4.16699 159 12.5s102.333 19.833 145 34.5c35.333 12.667 75.166 28.834 119.499 48.501s81.5 43.167 111.5 70.5c27.333 24.667 53.333 51.334 78 80.001s47 56.667 67 84z" />
    <glyph glyph-name="one" unicode="1" horiz-adv-x="1147" 
d="M1030 104c-19.333 -21.333 -38.5 -33.8311 -57.5 -37.498s-40.167 -7.5 -63.5 -11.5c-32.667 -5.33301 -65 -9.66602 -97 -12.999s-64.333 -8.33301 -97 -15c-102.667 -19.333 -203.167 -32.5 -301.5 -39.5s-196.5 -15.833 -294.5 -26.5
c-16.667 -2.66699 -36.167 -3 -58.5 -1s-43.5 6.83301 -63.5 14.5s-35.833 18.667 -47.5 33s-13.834 32.833 -6.50098 55.5c4 12.667 11.167 23.834 21.5 33.501s21.833 18.167 34.5 25.5s25.834 13.333 39.501 18l35.5 12c31.333 10.667 62.333 18.334 93 23.001
s61 8.33398 91 11.001c35.333 2.66699 71.166 7.16699 107.499 13.5s72.833 12.166 109.5 17.499c6.66699 16.667 12.167 32.5 16.5 47.5s7.83301 27.833 10.5 38.5c16 57.333 35.667 116.333 59 177s44.666 119.667 63.999 177c21.333 68.667 47.166 135 77.499 199
s58.833 129.667 85.5 197c-22.667 -15.333 -48 -29.5 -76 -42.5l-79 -37.5l-83 -44.5l-83 -43.5c-20.667 -11.333 -44.667 -21.666 -72 -30.999s-51.666 -14 -72.999 -14c-19.333 0 -33.166 6.16699 -41.499 18.5s-4.83301 34.166 10.5 65.499c12 27.333 28 51.5 48 72.5
s41.5 40 64.5 57s47.5 32.667 73.5 47l80 44.5c52 30 101.833 61.667 149.5 95s96.834 65.666 147.501 96.999c30 19.333 62.833 36.833 98.5 52.5s69.167 23.5 100.5 23.5c21.333 0 39.666 -4 54.999 -12c18 -10 26.667 -24.833 26 -44.5s-6 -39.167 -16 -58.5
c-14.667 -31.333 -28.5 -63.333 -41.5 -96s-27.167 -65.334 -42.5 -98.001c-16 -38 -31.167 -75.833 -45.5 -113.5l-44.5 -116.5c-12 -32.667 -23.5 -59.834 -34.5 -81.501s-22.833 -48.834 -35.5 -81.501c-8 -22 -16.667 -43.333 -26 -64s-20.333 -48.667 -33 -84
l-23.5 -74l-23.5 -75c-9.33301 -28.667 -19.833 -57.334 -31.5 -86.001l-34.5 -86c44 0 87.167 1 129.5 3s85.5 3 129.5 3c20 0 38.5 -0.666992 55.5 -2s28.5 -12.333 34.5 -33c4 -15.333 5.33301 -32.833 4 -52.5s-9.66602 -38.5 -24.999 -56.5z" />
    <glyph glyph-name="two" unicode="2" horiz-adv-x="1272" 
d="M250 8c-20.667 0 -43.6592 -0.332031 -68.9922 -0.999023s-55.666 0.333008 -90.999 3c-32.667 1.33301 -54.834 7.83301 -66.501 19.5s-18.834 24.5 -21.501 38.5c-2.66699 14.667 0.666016 31.667 9.99902 51c7.33301 18.667 14.666 38.667 21.999 60
s20.666 49.666 39.999 84.999l56 101.5c18.667 32.333 38.5 62.833 59.5 91.5s45.833 56 74.5 82s63 50.333 103 73c77.333 45.333 151.5 86 222.5 122s146.167 67.667 225.5 95c44 15.333 89.5 33.5 136.5 54.5s88.167 45.167 123.5 72.5s63.666 52.666 84.999 75.999
s28 40.333 20 51c-15.333 19.333 -36.333 32.833 -63 40.5s-56.334 11.5 -89.001 11.5c-26 0 -52.667 -1.83301 -80 -5.5s-54 -8.16699 -80 -13.5s-50.833 -11.5 -74.5 -18.5l-62.5 -18.5c-27.333 -8 -52.166 -15.833 -74.499 -23.5s-44.166 -16.167 -65.499 -25.5
s-42.5 -20.5 -63.5 -33.5s-44.5 -29.833 -70.5 -50.5l-41.5 -29.5c-16.333 -11.667 -32.666 -21.667 -48.999 -30s-31.333 -12.5 -45 -12.5s-23.167 7.66699 -28.5 23c-12.667 34 -13.334 67.333 -2.00098 100c12 37.333 34.5 71.666 67.5 102.999s69.833 60.333 110.5 87
s82.167 49.5 124.5 68.5l108.5 47.5c46.667 17.333 95 29.833 145 37.5s96.667 13.5 140 17.5c31.333 2.66699 64.166 5.66699 98.499 9s68.5 5 102.5 5c52 0 100.167 -6.83301 144.5 -20.5s78.166 -40.167 101.499 -79.5c31.333 -52 36 -109.333 14 -172
c-10.667 -31.333 -27 -63.5 -49 -96.5s-48.667 -66.5 -80 -100.5c-35.333 -38 -71.166 -70.667 -107.499 -98s-74.333 -51.666 -114 -72.999s-80.667 -40.833 -123 -58.5s-86.5 -35.167 -132.5 -52.5c-32.667 -14 -68.5 -28.167 -107.5 -42.5s-78.667 -30.333 -119 -48
s-79.333 -38.167 -117 -61.5s-71.5 -50 -101.5 -80c-16 -14.667 -31.167 -33.334 -45.5 -56.001s-25.833 -43.667 -34.5 -63c-13.333 -27.333 -14.833 -42.666 -4.5 -45.999s28.5 -5 54.5 -5c39.333 0 81.833 4.16699 127.5 12.5s88.5 13.833 128.5 16.5
c56 2.66699 111.167 6 165.5 10s108.166 6 161.499 6c44 0 86.333 -2 127 -6c24.667 -2.66699 43.5 -12.167 56.5 -28.5s16.167 -35.5 9.5 -57.5c-2.66699 -10.667 -8.83398 -21.5 -18.501 -32.5s-22.834 -22.167 -39.501 -33.5c-16 -10.667 -35 -19 -57 -25
s-43.833 -10.833 -65.5 -14.5s-43.5 -6.16699 -65.5 -7.5s-41 -2.66602 -57 -3.99902c-96 -9.33301 -194.833 -19.5 -296.5 -30.5s-199.5 -16.5 -293.5 -16.5z" />
    <glyph glyph-name="three" unicode="3" horiz-adv-x="1380" 
d="M639 1300c46.667 15.333 92.8379 27.5078 138.505 36.5078s92.5 16.833 140.5 23.5l97 12c33.333 4 65.666 6 96.999 6c41.333 0 79 -5.33301 113 -16s60.667 -32 80 -64c10.667 -18.667 16 -38 16 -58s-3.33301 -40 -10 -60
c-8.66699 -23.333 -20.5 -47.666 -35.5 -72.999s-31.167 -49.666 -48.5 -72.999c-34 -47.333 -72.333 -91 -115 -131c-19.333 -19.333 -39.166 -37.5 -59.499 -54.5l-61.5 -51.5c23.333 2.66699 42.166 2.66699 56.499 0s27.5 -4.66699 39.5 -6
c19.333 -3.33301 37.5 -6 54.5 -8s33.833 -5 50.5 -9c28.667 -6.66699 52.834 -13.834 72.501 -21.501s37.167 -19.5 52.5 -35.5c30 -30 48.667 -65.167 56 -105.5s3.66602 -83.166 -11.001 -128.499c-9.33301 -30 -25 -62 -47 -96
c-26 -40.667 -59.833 -78.167 -101.5 -112.5s-82.834 -65.833 -123.501 -94.5c-46.667 -31.333 -93.5 -56.833 -140.5 -76.5s-95.167 -35.167 -144.5 -46.5c-65.333 -14.667 -128.166 -25.834 -188.499 -33.501s-121.166 -12.834 -182.499 -15.501
c-10.667 -1.33301 -21.834 -2 -33.501 -2h-33.5c-36 0 -71.333 2.33301 -106 7s-65.667 13.334 -93 26.001c-19.333 8 -38.833 20.167 -58.5 36.5s-36.334 34.833 -50.001 55.5s-22.834 43.334 -27.501 68.001s-1.66699 49.667 9 75c12 26 29.333 46.167 52 60.5
s47 22.833 73 25.5c27.333 3.33301 46.833 -1.5 58.5 -14.5l37.5 -42.5c22 -23.333 50.333 -39.666 85 -48.999s72 -14 112 -14c10.667 0 21.834 0.333008 33.501 1s22.834 1.66699 33.501 3c56 5.33301 111.333 9.66602 166 12.999s110.667 12.666 168 27.999
c22 5.33301 45.333 13.166 70 23.499s48.5 22.666 71.5 36.999s44.5 30.666 64.5 48.999s36 39.166 48 62.499c10.667 20 8.83398 37.5 -5.49902 52.5s-34 27 -59 36s-52.5 15.5 -82.5 19.5s-54.667 6 -74 6c-24.667 -1.33301 -49.334 -2 -74.001 -2h-74
c-32.667 0 -65.334 -0.333008 -98.001 -1s-66.667 -3.66699 -102 -9c-26 -4 -48.167 -5.66699 -66.5 -5s-31.833 12.667 -40.5 36c-6.66699 22 -1.83398 43.167 14.499 63.5s35.5 38.166 57.5 53.499c22 16 45.167 29.5 69.5 40.5s47.5 23.833 69.5 38.5l79 50.5
c26.667 17 51.667 33.833 75 50.5c22 14.667 41.167 28.167 57.5 40.5s31.666 24.666 45.999 36.999s28.333 25 42 38l46.5 46.5c1.33301 1.33301 4.16602 4.66602 8.49902 9.99902l14.5 18l15 19.5c4.66699 6.33301 8.33398 11.5 11.001 15.5
c-17.333 16.667 -48.833 26 -94.5 28s-94.834 -1.16699 -147.501 -9.5s-103.667 -20.333 -153 -36s-85.333 -33.834 -108 -54.501c-22 -17.333 -41.833 -35.333 -59.5 -54s-40.834 -26.334 -69.501 -23.001c-27.333 4 -43.833 17.167 -49.5 39.5s-4.16699 47.166 4.5 74.499
c4 11.333 8.33301 22 13 32s10.334 20 17.001 30c28.667 43.333 64.5 77.333 107.5 102s87.833 44.334 134.5 59.001z" />
    <glyph glyph-name="four" unicode="4" horiz-adv-x="1415" 
d="M1358 532c-27.333 -14.667 -54.3301 -25.8223 -80.9971 -33.4893s-53.667 -14.834 -81 -21.501c-1.33301 -8 -3 -16.5 -5 -25.5s-4.33301 -17.5 -7 -25.5c-4 -22 -8.83301 -44.833 -14.5 -68.5s-12.5 -47.834 -20.5 -72.501c-8 -23.333 -17.167 -46.333 -27.5 -69
s-23.166 -43.334 -38.499 -62.001c-9.33301 -14 -18.5 -28.5 -27.5 -43.5s-18.5 -29.333 -28.5 -43s-21.833 -26 -35.5 -37s-29.5 -18.5 -47.5 -22.5c-14.667 -4 -26.834 -1.16699 -36.501 8.5s-16.834 21.667 -21.501 36s-7.83398 29.666 -9.50098 45.999
s-1.5 29.833 0.5 40.5c5.33301 28.667 13.5 57.667 24.5 87l32.5 87c6.66699 19.333 12.834 38.5 18.501 57.5l16.5 57.5c-36 -6.66699 -72 -12.5 -108 -17.5s-71.667 -9.5 -107 -13.5c-36 -5.33301 -71 -8.66602 -105 -9.99902s-68 -2 -102 -2
c-30 0 -59.667 0.333008 -89 1s-59.666 1 -90.999 1c-23.333 0 -46 1.66699 -68 5s-43 8.66602 -63 15.999c-19.333 5.33301 -38.166 9.66602 -56.499 12.999s-33.166 12.666 -44.499 27.999c-10.667 16 -15.334 32.5 -14.001 49.5s7.33301 36.5 18 58.5l36.5 74l33.5 74
l86 191c27.333 63.333 61.333 125.666 102 186.999c23.333 37.333 50.333 76.833 81 118.5s66 73.167 106 94.5c10.667 7.33301 22.5 12 35.5 14s24.833 3 35.5 3c26 0 46.833 -6.83301 62.5 -20.5s16.167 -34.834 1.5 -63.501c-26 -49.333 -54 -98.833 -84 -148.5
l-86 -148.5l-45.5 -81c-15 -26.667 -28.5 -53 -40.5 -79c-5.33301 -13.333 -13.833 -31.666 -25.5 -54.999s-16.834 -40.333 -15.501 -51c0 -8.66699 3.33301 -15 10 -19s14.5 -7 23.5 -9s18 -3.33301 27 -4s16.833 -1.66699 23.5 -3c31.333 -4 62.666 -6.66699 93.999 -8
s63.333 -2 96 -2c46.667 0 93.5 3 140.5 9s94.5 13 142.5 21c6.66699 1.33301 14.5 2.66602 23.5 3.99902s16.833 2.66602 23.5 3.99902c14 48 27 95.833 39 143.5s22.333 95.5 31 143.5c4 30 8.33301 59.667 13 89s11 59 19 89c7.33301 23.333 15.666 48.333 24.999 75
s21.166 53 35.499 79s31.5 49.167 51.5 69.5s43.667 36.166 71 47.499c23.333 8 40.666 5.5 51.999 -7.5s20 -27.833 26 -44.5c6.66699 -14.667 8.33398 -31.167 5.00098 -49.5l-10 -56.5c-14.667 -75.333 -33 -150.833 -55 -226.5s-40.333 -152.5 -55 -230.5
c-2.66699 -10.667 -5 -21.834 -7 -33.501s-4.33301 -22.834 -7 -33.501c14.667 1.33301 30.834 4.33301 48.501 9s34.834 7.66699 51.501 9c14.667 1.33301 32 0.333008 52 -3s34.667 -10.333 44 -21c15.333 -16.667 18 -36.667 8 -60
c-6.66699 -23.333 -20.834 -45.166 -42.501 -65.499s-42.834 -36.833 -63.501 -49.5z" />
    <glyph glyph-name="five" unicode="5" horiz-adv-x="1352" 
d="M915 1352c48 5.33301 95.5039 9 142.504 11s94.5 4.33301 142.5 7c35.333 1.33301 71.5 4.33301 108.5 9l108.5 14c31.333 4 52.166 -4.33301 62.499 -25s8.16602 -45.334 -6.50098 -74.001c-16.667 -30 -40 -54.167 -70 -72.5s-62.167 -32.666 -96.5 -42.999
s-68.5 -17.5 -102.5 -21.5l-88 -10c-32.667 -2.66699 -65.334 -5.66699 -98.001 -9l-96 -10c-15.333 0 -30.833 -0.666992 -46.5 -2l-46.5 -4c-5.33301 0 -16.166 -0.333008 -32.499 -1s-33.666 -2 -51.999 -4s-35 -4.33301 -50 -7s-24.5 -6 -28.5 -10
c-36 -48 -60.833 -93.167 -74.5 -135.5s-25.834 -82.5 -36.501 -120.5c-5.33301 -19.333 -8.66602 -33 -9.99902 -41s8 -13 28 -15c28.667 -1.33301 60.5 -1.66602 95.5 -0.999023s71.333 2.16699 109 4.5s75.167 4.16602 112.5 5.49902s72.333 2 105 2h36.5
c11.667 0 22.834 -0.666992 33.501 -2c34 -1.33301 67 -5.83301 99 -13.5s61 -18.667 87 -33s47.167 -33.166 63.5 -56.499s25.833 -52 28.5 -86c3.33301 -24.667 3.5 -49.5 0.5 -74.5s-7.83301 -49.833 -14.5 -74.5c-19.333 -58.667 -51.833 -114.334 -97.5 -167.001
s-101.834 -98.667 -168.501 -138c-56 -34.667 -115.333 -61.167 -178 -79.5s-122.667 -32.166 -180 -41.499c-50.667 -6.66699 -100.334 -12.167 -149.001 -16.5s-96.667 -6.5 -144 -6.5c-19.333 0 -38.166 0.333008 -56.499 1s-37.166 1.66699 -56.499 3
c-35.333 1.33301 -70.5 6.83301 -105.5 16.5s-65.5 23.667 -91.5 42s-46.167 41.5 -60.5 69.5s-18.5 62 -12.5 102c5.33301 32.667 20 57.834 44 75.501s51.667 27.834 83 30.501c16 1.33301 30.167 -0.333984 42.5 -5.00098s23 -11.167 32 -19.5s17.5 -16.833 25.5 -25.5
s17.667 -17.334 29 -26.001c27.333 -18.667 57.333 -31.5 90 -38.5s67.334 -10.5 104.001 -10.5c30 0 60 1.83301 90 5.5l90 11.5l99.5 15c39 6 79 14.833 120 26.5s79.667 26.667 116 45s64.5 41.166 84.5 68.499c28.667 37.333 37.667 67.166 27 89.499
s-30.834 40.333 -60.501 54s-62.834 22.834 -99.501 27.501s-67.334 8 -92.001 10c-15.333 1.33301 -30.833 2 -46.5 2h-49.5c-62.667 0 -128.834 -2.83301 -198.501 -8.5s-131.834 -15.167 -186.501 -28.5c-14 -2.66699 -28.167 -4.66699 -42.5 -6
s-27.333 -0.666016 -39 2.00098s-21.167 8 -28.5 16s-11 20.333 -11 37c0 30 7.83301 60.667 23.5 92s29.5 62 41.5 92c11.333 27.333 21.666 54.666 30.999 81.999l29 82c5.33301 18 10.333 35.833 15 53.5s8.33398 34.5 11.001 50.5c4.66699 23.333 7 49.333 7 78
s4.66699 56.667 14 84c4 11.333 8.66699 22.333 14 33s13.666 21.667 24.999 33c20.667 22 51.667 38 93 48s85 17.167 131 21.5s89.833 6.5 131.5 6.5s73.834 1.33301 96.501 4z" />
    <glyph glyph-name="six" unicode="6" horiz-adv-x="1475" 
d="M1446 457c-22 -78 -62.0098 -146.008 -120.01 -204.008s-124.5 -106.833 -199.5 -146.5s-153.167 -71.167 -234.5 -94.5s-155.333 -37.666 -222 -42.999c-11.333 -1.33301 -21.333 -2 -30 -2h-30c-88.667 0 -167.5 16.833 -236.5 50.5s-124.667 79.834 -167 138.501
s-68.5 126.834 -78.5 204.501s-0.666992 160.834 28 249.501c8 28.667 19.333 58 34 88c24.667 53.333 55.834 104 93.501 152s78.334 93.167 122.001 135.5s90 82.5 139 120.5l147.5 111c58.667 40.667 119.834 73.334 183.501 98.001s127.5 45.667 191.5 63
c27.333 8.66699 55 15.667 83 21s55.667 8 83 8c26 0 49.833 -3.83301 71.5 -11.5s40.167 -20.834 55.5 -39.501c9.33301 -11.333 15 -27.166 17 -47.499s-1.66699 -38.833 -11 -55.5c-9.33301 -16 -23.666 -28.5 -42.999 -37.5s-39.5 -15.5 -60.5 -19.5
s-42.167 -6.66699 -63.5 -8s-38.666 -4 -51.999 -8c-70 -18 -136.667 -40 -200 -66s-129.666 -56.667 -198.999 -92c-38.667 -20.667 -74.667 -44.667 -108 -72s-65.666 -56.666 -96.999 -87.999c-19.333 -17.333 -39.166 -39 -59.499 -65s-34.166 -50 -41.499 -72
c8.66699 6.66699 23.834 14.834 45.501 24.501s37.5 16.5 47.5 20.5l72 28.5c21.333 8.33301 42.166 15.5 62.499 21.5s41.833 11.833 64.5 17.5s48.334 11.167 77.001 16.5c45.333 9.33301 91.166 17.5 137.499 24.5s91.166 10.5 134.499 10.5c18 0 35.5 -0.666992 52.5 -2
s33.833 -3.33301 50.5 -6c57.333 -10 105.5 -26.167 144.5 -48.5s72.167 -56.166 99.5 -101.499c22.667 -39.333 34.334 -81.5 35.001 -126.5s-5.66602 -94.167 -18.999 -147.5zM1189.99 405.992c13.333 21.333 20.3262 40.499 20.9932 57.499s-0.333008 35.167 -3 54.5
c-9.33301 50.667 -33.166 85.167 -71.499 103.5s-83.5 27.5 -135.5 27.5c-51.333 0 -105.666 -6.16699 -162.999 -18.5s-109.333 -24.5 -156 -36.5c-27.333 -6.66699 -54.666 -14.167 -81.999 -22.5s-55.333 -17.833 -84 -28.5l-42.5 -18.5
c-16.333 -7 -31.666 -15 -45.999 -24s-25.666 -19.5 -33.999 -31.5s-10.5 -26.333 -6.5 -43c2.66699 -13.333 7.83398 -27.666 15.501 -42.999s15.5 -28.333 23.5 -39c6.66699 -9.33301 13.834 -17.833 21.501 -25.5s16.167 -15.5 25.5 -23.5
c18 -15.333 35.5 -28.333 52.5 -39s37.833 -19.667 62.5 -27c32.667 -8 64.334 -14.667 95.001 -20s63 -8 97 -8h34c11.333 0 23.333 1.33301 36 4c39.333 6.66699 82.666 19.5 129.999 38.5s90 42.167 128 69.5c34 23.333 61.333 54.333 82 93z" />
    <glyph glyph-name="seven" unicode="7" horiz-adv-x="1313" 
d="M524 1329c36 11.333 70.3311 19.333 102.998 24s65.334 6.33398 98.001 5.00098c27.333 -1.33301 54.666 -3.66602 81.999 -6.99902s51.333 -10.666 72 -21.999c27.333 -13.333 57 -21 89 -23s65.667 -1.66699 101 1c44 1.33301 90.167 8.16602 138.5 20.499
s95.166 27.166 140.499 44.499l79.5 31c23 9.33301 48.167 14 75.5 14c41.333 0 67 -13.667 77 -41s9.66699 -58 -1 -92c-10.667 -32.667 -27 -62 -49 -88c-24.667 -31.333 -52 -60.333 -82 -87s-58 -55 -84 -85l-106.5 -133.5l-104.5 -132.5l-109.5 -141.5l-101.5 -127
l-95 -123l-93 -124.5l-53.5 -79c-23 -34.667 -48.5 -68.167 -76.5 -100.5s-57.5 -58.333 -88.5 -78s-60.833 -23.5 -89.5 -11.5c-10.667 4.66699 -17 12.334 -19 23.001s-1.66699 22.167 1 34.5s6.33398 25 11.001 38s8.66699 24.833 12 35.5
c6.66699 28.667 21.167 57 43.5 85s43.166 55.667 62.499 83c40.667 64.667 79.5 123.167 116.5 175.5l112 153.5l119 150.5l137.5 166.5c14 14.667 26.5 29.5 37.5 44.5l32.5 45.5c10.667 13.333 21.834 26.5 33.501 39.5s22.5 27.167 32.5 42.5
c-15.333 -3.33301 -32.166 -7.33301 -50.499 -12s-36.833 -9 -55.5 -13s-37.167 -7 -55.5 -9s-34.166 -1.66699 -47.499 1c-24.667 4 -51.667 7 -81 9s-56.333 7.66699 -81 17c-26 10 -52.667 18 -80 24s-56.666 9 -87.999 9c-27.333 0 -55.333 -3 -84 -9
s-58.667 -16.667 -90 -32c-15.333 -8 -28.333 -15.5 -39 -22.5s-20.834 -13.167 -30.501 -18.5s-20 -9.33301 -31 -12s-23.833 -3.33398 -38.5 -2.00098c-18 1.33301 -31.167 7.16602 -39.5 17.499s-12.5 22.333 -12.5 36s2.83301 28.667 8.5 45s13.834 31.833 24.501 46.5
c27.333 37.333 60.166 71 98.499 101s77.833 51 118.5 63z" />
    <glyph glyph-name="eight" unicode="8" horiz-adv-x="1526" 
d="M1522 590c-1.33301 -32.667 -8.99707 -69.6631 -22.9971 -110.996c-8 -23.333 -17.833 -46.833 -29.5 -70.5s-25.834 -45.834 -42.501 -66.501c-50 -65.333 -108.167 -118.833 -174.5 -160.5s-135.666 -75.5 -207.999 -101.5s-146 -45.5 -221 -58.5
s-146.167 -22.833 -213.5 -29.5c-28.667 -2.66699 -55.5 -5 -80.5 -7s-49.833 -3 -74.5 -3c-50.667 0 -98.5 4.33301 -143.5 13s-90.167 22.667 -135.5 42c-24.667 10.667 -47.5 24.834 -68.5 42.501s-37.167 38.834 -48.5 63.501c-14.667 40 -16 83.667 -4 131
c12.667 44 29.834 85.167 51.501 123.5s52.5 73.166 92.5 104.499c40.667 31.333 84.167 62 130.5 92s91.5 54.667 135.5 74c-14 5.33301 -29.167 10 -45.5 14s-31.833 8 -46.5 12c-38.667 11.333 -66.667 30.666 -84 57.999c-38.667 50 -46.334 113.333 -23.001 190
c10 31.333 26.5 62.666 49.5 93.999s49.167 61 78.5 89s60.166 54 92.499 78s62.833 44.333 91.5 61c50 30 99.333 52.167 148 66.5s99 27.5 151 39.5c39.333 10.667 80.166 17.5 122.499 20.5l122.5 8.5c31.333 2.66699 65.833 2 103.5 -2s71.5 -9 101.5 -15
c28.667 -4 52.5 -8.33301 71.5 -13s36.167 -11.167 51.5 -19.5s28.666 -19.666 39.999 -33.999s23.333 -32.166 36 -53.499c12 -23.333 18 -48.333 18 -75s-4.66699 -54.334 -14 -83.001c-15.333 -46.667 -37.333 -89 -66 -127c-16 -20.667 -32.5 -40.5 -49.5 -59.5
s-35.833 -38.167 -56.5 -57.5c-18 -14.667 -36.5 -28.834 -55.5 -42.501s-36.167 -28.167 -51.5 -43.5c22 -1.33301 44 -3.33301 66 -6s42.333 -7.33398 61 -14.001c20.667 -7.33301 40.167 -15.333 58.5 -24s34.333 -19.167 48 -31.5s24 -27.333 31 -45
s9.16699 -38.834 6.5 -63.501zM526.003 913.004c7.33301 -10.667 18.498 -21.168 33.498 -31.501s28.5 -17.5 40.5 -21.5c15.333 -6.66699 30.833 -12.667 46.5 -18s31.5 -9.66602 47.5 -12.999l98.5 -17l94.5 -17c20.667 6.66699 37.667 13.667 51 21
s28.333 14.666 45 21.999c16.667 6.66699 33.5 14.334 50.5 23.001s32.833 17.334 47.5 26.001c16.667 8 34.834 18.167 54.501 30.5s38.834 25.666 57.501 39.999s34.834 29.333 48.501 45s23.834 32.5 30.501 50.5c9.33301 24.667 9.66602 45.5 0.999023 62.5
s-22 30.167 -40 39.5c-14 6.66699 -28.833 10.667 -44.5 12l-45.5 4c-12.667 2 -25.167 3 -37.5 3h-34.5c-66.667 0 -133.167 -6.5 -199.5 -19.5s-135.5 -36.167 -207.5 -69.5c-14 -6.66699 -30.833 -16.5 -50.5 -29.5s-37.334 -27.667 -53.001 -44s-27.667 -33.333 -36 -51
s-7.83301 -33.5 1.5 -47.5zM1124 326.003c15.333 8 32.167 18.4971 50.5 31.4971s34.333 27.333 48 43s23.334 31.334 29.001 47.001s4.16699 31.167 -4.5 46.5c-9.33301 14.667 -27.333 28.167 -54 40.5s-54.334 19.833 -83.001 22.5
c-18 2.66699 -39.167 5.33398 -63.5 8.00098s-46.833 5.33398 -67.5 8.00098c-18 3.33301 -37.833 5 -59.5 5s-41.5 1.33301 -59.5 4c-35.333 4 -76.5 -0.833008 -123.5 -14.5s-90.5 -28.167 -130.5 -43.5c-30 -12 -55.167 -23.5 -75.5 -34.5s-45.5 -23.833 -75.5 -38.5
l-38.5 -21c-14.333 -8 -28.333 -16.5 -42 -25.5s-26.667 -19 -39 -30s-21.166 -22.5 -26.499 -34.5c-10.667 -19.333 -15.334 -36.833 -14.001 -52.5s9.33301 -26.834 24 -33.501c16.667 -9.33301 35.667 -15.166 57 -17.499s42 -4.83301 62 -7.5l57.5 -8
c19 -2.66699 38.833 -4.66699 59.5 -6c49.333 -2.66699 99.833 -1 151.5 5s104.167 12.667 157.5 20c44 6.66699 88.167 17.167 132.5 31.5s86.833 32.5 127.5 54.5z" />
    <glyph glyph-name="nine" unicode="9" horiz-adv-x="1466" 
d="M1559 1214c16 -61.333 27.168 -121.325 33.501 -179.992s-1.5 -121.334 -23.5 -188.001c-10 -28.667 -23.667 -60.667 -41 -96c-53.333 -100 -115.833 -189.167 -187.5 -267.5s-154.5 -154.5 -248.5 -228.5c-83.333 -65.333 -167.333 -119.5 -252 -162.5
s-174.334 -75.5 -269.001 -97.5c-8 -2.66699 -20.833 -5.66699 -38.5 -9s-37.5 -6.5 -59.5 -9.5s-44.833 -5.83301 -68.5 -8.5s-46.5 -4 -68.5 -4c-23.333 0 -43.833 1.66699 -61.5 5s-31 9.5 -40 18.5s-11.833 21 -8.5 36s14.666 34.167 33.999 57.5
c15.333 16 32.5 29.167 51.5 39.5s38.333 18.333 58 24s39.834 10.5 60.501 14.5s39 8 55 12l119.5 33.5c39.667 11.667 80.5 25.167 122.5 40.5c24.667 8 54.667 21.167 90 39.5s72.833 40.833 112.5 67.5s80 57.5 121 92.5s79.833 73.5 116.5 115.5
c1.33301 1.33301 4.5 5.16602 9.5 11.499s10.5 12.833 16.5 19.5l16.5 18c5 5.33301 8.16699 9.66602 9.5 12.999c-53.333 -28.667 -103.333 -51.667 -150 -69s-89.667 -31.333 -129 -42c-20.667 -6.66699 -44.667 -13.167 -72 -19.5s-54.666 -11.833 -81.999 -16.5
s-54.5 -8.66699 -81.5 -12s-50.833 -5 -71.5 -5c-40 0 -81.833 2 -125.5 6s-84.834 12.5 -123.501 25.5s-72.667 30.667 -102 53s-49.666 52.166 -60.999 89.499c-12 39.333 -17.667 78.833 -17 118.5s10.334 82.167 29.001 127.5c15.333 35.333 34 73.166 56 113.499
s43 76.833 63 109.5c27.333 42 58.833 78.667 94.5 110s73.167 58.666 112.5 81.999s81 43.166 125 59.499s87.667 30.166 131 41.499c79.333 20 158.666 30 237.999 30c38 0 73.333 -2 106 -6c48 -4 93.167 -9.33301 135.5 -16s81.166 -21 116.499 -43
c28.667 -18 58 -37.5 88 -58.5s50 -49.5 60 -85.5zM1284 901.008c8 8 15.5 15.1631 22.5 21.4961s12.5 14.166 16.5 23.499c5.33301 20.667 6 40.667 2 60c-6.66699 46 -23 80 -49 102c-23.333 23.333 -53 40.833 -89 52.5s-72 20.834 -108 27.501c-20 4 -41 6 -63 6
s-44 1.33301 -66 4c-32.667 2.66699 -67.334 1.33398 -104.001 -3.99902s-73.5 -15.166 -110.5 -29.499s-72.167 -33.833 -105.5 -58.5s-62.333 -54 -87 -88c-14 -19.333 -27.5 -40.833 -40.5 -64.5s-22.833 -47.167 -29.5 -70.5c-6.66699 -22 -10.667 -42.5 -12 -61.5
s1.33398 -36.167 8.00098 -51.5c18 -35.333 44 -58.5 78 -69.5s71.333 -16.5 112 -16.5h38.5c13 0 25.5 0.666992 37.5 2c50.667 4 100.667 12.333 150 25c28.667 6.66699 57 12.334 85 17.001s55.667 12.667 83 24c44.667 14.667 85.5 34.334 122.5 59.001
s73.167 54.667 108.5 90z" />
    <glyph glyph-name="colon" unicode=":" horiz-adv-x="557" 
d="M198 531c75.333 0 155.331 -33.333 239.998 -100c8 -14.667 12 -26.667 12 -36c0 -34.667 -44 -84 -132 -148c-21.333 -5.33301 -34.666 -8 -39.999 -8h-16c-67.333 0 -132.666 46.667 -195.999 140l-4 28c22.667 82.667 68 124 136 124zM197.998 1264
c75.333 0 155.331 -33.333 239.998 -100c8 -14.667 12 -26.667 12 -36c0 -34.667 -44 -84 -132 -148c-21.333 -5.33301 -34.666 -8 -39.999 -8h-16c-67.333 0 -132.666 46.667 -195.999 140l-4 28c22.667 82.667 68 124 136 124z" />
    <glyph glyph-name="semicolon" unicode=";" horiz-adv-x="557" 
d="M198 1264c75.333 0 155.331 -33.333 239.998 -100c8 -14.667 12 -26.667 12 -36c0 -34.667 -44 -84 -132 -148c-21.333 -5.33301 -34.666 -8 -39.999 -8h-16c-67.333 0 -132.666 46.667 -195.999 140l-4 28c22.667 82.667 68 124 136 124zM108.998 305
c6 -66.667 19.666 -112.333 40.999 -137h16c124 82 186 203 186 363c-11.333 117.333 -32.666 176 -63.999 176c-119.333 -93.333 -179 -227.333 -179 -402z" />
    <glyph glyph-name="semicolon" unicode="&#x37e;" horiz-adv-x="557" 
d="M198 1264c75.333 0 155.331 -33.333 239.998 -100c8 -14.667 12 -26.667 12 -36c0 -34.667 -44 -84 -132 -148c-21.333 -5.33301 -34.666 -8 -39.999 -8h-16c-67.333 0 -132.666 46.667 -195.999 140l-4 28c22.667 82.667 68 124 136 124zM108.998 305
c6 -66.667 19.666 -112.333 40.999 -137h16c124 82 186 203 186 363c-11.333 117.333 -32.666 176 -63.999 176c-119.333 -93.333 -179 -227.333 -179 -402z" />
    <glyph glyph-name="less" unicode="&#x3c;" horiz-adv-x="1286" 
d="M877 1077c9.33301 4 26.001 12.5029 50.001 25.5029l84 45.5c32 17.333 67.167 35.166 105.5 53.499s76.166 35.333 113.499 51s72.666 28.667 105.999 39s62.333 15.5 87 15.5c45.333 0 66 -21.333 62 -64c-2.66699 -19.333 -12.5 -38.5 -29.5 -57.5
s-38.5 -38 -64.5 -57s-54.333 -37.833 -85 -56.5s-61.167 -35.834 -91.5 -51.501s-58.333 -29.167 -84 -40.5s-46.167 -20.666 -61.5 -27.999l-122.5 -55l-119.5 -55c-48.667 -24.667 -97.667 -47 -147 -67s-97.666 -43.333 -144.999 -70
c10.667 -19.333 29.667 -35.166 57 -47.499s50.666 -24.5 69.999 -36.5c28.667 -18 61 -36.5 97 -55.5l109.5 -59.5l107.5 -62.5c34.667 -21 65 -41.833 91 -62.5c23.333 -19.333 43.5 -41.666 60.5 -66.999s24.167 -55.666 21.5 -90.999
c-1.33301 -16 -6.16602 -32.667 -14.499 -50s-19 -32.333 -32 -45s-27.667 -23.167 -44 -31.5s-32.5 -11.833 -48.5 -10.5c-31.333 2.66699 -59.666 14.667 -84.999 36s-49.666 40.666 -72.999 57.999c-16.667 14 -36.834 29.167 -60.501 45.5s-48.5 32.333 -74.5 48l-77 45
l-67 37.5c-38 20.667 -74 42.667 -108 66s-71 44.333 -111 63c-12 7.33301 -25.833 14.666 -41.5 21.999s-31 15.166 -46 23.499s-29 17.166 -42 26.499s-23.5 20.333 -31.5 33c-10 13.333 -15 29.666 -15 48.999s3.33301 39 10 59c11.333 36 30 67 56 93
c16 17.333 34 31.5 54 42.5s40.167 20.5 60.5 28.5s41.166 15.167 62.499 21.5s42 13.5 62 21.5c67.333 27.333 133.333 56 198 86s130 58.667 196 86z" />
    <glyph glyph-name="equal" unicode="=" horiz-adv-x="1067" 
d="M266 850c0 20.667 5.50098 38.832 16.501 54.499s24.333 29.334 40 41.001s32.667 20.834 51 27.501s35.166 12 50.499 16c34 10 65.667 16.667 95 20s57.666 5 84.999 5c16.667 0 32.834 -0.333008 48.501 -1s31.5 -1.66699 47.5 -3c41.333 -2.66699 83.833 -2 127.5 2
s87.167 7.33301 130.5 10c11.333 1.33301 25.166 2.66602 41.499 3.99902s33.5 2 51.5 2c30 0 56.5 -5.16699 79.5 -15.5s33.167 -32.5 30.5 -66.5c-1.33301 -20.667 -12.5 -42.167 -33.5 -64.5s-40.5 -37.5 -58.5 -45.5c-31.333 -18 -65.166 -26.667 -101.499 -26
s-70.166 -0.333008 -101.499 -3c-57.333 -6.66699 -114.333 -11 -171 -13s-113.667 -8.66699 -171 -20c-18.667 -2.66699 -44.834 -7.33398 -78.501 -14.001s-65.5 -10 -95.5 -10c-14.667 0 -28.167 1.33301 -40.5 4s-21.833 7.33398 -28.5 14.001
c-8.66699 8 -13.667 19.833 -15 35.5s-1.33301 31.167 0 46.5zM1049 527.998c0 14 -1.16504 26.4961 -3.49805 37.4961s-7.5 17.833 -15.5 20.5c-14.667 6.66699 -28.834 12.334 -42.501 17.001s-29.5 8.33398 -47.5 11.001c-28.667 4.66699 -57.334 7 -86.001 7
c-20.667 0 -41.167 -0.5 -61.5 -1.5s-41.5 -2.16699 -63.5 -3.5h-61h-74c-56 0 -111.667 -2.66699 -167 -8s-112.333 -19.666 -171 -42.999c-19.333 -6.66699 -39.5 -15.834 -60.5 -27.501s-39.167 -28.5 -54.5 -50.5c-16 -25.333 -17.833 -49 -5.5 -71
s24.5 -38.333 36.5 -49c12 -11.333 25.667 -17 41 -17s32.333 1.33301 51 4c28.667 4 57.334 7.16699 86.001 9.5s57.334 4.83301 86.001 7.5c54.667 2.66699 109 6 163 10s109 9.33301 165 16c31.333 2.66699 63.666 4.33398 96.999 5.00098s65.666 9.33398 96.999 26.001
c15.333 8 33.5 21 54.5 39s33.167 38.333 36.5 61z" />
    <glyph glyph-name="greater" unicode="&#x3e;" horiz-adv-x="1300" 
d="M655 315c-9.33301 -4 -25.998 -12.498 -49.998 -25.498l-85 -45l-106.5 -53c-38.333 -18.333 -75.833 -35.333 -112.5 -51s-72.167 -28.667 -106.5 -39s-62.833 -15.5 -85.5 -15.5c-45.333 0 -66 21.333 -62 64c4 26.667 23.5 55.167 58.5 85.5s75.333 58.666 121 84.999
s90.667 50.166 135 71.499l101.5 48l121.5 55.5c39 17.667 79.167 36.834 120.5 57.501c47.333 23.333 96 45.166 146 65.499s98.667 44.166 146 71.499c-10.667 19.333 -29.667 34.833 -57 46.5s-50.666 23.5 -69.999 35.5c-28.667 18 -61 36.5 -97 55.5l-110.5 59.5
c-37.667 20.667 -73.834 41.5 -108.501 62.5s-64.334 41.833 -89.001 62.5c-23.333 18.667 -43.5 40.667 -60.5 66s-24.167 55.666 -21.5 90.999c1.33301 16.667 6.16602 33.5 14.499 50.5s18.5 32 30.5 45s26.333 23.667 43 32s33.667 11.833 51 10.5
c31.333 -2.66699 59.666 -14.667 84.999 -36l73 -59c16.667 -13.333 36.5 -28.166 59.5 -44.499s47.5 -32.333 73.5 -48l78 -45c26 -14.333 48.333 -27.166 67 -38.499c37.333 -20 73 -41.667 107 -65s71 -44.666 111 -63.999c27.333 -14.667 57.333 -29.5 90 -44.5
s57 -34.167 73 -57.5c16.667 -30 17.334 -67 2.00098 -111c-10.667 -36.667 -28.334 -67.334 -53.001 -92.001c-16 -18 -34 -32.333 -54 -43s-40.167 -20.167 -60.5 -28.5s-41.166 -15.5 -62.499 -21.5s-42 -13.333 -62 -22c-67.333 -27.333 -133.333 -56 -198 -86
s-130 -58.667 -196 -86z" />
    <glyph glyph-name="question" unicode="?" horiz-adv-x="1073" 
d="M198 292c75.333 0 155.331 -33.333 239.998 -100c8 -14.667 12 -26.667 12 -36c0 -34.667 -44 -84 -132 -148c-21.333 -5.33301 -34.666 -8 -39.999 -8h-16c-67.333 0 -132.666 46.667 -195.999 140l-4 28c22.667 82.667 68 124 136 124zM537.998 1410h59
c119.333 0 236.333 -45 351 -135c48 -46 72 -101.333 72 -166c-6 -99.333 -58.667 -215 -158 -347c-38 -39.333 -134 -113 -288 -221c-107.333 -102 -211 -153 -311 -153c-54 4.66699 -81 30.334 -81 77.001c0 85.333 51 170.666 153 255.999
c34.667 23.333 113 53.333 235 90c108 66 162 136.667 162 212c-12.667 63.333 -75.667 95 -189 95h-14c-128 0 -236 -51 -324 -153c-39.333 -78.667 -80 -118 -122 -118c-60 0 -90 42.333 -90 127c0 204.667 156 347 468 427c24 6 49.667 9 77 9z" />
    <glyph glyph-name="A" unicode="A" horiz-adv-x="1540" 
d="M1143 1427l4 -1227c-29.333 -129.333 -82 -195 -158 -197s-114 4.33301 -114 19l-22 316h-5c-58 -2.66699 -203.667 -5.33398 -437 -8.00098l-152 -235c-44 -62 -94.167 -93 -150.5 -93s-84.5 3 -84.5 9c96.667 152.667 158.667 256.334 186 311.001
c-118 -6 -177 -6 -177 0v9c0 90.667 53 162.334 159 215.001l153 20c166 246 388.333 531 667 855c43.333 15.333 87 17.333 131 6zM566 582.999h5.00098l286 6v4c0 25.333 -1.33301 156.333 -4 393c-10.667 -10.667 -106.334 -145 -287.001 -403z" />
    <glyph glyph-name="B" unicode="B" horiz-adv-x="1244" 
d="M762 1431c96 6 203.334 -32.666 322.001 -115.999c80.667 -85.333 121 -175.666 121 -270.999c0 -148.667 -101.667 -269.334 -305 -362.001c-8 0 -12 -2.66699 -12 -8c157.333 -63.333 236 -141 236 -233c0 -138 -97 -260.667 -291 -368c-92 -44 -170 -68.333 -234 -73
h-564c-54.667 42.667 -12.334 337 126.999 883c110.667 304.667 219 471 325 499c97.333 43.333 189 59.666 275 48.999zM364.001 651.001c50.667 0 173.333 30.332 368 90.999c118 50.667 189 111.334 213 182.001c6 19.333 9 32.333 9 39v22
c0 78 -95.667 131.333 -287 160h-43c-106.667 -7.33301 -160 -23 -160 -47c0 -4.66699 -33.333 -153.667 -100 -447zM294 368l-24.001 -74c55.333 -50.667 157.333 -71.667 306 -63h33c159.333 9.33301 252 40 278 92c2.66699 55.333 -104.666 84 -321.999 86h-28
c-105.333 2.66699 -186.333 -11 -243 -41z" />
    <glyph glyph-name="C" unicode="C" horiz-adv-x="1292" 
d="M1060 1434c110.667 0 165.999 -45.001 165.999 -135.001c0 -72.667 -55.333 -119.667 -166 -141h-6c-51.333 0 -102.333 2 -153 6c-278 0 -462 -100 -552 -300c-32.667 -57.333 -49 -126.666 -49 -207.999c0 -145.333 30.667 -241.333 92 -288
c42 -28.667 117.667 -43 227 -43c148 0 301.333 63.333 460 190h6c40.667 0 61 -16.333 61 -49c0 -80 -118.333 -200.667 -355 -362c-114 -69.333 -224.333 -104 -331 -104c-253.333 0 -406.666 128.667 -459.999 386v86c0 268.667 167.667 525 503 769
c204 128.667 389.667 193 557 193z" />
    <glyph glyph-name="D" unicode="D" horiz-adv-x="1372" 
d="M514 1431l33 -0.000976562c256 0 461.333 -81 616 -243c68.667 -65.333 103 -130.666 103 -195.999v-27c-13.333 -146 -79 -312.333 -197 -499c-113.333 -156 -236.333 -266 -369 -330c-172.667 -90.667 -308 -136 -406 -136c-59.333 -0 -130.333 1.33301 -213 4
c-11.333 137.333 -18 259 -20 365c0 441.333 101 792 303 1052c58 6.66699 108 10 150 10zM307 462.999c4 -160 12.001 -240.001 24.001 -240.001c43.333 -8.66699 81 -13 113 -13h16c158 0 310 108.667 456 326c48.667 102.667 73 180.334 73 233.001
c0 90 -75.333 193 -226 309c-82.667 58 -172.334 87 -269.001 87c-31.333 0 -47 -9 -47 -27c-93.333 -214.667 -140 -439.667 -140 -675z" />
    <glyph glyph-name="E" unicode="E" horiz-adv-x="1354" 
d="M1133 1434c110 -1.33301 164.999 -20.332 164.999 -56.999c0 -88 -57.667 -153.667 -173 -197h-12l-553 -18c-98.667 -138.667 -148 -282 -148 -430c160 -24.667 294.333 -30.334 403 -17.001c114.667 18 197.667 27 249 27c32 0 54.667 -12.333 68 -37v-18
c0 -74 -65.667 -139.667 -197 -197c-49.333 -8 -88.333 -12 -117 -12l-387 8c-66 -7.33301 -99 -34 -99 -80c0 -74 47.333 -111 142 -111c120 0 312.667 30.667 578 92h18c32.667 0 49 -16.333 49 -49v-12c-19.333 -158 -209.666 -264.667 -570.999 -320
c-39.333 -4 -78.333 -6 -117 -6h-13c-119.333 -0 -234 16.333 -344 49v6c-4 100.667 -6 156 -6 166c0 444.667 158.333 849 475 1213h590z" />
    <glyph glyph-name="F" unicode="F" horiz-adv-x="1412" 
d="M1111 1436c149.333 0 223.999 -37.332 223.999 -111.999c5.33301 -42.667 -39.667 -93.334 -135 -152.001c-35.333 -8.66699 -58.333 -13 -69 -13c-244 8.66699 -380.667 13 -410 13c-106.667 0 -181.334 -16.667 -224.001 -50c-87.333 -154 -132 -290 -134 -408
c9.33301 -16 51 -24 125 -24c248 1.33301 421.667 4 521 8c66.667 0 100 -24.667 100 -74c0 -48 -56 -107.333 -168 -178c-29.333 -8 -52.333 -12 -69 -12c-35.333 0 -189.666 -4.66699 -462.999 -14c-62 -3.33301 -93 -22 -93 -56c-40.667 -168 -108 -289.333 -202 -364
h-83l-8 68c0 394 78.667 759 236 1095c78.667 174 242.334 261 491.001 261c134.667 8 255 12 361 12z" />
    <glyph glyph-name="G" unicode="G" horiz-adv-x="1441" 
d="M1232 1441c46 -13.333 69 -26.665 69 -39.998c0 -53.333 -52 -120 -156 -200h-118c-218.667 0 -413.667 -77.667 -585 -233c-83.333 -104.667 -125 -205.334 -125 -302.001v-50c0 -146 77 -245.667 231 -299l137 -12c148 0 251.667 64.333 311 193
c4 7.33301 6 17.666 6 30.999v13c-4 12 -16.333 18 -37 18c-76.667 0 -149.334 -45.667 -218.001 -137l-19 -12h-25c-50.667 0 -88 47.667 -112 143c0 94.667 139 184 417 268c100.667 20.667 171.334 31 212.001 31c78.667 0 118 -50 118 -150
c0 -144.667 -100.333 -303.667 -301 -477c-184 -150.667 -349 -226 -495 -226h-69c-138 -0 -262.333 64.333 -373 193c-66.667 86 -100 191.667 -100 317c0 274 151 518 453 732c235.333 128.667 495 195 779 199z" />
    <glyph glyph-name="H" unicode="H" horiz-adv-x="1627" 
d="M1464 1434c24 0 41.998 -12.002 53.998 -36.002v-36c-103.333 -251.333 -178.333 -461.666 -225 -630.999c-6 -9.33301 -11.333 -43.666 -16 -102.999l194 -17l-136 -226c-82.667 -19.333 -159.667 -116.333 -231 -291c-38 -65.333 -80 -98 -126 -98
c-65.333 4.66699 -95.666 33 -90.999 85c60 148.667 90 236 90 262c0 16.667 -15 31.667 -45 45c-142.667 -12 -308 -18 -496 -18c-45.333 0 -92.666 -94.667 -141.999 -284c-24 -57.333 -74.333 -84 -151 -80c-42 0 -63 27 -63 81c0 94.667 62.667 330.667 188 708
s250.333 587.333 375 630c30 -9.33301 45 -27.333 45 -54c-138 -370 -207 -562.333 -207 -577c-12 -24 -18 -57.333 -18 -100v-36c2.66699 -12 17.667 -24 45 -36l298 18c66 -6 141.333 -6.66699 226 -2c141.333 528.667 285.333 794 432 796z" />
    <glyph glyph-name="I" unicode="I" horiz-adv-x="686" 
d="M594 1431c25.333 -9.33301 38 -18.668 38 -28.001v-10c-107.333 -221.333 -185.666 -449.666 -234.999 -684.999s-108.333 -432.666 -177 -591.999c-47.333 -74 -108 -112.667 -182 -116l-9 19v75c21.333 461.333 133.666 850.666 336.999 1168
c80 112.667 156 169 228 169z" />
    <glyph glyph-name="J" unicode="J" horiz-adv-x="1092" 
d="M983 1438c33.333 -3.33301 50.001 -17.998 50.001 -43.998c-17.333 -352 -42.333 -573.333 -75 -664c-64.667 -230.667 -192.334 -437.334 -383.001 -620.001c-89.333 -73.333 -166 -110 -230 -110h-37c-122 0 -205.333 68.667 -250 206
c-12.667 55.333 -19 101.333 -19 138c0 158 66.667 264 200 318h31c12.667 0 19 -8.33301 19 -25l6 -149c18.667 -133.333 66.667 -200 144 -200c114 0 207.667 162.333 281 487c8.66699 53.333 13 105.666 13 156.999v31c0 74.667 -4.33301 153.667 -13 237
c0 108.667 73 188 219 238h44z" />
    <glyph glyph-name="K" unicode="K" horiz-adv-x="1382" 
d="M426 1438c41.333 0 65.001 -32.666 71.001 -97.999c-23.333 -119.333 -73.666 -305.666 -150.999 -558.999v-71c1.33301 -12 7.33301 -18 18 -18c80 0 319.667 222 719 666c69.333 53.333 116.666 80 141.999 80c23.333 0 44 -32.667 62 -98
c0 -72 -176 -250.667 -528 -536c-17.333 -37.333 -26 -64 -26 -80c119.333 -226.667 179.666 -382.334 180.999 -467.001c-22.667 -178 -113.667 -261.333 -273 -250c-94.667 381.333 -160.334 568.666 -197.001 561.999l-83 -42c-45.333 -12.667 -95 -168 -149 -466
c-47.333 -47.333 -94.666 -71 -141.999 -71h-18c-47.333 0 -71 23.667 -71 71v9c0 125.333 85.333 530.333 256 1215c70 102 133 153 189 153z" />
    <glyph glyph-name="L" unicode="L" horiz-adv-x="1128" 
d="M573 1370c-11.333 -48.667 -71.665 -208.666 -180.998 -479.999c-68.667 -194.667 -108 -381.334 -118 -560.001c48.667 -47.333 128.667 -66.666 240 -57.999c86 0 217 19 393 57c93.333 31.333 127.666 18.666 102.999 -38.001c-70 -158 -238.333 -252 -505 -282
l-223 -3c-188 -4 -281 61 -279 195c37.333 302.667 111.666 607.667 222.999 915c95.333 208 177 314 245 318s102 -17.333 102 -64z" />
    <glyph glyph-name="M" unicode="M" horiz-adv-x="1457" 
d="M1344 1434c34.667 -10 51.9971 -36.332 51.9971 -78.999c-81.333 -349.333 -158.333 -745 -231 -1187c-48 -122.667 -116.667 -178.667 -206 -168c-40.667 17.333 -61 72.666 -61 165.999v35c0 144.667 26.333 299.334 79 464.001v8h-9
c-178 -356.667 -332.667 -552 -464 -586h-8c-76 0 -116 131.667 -120 395l6 139v9h-9c-58 -114 -107 -269.333 -147 -466c-37.333 -100 -81.333 -153.667 -132 -161c-68 -4 -100 20 -96 72c-6 122.667 75.333 438.667 244 948c122.667 250.667 243 376 361 376h18
c23.333 -8.66699 35 -29 35 -61v-9c-25.333 -253.333 -43.666 -451 -54.999 -593c4.66699 -110.667 22.334 -166 53.001 -166c44.667 23.333 152.334 165.666 323.001 426.999c176 285.333 280.667 428 314 428z" />
    <glyph glyph-name="N" unicode="N" horiz-adv-x="1476" 
d="M1298 1418h18.999c8.66699 0 17.667 -9.33301 27 -28c0 -24 -28.5 -210.667 -85.5 -560s-119.167 -577.333 -186.5 -684c-54.667 -79.333 -112.667 -119 -174 -119c-103.333 28.667 -189.333 153.667 -258 375c-86.667 276 -150 425.667 -190 449l-94 -431
c-76 -280 -176.333 -420 -301 -420c-36.667 -0 -55 24.333 -55 73c98.667 333.333 168.667 656.333 210 969c32.667 122 109 228.667 229 320c30 12 51.333 18 64 18c86.667 0 214.334 -240.667 383.001 -722c30.667 -67.333 52 -101 64 -101c29.333 60 72 246 128 558
c58 213.333 131.333 314.333 220 303z" />
    <glyph glyph-name="O" unicode="O" horiz-adv-x="1402" 
d="M833 1434c221.333 0 361.667 -100.332 421 -300.999c5.33301 -30.667 8 -56.334 8 -77.001v-34c0 -316 -175.667 -622.667 -527 -920c-95.333 -74 -200 -108 -314 -102c-154.667 -0 -277.667 77.333 -369 232c-34.667 70 -52 147.333 -52 232
c24 233.333 107 456.333 249 669c195.333 200.667 390 301 584 301zM226.001 541.001c0 -130 88.667 -205.334 266 -226.001h48c208 0 360 173.333 456 520v59c0 147.333 -96.333 241 -289 281c-184 22.667 -341.333 -162.666 -472 -555.999c-6 -25.333 -9 -51.333 -9 -78z
" />
    <glyph glyph-name="P" unicode="P" 
d="M800 1435c249.333 -10 404.999 -60.332 466.999 -150.999c34.667 -36.667 51.667 -84.667 51 -144c0 -233.333 -166.333 -441 -499 -623c-149.333 -59.333 -306.666 -89 -471.999 -89v-9c-56 -272 -139 -408.667 -249 -410c-10 -6 -25 -9 -45 -9h-17
c-24 9.33301 -36 30 -36 62v18c0 154.667 83 511 249 1069c76 209.333 259.667 304.666 551 285.999zM400.999 695.001h70.999c323.333 4 510.333 110.667 561 320c14.667 91.333 -93.666 144.333 -324.999 159c-100.667 -2.66699 -167 -19 -199 -49
c-12.667 -32.667 -48.667 -176 -108 -430z" />
    <glyph glyph-name="Q" unicode="Q" horiz-adv-x="1375" 
d="M909 1428c181.333 0 298.334 -88.0029 351.001 -264.003c12 -45.333 20 -111.666 24 -198.999c0 -193.333 -113.333 -439.666 -340 -738.999c18 -37.333 53 -88 105 -152c-32 -77.333 -92.333 -140.333 -181 -189l-83 -38l-155 182
c-104.667 -17.333 -185.667 -26 -243 -26c-180.667 0 -302 66.667 -364 200c-11.333 38.667 -19 85.334 -23 140.001c0 150 57.667 340.333 173 571c213.333 342.667 458.666 514 735.999 514zM293.001 595.997v-36c0 -119.333 76.333 -215 229 -287
c-3.33301 17.333 -4.33301 37.333 -3 60c0 80 45 148.333 135 205c6.66699 4 14.334 6 23.001 6h18c32 0 70 -37.667 114 -113l23 -41c52 22 110.667 116.333 176 283s22.333 303 -129 409c-44.667 27.333 -93.334 41 -146.001 41c-135.333 16 -258.333 -75.333 -369 -274
c-47.333 -112 -71 -196.333 -71 -253z" />
    <glyph glyph-name="R" unicode="R" horiz-adv-x="1344" 
d="M620 1434c244.667 -2.66699 430.332 -37.665 556.999 -104.998c85.333 -58.667 128 -149.334 128 -272.001c0 -164.667 -126 -339 -378 -523c143.333 -159.333 215 -244.333 215 -255c-28 -78 -93.667 -171 -197 -279h-6c-100 88 -207.333 227.333 -322 418
c-49.333 -16 -104 -28 -164 -36c-69.333 -4 -118.333 2 -147 18c-98.667 -286.667 -180 -420.334 -244 -401.001c-43.333 0 -60.666 37.667 -51.999 113c23.333 120.667 50 276 80 466c72 408 140.667 647.333 206 718c66 92 174 138 324 138zM340.998 615.002
c64.667 -7.33301 107.333 -11 128 -11c195.333 0 361.666 65.667 498.999 197c34.667 56.667 52 111 52 163c0 113.333 -91 185 -273 215c-57.333 11.333 -107.666 17 -150.999 17c-88.667 0 -133 -9.66699 -133 -29c0 -10 -40.667 -194 -122 -552z" />
    <glyph glyph-name="S" unicode="S" horiz-adv-x="1237" 
d="M835 1433l36.999 -0.00292969c178.667 0 268 -51 268 -153c-0.666992 -98 -62 -144.667 -184 -140c-126 29.333 -228 40.833 -306 34.5s-122 -39.166 -132 -98.499c-4 -49.333 65 -125.666 207 -228.999c168.667 -104 253 -223.333 253 -358
c-16 -248 -136 -406 -360 -474c-86 -10 -137.667 -15 -155 -15c-160.667 -6 -293 40.667 -397 140c-36 36 -58 74.667 -66 116c0 91.333 49 157 147 197c102 40.667 221.333 -7.33301 358 -144c30 -16.667 56.333 -25 79 -25c72 24 96.333 66.667 73 128
c-43.333 72.667 -120.666 144.334 -231.999 215.001c-165.333 120.667 -248 238.667 -248 354c0 138.667 103.667 267 311 385c121.333 44.667 237 67 347 67z" />
    <glyph glyph-name="T" unicode="T" horiz-adv-x="1056" 
d="M612 1430c190 15.333 303.668 -18.332 341.001 -100.999c19.333 -62 -22.334 -112 -125.001 -150c-59.333 -28 -127.333 -42 -204 -42h-28c-40 -152.667 -106.667 -444.334 -200 -875.001c-48 -177.333 -115 -264.666 -201 -261.999h-37c-30 0 -47 24.667 -51 74
c0 38 52.667 239.333 158 604c54 245.333 83.333 397.333 88 456h-5c-53.333 -3.33301 -108.333 -7 -165 -11c-102.667 -2 -155.334 20.667 -158.001 68c2.66699 57.333 53.334 106.666 152.001 147.999c114 54.667 259 85 435 91z" />
    <glyph glyph-name="U" unicode="U" horiz-adv-x="1260" 
d="M1025 1431c56.667 4.66699 93.335 -33.999 110.002 -115.999c3.33301 -19.333 5 -38.333 5 -57v-57c0 -259.333 -110 -551 -330 -875c-102.667 -128.667 -197.334 -215.334 -284.001 -260.001c-77.333 -48.667 -152 -73 -224 -73h-26
c-102.667 0 -181.667 56.333 -237 169c-26 116.667 -39 219 -39 307c0 228.667 58 510.667 174 846c34 78.667 86.333 118 157 118c43.333 -2.66699 60.333 -31.667 51 -87c-97.333 -321.333 -146 -589.666 -146 -804.999c22 -140 83.333 -221 184 -243
c104.667 -6.66699 186.667 59 246 197c56 142 107.333 349.667 154 623c55.333 213.333 123.666 317.666 204.999 312.999z" />
    <glyph glyph-name="V" unicode="V" horiz-adv-x="1363" 
d="M315 1434c54 -345.333 122 -668.666 204 -969.999h6l563 939h6c104.667 -53.333 166.334 -90.333 185.001 -111c-216.667 -388.667 -488.334 -819.334 -815.001 -1292h-167c-22 22 -67.333 133.333 -136 334c-107.333 370 -161 681 -161 933c200 111.333 305 167 315 167
z" />
    <glyph glyph-name="W" unicode="W" horiz-adv-x="1709" 
d="M1398 1438c101.333 -36.667 158.667 -61.6699 172 -75.0029c-130.667 -200.667 -254 -416.667 -370 -648c-106.667 -211.333 -206.667 -443.666 -300 -696.999c-3.33301 -12 -9.33301 -18 -18 -18c-90 -3.33301 -135 -1.66602 -135 5.00098
c-60 322.667 -90 582.667 -90 780v5h-4c-164.667 -279.333 -298.667 -541.333 -402 -786l-8 -5h-164c-8.66699 0 -27.667 138.667 -57 416c-14.667 214.667 -22 379.334 -22 494.001c0 30.667 3 136.334 9 317.001l251 199h9v-150c0 -236 13.333 -477.333 40 -724h4
c109.333 276.667 236 515 380 715c78.667 108.667 155 163 229 163l4 -9v-145c0 -239.333 13.333 -454.333 40 -645h4c97.333 273.333 240 542.666 428 807.999z" />
    <glyph glyph-name="X" unicode="X" horiz-adv-x="1638" 
d="M1194 382c41.333 -61.333 67.0029 -115.333 77.0029 -162v-7c0 -62.667 -64.667 -130.334 -194 -203.001c-7.33301 -4 -15.666 -6 -24.999 -6c-58 0 -128 84.667 -210 254c-102.667 169.333 -158 258 -166 266c-270.667 -202.667 -473.334 -376.334 -608.001 -521.001
h-25c-20 9.33301 -30 29.666 -30 60.999v24c55.333 131.333 164.5 257.833 327.5 379.5s244.5 207.5 244.5 257.5c0 22.667 -51.667 103.334 -155 242.001l-14 18c-64 85.333 -103 158 -117 218v7c0 62.667 64.667 130.334 194 203.001c7.33301 4 15.666 6 24.999 6
c58 0 135 -80.667 231 -242c39.333 -66 82 -145.667 128 -239c53.333 14 191.333 146 414 396c82.667 64.667 153.667 97 213 97c37.333 0 59.666 -28.333 66.999 -85c0 -51.333 -22.333 -88 -67 -110c-208 -188 -390.667 -344.333 -548 -469
c103.333 -121.333 182.666 -249.666 237.999 -384.999z" />
    <glyph glyph-name="Y" unicode="Y" horiz-adv-x="1312" 
d="M302 1431c35.333 0 54.998 -13.666 58.998 -40.999c-8 -46 -31.333 -94.333 -70 -145c-27.333 -46.667 -41 -89.334 -41 -128.001v-47c26.667 -135.333 82.334 -203 167.001 -203h87c168 0 272.667 17.333 314 52c104.667 61.333 169.334 162.666 194.001 303.999
c20 140 74.333 209.333 163 208c50.667 0 76 -29 76 -87c0 -124 -58.333 -277.333 -175 -460c-99.333 -131.333 -251 -216.666 -455 -255.999c-2.66699 -105.333 -45 -258.333 -127 -459c-64 -112.667 -126 -169 -186 -169c-30.667 7.33301 -46 15 -46 23
c0 81.333 33 281 99 599h-6c-42.667 0.666992 -89.667 5.66699 -141 15c-93.333 22 -157 83.667 -191 185c-14.667 51.333 -19.334 108 -14.001 170c10.667 118 75.667 247 195 387c36.667 34.667 69.334 52 98.001 52z" />
    <glyph glyph-name="Z" unicode="Z" horiz-adv-x="1628" 
d="M1452 1434c61.333 -6 91.999 -33.334 91.999 -82.001c0 -59.333 -39.667 -114.333 -119 -165l-977 -886h9c471.333 -1.33301 728 -2 770 -2c6 -12 9 -21 9 -27c-66 -181.333 -185.667 -272 -359 -272c-484 3.33301 -778.667 5 -884 5c0 6.66699 -3 10 -9 10
c109.333 220 327.666 455.667 654.999 707c284 249.333 426 393.333 426 432c-27.333 18.667 -54.666 28 -81.999 28c-28 0 -164.667 6 -410 18c-67.333 6 -101 24.333 -101 55c54.667 102.667 145.334 163.334 272.001 182.001c257.333 4 493.333 3 708 -3z" />
    <glyph glyph-name="bracketleft" unicode="[" horiz-adv-x="772" 
d="M225 705c15.333 47.333 29.5098 93.8291 42.5098 139.496s26.833 91.834 41.5 138.501c23.333 69.333 48.666 138.5 75.999 207.5s52.666 138.5 75.999 208.5c2.66699 10.667 5.66699 21.167 9 31.5s6.33301 20.833 9 31.5c2.66699 10 5 20 7 30s5.33301 20.667 10 32
c5.33301 14.667 11.333 29.5 18 44.5s17.667 28.167 33 39.5c22 18.667 48.333 30.834 79 36.501s57.667 9.83398 81 12.501c28.667 4 57 4.33301 85 1s56.333 -5 85 -5c18.667 0 38 0.333008 58 1s39.333 1 58 1h31c9.33301 0 19 -0.666992 29 -2
c30 -2.66699 51.167 -11.5 63.5 -26.5s10.166 -39.833 -6.50098 -74.5c-13.333 -28.667 -31.333 -52.167 -54 -70.5s-48.334 -31.5 -77.001 -39.5c-31.333 -6.66699 -61.333 -11.167 -90 -13.5s-57.334 -4.16602 -86.001 -5.49902
c-15.333 -1.33301 -29.5 -1.66602 -42.5 -0.999023s-25.167 0 -36.5 -2s-21.833 -6.66699 -31.5 -14s-17.834 -19.333 -24.501 -36c-18 -40.667 -33.833 -81.5 -47.5 -122.5l-40.5 -125.5c-7.33301 -20 -14.333 -40.667 -21 -62l-20 -63
c-11.333 -31.333 -22 -62.666 -32 -93.999s-21.333 -62.666 -34 -93.999c-26 -66.667 -49.833 -133.5 -71.5 -200.5s-44.834 -134.5 -69.501 -202.5l-15.5 -48.5l-15.5 -48.5l-31.5 -98l-31.5 -96c-3.33301 -11.333 -8 -23.833 -14 -37.5s-11.667 -27.834 -17 -42.501
c-4 -15.333 -7 -30.166 -9 -44.499s-0.333008 -26.166 5 -35.499c2.66699 -8 11.167 -13.5 25.5 -16.5s31.166 -4.5 50.499 -4.5c21.333 0 43 1.16699 65 3.5s38.333 4.16602 49 5.49902c12.667 2.66699 26.834 5 42.501 7s30.834 3 45.501 3c28.667 0 50 -7 64 -21
c14.667 -13.333 17.334 -35 8.00098 -65c-5.33301 -16.667 -13.833 -32.834 -25.5 -48.501s-25.167 -28.167 -40.5 -37.5c-30 -19.333 -64 -34.5 -102 -45.5s-76.5 -19.5 -115.5 -25.5s-77.333 -10 -115 -12s-70.834 -3.66699 -99.501 -5
c-10.667 0 -22.5 -0.333008 -35.5 -1s-25.667 0 -38 2s-23.333 5 -33 9s-15.834 10 -18.501 18c-4 8.66699 -5 20.834 -3 36.501s5.16699 32 9.5 49s9.16602 33.667 14.499 50s9.33301 30.166 12 41.499c11.333 39.333 21.666 78.166 30.999 116.499
s21.666 77.166 36.999 116.499l36.5 95c12.333 32 23.833 64.667 34.5 98c11.333 28.667 19 57 23 85s11.333 56.333 22 85c15.333 35.333 29.5 70.333 42.5 105s24.833 70 35.5 106z" />
    <glyph glyph-name="backslash" unicode="\" horiz-adv-x="1081" 
d="M459 895c-10 34 -21.3311 69.4971 -33.998 106.497s-23.5 75 -32.5 114s-14.833 78.5 -17.5 118.5s2 80.667 14 122c4 14.667 9.83301 30.667 17.5 48s17 33.166 28 47.499s24 25.833 39 34.5s31.167 12.334 48.5 11.001c15.333 -1.33301 27.666 -7.16602 36.999 -17.499
s17.166 -22.666 23.499 -36.999s10.833 -29.666 13.5 -45.999s5.33398 -30.5 8.00098 -42.5c11.333 -80.667 29.166 -160 53.499 -238l69.5 -233c24.667 -88.667 47.167 -178.834 67.5 -270.501l59.5 -274.5c6.66699 -32.667 14.5 -64 23.5 -94s16.833 -61.333 23.5 -94
c6.66699 -26 11.167 -56.167 13.5 -90.5s-5.5 -66.5 -23.5 -96.5c-15.333 -24.667 -35.5 -40.667 -60.5 -48s-47.167 -7.66602 -66.5 -0.999023c-19.333 8 -33 22 -41 42l-23 58c-48.667 143.333 -91.167 288.833 -127.5 436.5z" />
    <glyph glyph-name="bracketright" unicode="]" horiz-adv-x="793" 
d="M782 647l-42.5029 -141.505c-13.667 -46.333 -28.167 -92.5 -43.5 -138.5c-21.333 -66 -45 -132 -71 -198s-50 -132.667 -72 -200l-25 -80l-22 -76c-8 -28 -23.667 -51.667 -47 -71c-22 -18 -48.333 -29.667 -79 -35s-57.667 -9.33301 -81 -12
c-28.667 -4 -57 -4.66699 -85 -2s-56.333 4 -85 4c-19.333 0 -39.166 -0.333008 -59.499 -1s-40.166 -1 -59.499 -1h-28.5c-9.66699 0 -18.5 0.666992 -26.5 2c-30 2.66699 -51.167 11.834 -63.5 27.501s-10.166 40.5 6.50098 74.5c27.333 57.333 70.333 93.666 129 108.999
c31.333 8 61.333 13 90 15s58 3.66699 88 5c13.333 0 26.5 -0.333008 39.5 -1s25.333 0 37 2s22.334 6.83301 32.001 14.5s17.834 19.834 24.501 36.501c18 40.667 33.833 81.834 47.5 123.501l40.5 125.5l20.5 63l20.5 62l31.5 93.5c10.333 31 21.5 62.167 33.5 93.5
c26 66.667 50.333 133.834 73 201.501l69 201.5l31 98l31.5 99l31.5 96c2.66699 10.667 7.16699 22.834 13.5 36.501s12.166 28.167 17.499 43.5c5.33301 14.667 9 29.167 11 43.5s-0.333008 26.5 -7 36.5c-2.66699 6.66699 -10.5 11.667 -23.5 15s-28.5 5 -46.5 5
c-23.333 0 -46.5 -1.33301 -69.5 -4l-51.5 -6c-12 -1.33301 -25.833 -3 -41.5 -5s-31.167 -3 -46.5 -3c-12 0 -23.833 1.33301 -35.5 4s-20.834 7.33398 -27.501 14.001c-8 8.66699 -12.5 18.667 -13.5 30s0.833008 23.333 5.5 36c5.33301 16 14.166 31.833 26.499 47.5
s25.833 28.5 40.5 38.5c30 18.667 63.833 33.5 101.5 44.5s76 19.667 115 26s77.167 10.833 114.5 13.5s70.333 4.66699 99 6c10 0 21.833 0.333008 35.5 1s26.834 0 39.501 -2s24.167 -5.16699 34.5 -9.5s16.833 -10.5 19.5 -18.5s3 -19.833 1 -35.5s-5 -32.334 -9 -50.001
s-8.33301 -34.834 -13 -51.501l-11 -39l-32.5 -116.5c-10.333 -38.333 -22.833 -77.166 -37.5 -116.499l-38 -98l-36 -95c-9.33301 -30 -16.5 -58.667 -21.5 -86s-12.833 -56 -23.5 -86l-39.5 -104.5c-13 -34.333 -25.167 -69.166 -36.5 -104.499z" />
    <glyph glyph-name="asciicircum" unicode="^" horiz-adv-x="965" 
d="M418 1096c31.333 31.333 63.668 60.665 97.001 87.998l101 84l63 56c24 21.333 49 40.833 75 58.5s51.5 30.667 76.5 39s49.167 7.5 72.5 -2.5c19.333 -8 31.333 -22.667 36 -44s9.66699 -40 15 -56c8.66699 -20.667 16.334 -41.167 23.001 -61.5s14 -40.833 22 -61.5
c15.333 -38 29.833 -76.167 43.5 -114.5s24.5 -77.833 32.5 -118.5c2.66699 -16.667 6.16699 -33.5 10.5 -50.5s0.166016 -35.167 -12.501 -54.5c-14.667 -23.333 -34.334 -35.666 -59.001 -36.999s-45.334 1.33398 -62.001 8.00098c-22.667 10 -39.834 21.167 -51.501 33.5
s-23.167 27.833 -34.5 46.5c-8 18 -17.167 34.833 -27.5 50.5s-19.5 32.5 -27.5 50.5c-9.33301 21.333 -16.833 43.333 -22.5 66s-14.5 43.667 -26.5 63c-12.667 -6 -29.167 -15.667 -49.5 -29s-36.5 -24.333 -48.5 -33c-15.333 -9.33301 -29.5 -18.833 -42.5 -28.5
s-26.833 -19.167 -41.5 -28.5l-77 -55.5c-24 -17.667 -47.667 -38.167 -71 -61.5l-60 -59c-24 -23.333 -47.667 -37 -71 -41c-18 -4 -33 -2.33301 -45 5s-19.667 18 -23 32c-4 17.333 0.833008 38 14.5 62s30.834 47.667 51.501 71s41.834 45.833 63.501 67.5z" />
    <glyph glyph-name="underscore" unicode="_" horiz-adv-x="1540" 
d="M868 223c26 1.33301 52.6699 2.99902 80.0029 4.99902s54.666 4.66699 81.999 8l116.5 8l119.5 8l62 4c20 1.33301 38.667 -0.666992 56 -6c15.333 -4 28.5 -10.833 39.5 -20.5s22.5 -18.5 34.5 -26.5c18 -14 23.667 -32.667 17 -56c-7.33301 -20 -22.833 -40 -46.5 -60
s-47.834 -32.667 -72.501 -38c-35.333 -8 -71.166 -13.333 -107.499 -16l-107.5 -8l-168 -14c-56 -4.66699 -112.667 -9 -170 -13l-179 -16.5c-59.333 -5.66699 -117.666 -9.83398 -174.999 -12.501c-46.667 -2.66699 -91.834 -4.66699 -135.501 -6
s-88.834 -4.66602 -135.501 -9.99902c-34 -2.66699 -62 -2 -84 2s-40.333 17.667 -55 41c-10.667 14.667 -15.667 30 -15 46s11.667 32 33 48c44 35.333 92 57.833 144 67.5s101 17.834 147 24.501c31.333 5.33301 62.333 9.5 93 12.5s62 5.83301 94 8.5
c30 2.66699 58.167 5 84.5 7s54.833 4.33301 85.5 7c26.667 2.66699 53.667 4 81 4s54.666 0.666992 81.999 2z" />
    <glyph glyph-name="a" unicode="a" horiz-adv-x="1540" 
d="M1143 1427l4 -1227c-29.333 -129.333 -82 -195 -158 -197s-114 4.33301 -114 19l-22 316h-5c-58 -2.66699 -203.667 -5.33398 -437 -8.00098l-152 -235c-44 -62 -94.167 -93 -150.5 -93s-84.5 3 -84.5 9c96.667 152.667 158.667 256.334 186 311.001
c-118 -6 -177 -6 -177 0v9c0 90.667 53 162.334 159 215.001l153 20c166 246 388.333 531 667 855c43.333 15.333 87 17.333 131 6zM566 582.999h5.00098l286 6v4c0 25.333 -1.33301 156.333 -4 393c-10.667 -10.667 -106.334 -145 -287.001 -403z" />
    <glyph glyph-name="b" unicode="b" horiz-adv-x="1244" 
d="M762 1431c96 6 203.334 -32.666 322.001 -115.999c80.667 -85.333 121 -175.666 121 -270.999c0 -148.667 -101.667 -269.334 -305 -362.001c-8 0 -12 -2.66699 -12 -8c157.333 -63.333 236 -141 236 -233c0 -138 -97 -260.667 -291 -368c-92 -44 -170 -68.333 -234 -73
h-564c-54.667 42.667 -12.334 337 126.999 883c110.667 304.667 219 471 325 499c97.333 43.333 189 59.666 275 48.999zM364.001 651.001c50.667 0 173.333 30.332 368 90.999c118 50.667 189 111.334 213 182.001c6 19.333 9 32.333 9 39v22
c0 78 -95.667 131.333 -287 160h-43c-106.667 -7.33301 -160 -23 -160 -47c0 -4.66699 -33.333 -153.667 -100 -447zM294 368l-24.001 -74c55.333 -50.667 157.333 -71.667 306 -63h33c159.333 9.33301 252 40 278 92c2.66699 55.333 -104.666 84 -321.999 86h-28
c-105.333 2.66699 -186.333 -11 -243 -41z" />
    <glyph glyph-name="c" unicode="c" horiz-adv-x="1292" 
d="M1060 1434c110.667 0 165.999 -45.001 165.999 -135.001c0 -72.667 -55.333 -119.667 -166 -141h-6c-51.333 0 -102.333 2 -153 6c-278 0 -462 -100 -552 -300c-32.667 -57.333 -49 -126.666 -49 -207.999c0 -145.333 30.667 -241.333 92 -288
c42 -28.667 117.667 -43 227 -43c148 0 301.333 63.333 460 190h6c40.667 0 61 -16.333 61 -49c0 -80 -118.333 -200.667 -355 -362c-114 -69.333 -224.333 -104 -331 -104c-253.333 0 -406.666 128.667 -459.999 386v86c0 268.667 167.667 525 503 769
c204 128.667 389.667 193 557 193z" />
    <glyph glyph-name="d" unicode="d" horiz-adv-x="1372" 
d="M514 1431l33 -0.000976562c256 0 461.333 -81 616 -243c68.667 -65.333 103 -130.666 103 -195.999v-27c-13.333 -146 -79 -312.333 -197 -499c-113.333 -156 -236.333 -266 -369 -330c-172.667 -90.667 -308 -136 -406 -136c-59.333 -0 -130.333 1.33301 -213 4
c-11.333 137.333 -18 259 -20 365c0 441.333 101 792 303 1052c58 6.66699 108 10 150 10zM307 462.999c4 -160 12.001 -240.001 24.001 -240.001c43.333 -8.66699 81 -13 113 -13h16c158 0 310 108.667 456 326c48.667 102.667 73 180.334 73 233.001
c0 90 -75.333 193 -226 309c-82.667 58 -172.334 87 -269.001 87c-31.333 0 -47 -9 -47 -27c-93.333 -214.667 -140 -439.667 -140 -675z" />
    <glyph glyph-name="e" unicode="e" horiz-adv-x="1354" 
d="M1133 1434c110 -1.33301 164.999 -20.332 164.999 -56.999c0 -88 -57.667 -153.667 -173 -197h-12l-553 -18c-98.667 -138.667 -148 -282 -148 -430c160 -24.667 294.333 -30.334 403 -17.001c114.667 18 197.667 27 249 27c32 0 54.667 -12.333 68 -37v-18
c0 -74 -65.667 -139.667 -197 -197c-49.333 -8 -88.333 -12 -117 -12l-387 8c-66 -7.33301 -99 -34 -99 -80c0 -74 47.333 -111 142 -111c120 0 312.667 30.667 578 92h18c32.667 0 49 -16.333 49 -49v-12c-19.333 -158 -209.666 -264.667 -570.999 -320
c-39.333 -4 -78.333 -6 -117 -6h-13c-119.333 -0 -234 16.333 -344 49v6c-4 100.667 -6 156 -6 166c0 444.667 158.333 849 475 1213h590z" />
    <glyph glyph-name="f" unicode="f" horiz-adv-x="1412" 
d="M1111 1436c149.333 0 223.999 -37.332 223.999 -111.999c5.33301 -42.667 -39.667 -93.334 -135 -152.001c-35.333 -8.66699 -58.333 -13 -69 -13c-244 8.66699 -380.667 13 -410 13c-106.667 0 -181.334 -16.667 -224.001 -50c-87.333 -154 -132 -290 -134 -408
c9.33301 -16 51 -24 125 -24c248 1.33301 421.667 4 521 8c66.667 0 100 -24.667 100 -74c0 -48 -56 -107.333 -168 -178c-29.333 -8 -52.333 -12 -69 -12c-35.333 0 -189.666 -4.66699 -462.999 -14c-62 -3.33301 -93 -22 -93 -56c-40.667 -168 -108 -289.333 -202 -364
h-83l-8 68c0 394 78.667 759 236 1095c78.667 174 242.334 261 491.001 261c134.667 8 255 12 361 12z" />
    <glyph glyph-name="g" unicode="g" horiz-adv-x="1441" 
d="M1232 1441c46 -13.333 69 -26.665 69 -39.998c0 -53.333 -52 -120 -156 -200h-118c-218.667 0 -413.667 -77.667 -585 -233c-83.333 -104.667 -125 -205.334 -125 -302.001v-50c0 -146 77 -245.667 231 -299l137 -12c148 0 251.667 64.333 311 193
c4 7.33301 6 17.666 6 30.999v13c-4 12 -16.333 18 -37 18c-76.667 0 -149.334 -45.667 -218.001 -137l-19 -12h-25c-50.667 0 -88 47.667 -112 143c0 94.667 139 184 417 268c100.667 20.667 171.334 31 212.001 31c78.667 0 118 -50 118 -150
c0 -144.667 -100.333 -303.667 -301 -477c-184 -150.667 -349 -226 -495 -226h-69c-138 -0 -262.333 64.333 -373 193c-66.667 86 -100 191.667 -100 317c0 274 151 518 453 732c235.333 128.667 495 195 779 199z" />
    <glyph glyph-name="h" unicode="h" horiz-adv-x="1627" 
d="M1464 1434c24 0 41.998 -12.002 53.998 -36.002v-36c-103.333 -251.333 -178.333 -461.666 -225 -630.999c-6 -9.33301 -11.333 -43.666 -16 -102.999l194 -17l-136 -226c-82.667 -19.333 -159.667 -116.333 -231 -291c-38 -65.333 -80 -98 -126 -98
c-65.333 4.66699 -95.666 33 -90.999 85c60 148.667 90 236 90 262c0 16.667 -15 31.667 -45 45c-142.667 -12 -308 -18 -496 -18c-45.333 0 -92.666 -94.667 -141.999 -284c-24 -57.333 -74.333 -84 -151 -80c-42 0 -63 27 -63 81c0 94.667 62.667 330.667 188 708
s250.333 587.333 375 630c30 -9.33301 45 -27.333 45 -54c-138 -370 -207 -562.333 -207 -577c-12 -24 -18 -57.333 -18 -100v-36c2.66699 -12 17.667 -24 45 -36l298 18c66 -6 141.333 -6.66699 226 -2c141.333 528.667 285.333 794 432 796z" />
    <glyph glyph-name="i" unicode="i" horiz-adv-x="686" 
d="M594 1431c25.333 -9.33301 38 -18.668 38 -28.001v-10c-107.333 -221.333 -185.666 -449.666 -234.999 -684.999s-108.333 -432.666 -177 -591.999c-47.333 -74 -108 -112.667 -182 -116l-9 19v75c21.333 461.333 133.666 850.666 336.999 1168
c80 112.667 156 169 228 169z" />
    <glyph glyph-name="j" unicode="j" horiz-adv-x="1092" 
d="M983 1438c33.333 -3.33301 50.001 -17.998 50.001 -43.998c-17.333 -352 -42.333 -573.333 -75 -664c-64.667 -230.667 -192.334 -437.334 -383.001 -620.001c-89.333 -73.333 -166 -110 -230 -110h-37c-122 0 -205.333 68.667 -250 206
c-12.667 55.333 -19 101.333 -19 138c0 158 66.667 264 200 318h31c12.667 0 19 -8.33301 19 -25l6 -149c18.667 -133.333 66.667 -200 144 -200c114 0 207.667 162.333 281 487c8.66699 53.333 13 105.666 13 156.999v31c0 74.667 -4.33301 153.667 -13 237
c0 108.667 73 188 219 238h44z" />
    <glyph glyph-name="k" unicode="k" horiz-adv-x="1382" 
d="M426 1438c41.333 0 65.001 -32.666 71.001 -97.999c-23.333 -119.333 -73.666 -305.666 -150.999 -558.999v-71c1.33301 -12 7.33301 -18 18 -18c80 0 319.667 222 719 666c69.333 53.333 116.666 80 141.999 80c23.333 0 44 -32.667 62 -98
c0 -72 -176 -250.667 -528 -536c-17.333 -37.333 -26 -64 -26 -80c119.333 -226.667 179.666 -382.334 180.999 -467.001c-22.667 -178 -113.667 -261.333 -273 -250c-94.667 381.333 -160.334 568.666 -197.001 561.999l-83 -42c-45.333 -12.667 -95 -168 -149 -466
c-47.333 -47.333 -94.666 -71 -141.999 -71h-18c-47.333 0 -71 23.667 -71 71v9c0 125.333 85.333 530.333 256 1215c70 102 133 153 189 153z" />
    <glyph glyph-name="l" unicode="l" horiz-adv-x="1128" 
d="M573 1370c-11.333 -48.667 -71.665 -208.666 -180.998 -479.999c-68.667 -194.667 -108 -381.334 -118 -560.001c48.667 -47.333 128.667 -66.666 240 -57.999c86 0 217 19 393 57c93.333 31.333 127.666 18.666 102.999 -38.001c-70 -158 -238.333 -252 -505 -282
l-223 -3c-188 -4 -281 61 -279 195c37.333 302.667 111.666 607.667 222.999 915c95.333 208 177 314 245 318s102 -17.333 102 -64z" />
    <glyph glyph-name="m" unicode="m" horiz-adv-x="1457" 
d="M1344 1434c34.667 -10 51.9971 -36.332 51.9971 -78.999c-81.333 -349.333 -158.333 -745 -231 -1187c-48 -122.667 -116.667 -178.667 -206 -168c-40.667 17.333 -61 72.666 -61 165.999v35c0 144.667 26.333 299.334 79 464.001v8h-9
c-178 -356.667 -332.667 -552 -464 -586h-8c-76 0 -116 131.667 -120 395l6 139v9h-9c-58 -114 -107 -269.333 -147 -466c-37.333 -100 -81.333 -153.667 -132 -161c-68 -4 -100 20 -96 72c-6 122.667 75.333 438.667 244 948c122.667 250.667 243 376 361 376h18
c23.333 -8.66699 35 -29 35 -61v-9c-25.333 -253.333 -43.666 -451 -54.999 -593c4.66699 -110.667 22.334 -166 53.001 -166c44.667 23.333 152.334 165.666 323.001 426.999c176 285.333 280.667 428 314 428z" />
    <glyph glyph-name="n" unicode="n" horiz-adv-x="1476" 
d="M1298 1418h18.999c8.66699 0 17.667 -9.33301 27 -28c0 -24 -28.5 -210.667 -85.5 -560s-119.167 -577.333 -186.5 -684c-54.667 -79.333 -112.667 -119 -174 -119c-103.333 28.667 -189.333 153.667 -258 375c-86.667 276 -150 425.667 -190 449l-94 -431
c-76 -280 -176.333 -420 -301 -420c-36.667 -0 -55 24.333 -55 73c98.667 333.333 168.667 656.333 210 969c32.667 122 109 228.667 229 320c30 12 51.333 18 64 18c86.667 0 214.334 -240.667 383.001 -722c30.667 -67.333 52 -101 64 -101c29.333 60 72 246 128 558
c58 213.333 131.333 314.333 220 303z" />
    <glyph glyph-name="o" unicode="o" horiz-adv-x="1402" 
d="M833 1434c221.333 0 361.667 -100.332 421 -300.999c5.33301 -30.667 8 -56.334 8 -77.001v-34c0 -316 -175.667 -622.667 -527 -920c-95.333 -74 -200 -108 -314 -102c-154.667 -0 -277.667 77.333 -369 232c-34.667 70 -52 147.333 -52 232
c24 233.333 107 456.333 249 669c195.333 200.667 390 301 584 301zM226.001 541.001c0 -130 88.667 -205.334 266 -226.001h48c208 0 360 173.333 456 520v59c0 147.333 -96.333 241 -289 281c-184 22.667 -341.333 -162.666 -472 -555.999c-6 -25.333 -9 -51.333 -9 -78z
" />
    <glyph glyph-name="p" unicode="p" 
d="M800 1435c249.333 -10 404.999 -60.332 466.999 -150.999c34.667 -36.667 51.667 -84.667 51 -144c0 -233.333 -166.333 -441 -499 -623c-149.333 -59.333 -306.666 -89 -471.999 -89v-9c-56 -272 -139 -408.667 -249 -410c-10 -6 -25 -9 -45 -9h-17
c-24 9.33301 -36 30 -36 62v18c0 154.667 83 511 249 1069c76 209.333 259.667 304.666 551 285.999zM400.999 695.001h70.999c323.333 4 510.333 110.667 561 320c14.667 91.333 -93.666 144.333 -324.999 159c-100.667 -2.66699 -167 -19 -199 -49
c-12.667 -32.667 -48.667 -176 -108 -430z" />
    <glyph glyph-name="q" unicode="q" horiz-adv-x="1375" 
d="M909 1428c181.333 0 298.334 -88.0029 351.001 -264.003c12 -45.333 20 -111.666 24 -198.999c0 -193.333 -113.333 -439.666 -340 -738.999c18 -37.333 53 -88 105 -152c-32 -77.333 -92.333 -140.333 -181 -189l-83 -38l-155 182
c-104.667 -17.333 -185.667 -26 -243 -26c-180.667 0 -302 66.667 -364 200c-11.333 38.667 -19 85.334 -23 140.001c0 150 57.667 340.333 173 571c213.333 342.667 458.666 514 735.999 514zM293.001 595.997v-36c0 -119.333 76.333 -215 229 -287
c-3.33301 17.333 -4.33301 37.333 -3 60c0 80 45 148.333 135 205c6.66699 4 14.334 6 23.001 6h18c32 0 70 -37.667 114 -113l23 -41c52 22 110.667 116.333 176 283s22.333 303 -129 409c-44.667 27.333 -93.334 41 -146.001 41c-135.333 16 -258.333 -75.333 -369 -274
c-47.333 -112 -71 -196.333 -71 -253z" />
    <glyph glyph-name="r" unicode="r" horiz-adv-x="1344" 
d="M620 1434c244.667 -2.66699 430.332 -37.665 556.999 -104.998c85.333 -58.667 128 -149.334 128 -272.001c0 -164.667 -126 -339 -378 -523c143.333 -159.333 215 -244.333 215 -255c-28 -78 -93.667 -171 -197 -279h-6c-100 88 -207.333 227.333 -322 418
c-49.333 -16 -104 -28 -164 -36c-69.333 -4 -118.333 2 -147 18c-98.667 -286.667 -180 -420.334 -244 -401.001c-43.333 0 -60.666 37.667 -51.999 113c23.333 120.667 50 276 80 466c72 408 140.667 647.333 206 718c66 92 174 138 324 138zM340.998 615.002
c64.667 -7.33301 107.333 -11 128 -11c195.333 0 361.666 65.667 498.999 197c34.667 56.667 52 111 52 163c0 113.333 -91 185 -273 215c-57.333 11.333 -107.666 17 -150.999 17c-88.667 0 -133 -9.66699 -133 -29c0 -10 -40.667 -194 -122 -552z" />
    <glyph glyph-name="s" unicode="s" horiz-adv-x="1237" 
d="M835 1433l36.999 -0.00292969c178.667 0 268 -51 268 -153c-0.666992 -98 -62 -144.667 -184 -140c-126 29.333 -228 40.833 -306 34.5s-122 -39.166 -132 -98.499c-4 -49.333 65 -125.666 207 -228.999c168.667 -104 253 -223.333 253 -358
c-16 -248 -136 -406 -360 -474c-86 -10 -137.667 -15 -155 -15c-160.667 -6 -293 40.667 -397 140c-36 36 -58 74.667 -66 116c0 91.333 49 157 147 197c102 40.667 221.333 -7.33301 358 -144c30 -16.667 56.333 -25 79 -25c72 24 96.333 66.667 73 128
c-43.333 72.667 -120.666 144.334 -231.999 215.001c-165.333 120.667 -248 238.667 -248 354c0 138.667 103.667 267 311 385c121.333 44.667 237 67 347 67z" />
    <glyph glyph-name="t" unicode="t" horiz-adv-x="1056" 
d="M612 1430c190 15.333 303.668 -18.332 341.001 -100.999c19.333 -62 -22.334 -112 -125.001 -150c-59.333 -28 -127.333 -42 -204 -42h-28c-40 -152.667 -106.667 -444.334 -200 -875.001c-48 -177.333 -115 -264.666 -201 -261.999h-37c-30 0 -47 24.667 -51 74
c0 38 52.667 239.333 158 604c54 245.333 83.333 397.333 88 456h-5c-53.333 -3.33301 -108.333 -7 -165 -11c-102.667 -2 -155.334 20.667 -158.001 68c2.66699 57.333 53.334 106.666 152.001 147.999c114 54.667 259 85 435 91z" />
    <glyph glyph-name="u" unicode="u" horiz-adv-x="1260" 
d="M1025 1431c56.667 4.66699 93.335 -33.999 110.002 -115.999c3.33301 -19.333 5 -38.333 5 -57v-57c0 -259.333 -110 -551 -330 -875c-102.667 -128.667 -197.334 -215.334 -284.001 -260.001c-77.333 -48.667 -152 -73 -224 -73h-26
c-102.667 0 -181.667 56.333 -237 169c-26 116.667 -39 219 -39 307c0 228.667 58 510.667 174 846c34 78.667 86.333 118 157 118c43.333 -2.66699 60.333 -31.667 51 -87c-97.333 -321.333 -146 -589.666 -146 -804.999c22 -140 83.333 -221 184 -243
c104.667 -6.66699 186.667 59 246 197c56 142 107.333 349.667 154 623c55.333 213.333 123.666 317.666 204.999 312.999z" />
    <glyph glyph-name="v" unicode="v" horiz-adv-x="1363" 
d="M315 1434c54 -345.333 122 -668.666 204 -969.999h6l563 939h6c104.667 -53.333 166.334 -90.333 185.001 -111c-216.667 -388.667 -488.334 -819.334 -815.001 -1292h-167c-22 22 -67.333 133.333 -136 334c-107.333 370 -161 681 -161 933c200 111.333 305 167 315 167
z" />
    <glyph glyph-name="w" unicode="w" horiz-adv-x="1709" 
d="M1398 1438c101.333 -36.667 158.667 -61.6699 172 -75.0029c-130.667 -200.667 -254 -416.667 -370 -648c-106.667 -211.333 -206.667 -443.666 -300 -696.999c-3.33301 -12 -9.33301 -18 -18 -18c-90 -3.33301 -135 -1.66602 -135 5.00098
c-60 322.667 -90 582.667 -90 780v5h-4c-164.667 -279.333 -298.667 -541.333 -402 -786l-8 -5h-164c-8.66699 0 -27.667 138.667 -57 416c-14.667 214.667 -22 379.334 -22 494.001c0 30.667 3 136.334 9 317.001l251 199h9v-150c0 -236 13.333 -477.333 40 -724h4
c109.333 276.667 236 515 380 715c78.667 108.667 155 163 229 163l4 -9v-145c0 -239.333 13.333 -454.333 40 -645h4c97.333 273.333 240 542.666 428 807.999z" />
    <glyph glyph-name="x" unicode="x" horiz-adv-x="1638" 
d="M1194 382c41.333 -61.333 67.0029 -115.333 77.0029 -162v-7c0 -62.667 -64.667 -130.334 -194 -203.001c-7.33301 -4 -15.666 -6 -24.999 -6c-58 0 -128 84.667 -210 254c-102.667 169.333 -158 258 -166 266c-270.667 -202.667 -473.334 -376.334 -608.001 -521.001
h-25c-20 9.33301 -30 29.666 -30 60.999v24c55.333 131.333 164.5 257.833 327.5 379.5s244.5 207.5 244.5 257.5c0 22.667 -51.667 103.334 -155 242.001l-14 18c-64 85.333 -103 158 -117 218v7c0 62.667 64.667 130.334 194 203.001c7.33301 4 15.666 6 24.999 6
c58 0 135 -80.667 231 -242c39.333 -66 82 -145.667 128 -239c53.333 14 191.333 146 414 396c82.667 64.667 153.667 97 213 97c37.333 0 59.666 -28.333 66.999 -85c0 -51.333 -22.333 -88 -67 -110c-208 -188 -390.667 -344.333 -548 -469
c103.333 -121.333 182.666 -249.666 237.999 -384.999z" />
    <glyph glyph-name="y" unicode="y" horiz-adv-x="1312" 
d="M302 1431c35.333 0 54.998 -13.666 58.998 -40.999c-8 -46 -31.333 -94.333 -70 -145c-27.333 -46.667 -41 -89.334 -41 -128.001v-47c26.667 -135.333 82.334 -203 167.001 -203h87c168 0 272.667 17.333 314 52c104.667 61.333 169.334 162.666 194.001 303.999
c20 140 74.333 209.333 163 208c50.667 0 76 -29 76 -87c0 -124 -58.333 -277.333 -175 -460c-99.333 -131.333 -251 -216.666 -455 -255.999c-2.66699 -105.333 -45 -258.333 -127 -459c-64 -112.667 -126 -169 -186 -169c-30.667 7.33301 -46 15 -46 23
c0 81.333 33 281 99 599h-6c-42.667 0.666992 -89.667 5.66699 -141 15c-93.333 22 -157 83.667 -191 185c-14.667 51.333 -19.334 108 -14.001 170c10.667 118 75.667 247 195 387c36.667 34.667 69.334 52 98.001 52z" />
    <glyph glyph-name="z" unicode="z" horiz-adv-x="1628" 
d="M1452 1434c61.333 -6 91.999 -33.334 91.999 -82.001c0 -59.333 -39.667 -114.333 -119 -165l-977 -886h9c471.333 -1.33301 728 -2 770 -2c6 -12 9 -21 9 -27c-66 -181.333 -185.667 -272 -359 -272c-484 3.33301 -778.667 5 -884 5c0 6.66699 -3 10 -9 10
c109.333 220 327.666 455.667 654.999 707c284 249.333 426 393.333 426 432c-27.333 18.667 -54.666 28 -81.999 28c-28 0 -164.667 6 -410 18c-67.333 6 -101 24.333 -101 55c54.667 102.667 145.334 163.334 272.001 182.001c257.333 4 493.333 3 708 -3z" />
    <glyph glyph-name="braceleft" unicode="{" horiz-adv-x="1112" 
d="M653 592c-26 -1.33301 -56.6611 -2.99707 -91.9941 -4.99707s-71.5 -3.66699 -108.5 -5s-72.833 -2.33301 -107.5 -3s-65 -0.333984 -91 0.999023c-20.667 1.33301 -36.834 5.66602 -48.501 12.999s-20.834 19.333 -27.501 36c-5.33301 12 -9 27.667 -11 47
s5 35.666 21 48.999c15.333 10.667 34.666 21.834 57.999 33.501s43 20.834 59 27.501c22 7.33301 41.5 11 58.5 11s35.167 -1.33301 54.5 -4c10.667 -3.33301 25.167 -5 43.5 -5h60.5c31.333 0 63.166 0.5 95.499 1.5s57.833 2.83301 76.5 5.5
c11.333 1.33301 23.5 2.33301 36.5 3s24.833 1 35.5 1c28.667 0 52 -5.66699 70 -17c8 -5.33301 16.833 -10 26.5 -14s18.5 -8.33301 26.5 -13s14 -10.834 18 -18.501s5.33301 -17.5 4 -29.5c-2.66699 -16.667 -11.5 -32.5 -26.5 -47.5s-29.833 -27.833 -44.5 -38.5
c-16.667 -10 -32.834 -15.333 -48.501 -16s-31.834 -2.33398 -48.501 -5.00098c-14.667 -2.66699 -29.5 -4.66699 -44.5 -6s-30.167 -2 -45.5 -2zM672.006 1135c-14 12 -20.332 27.167 -18.999 45.5s9.66602 38.5 24.999 60.5c16 23.333 35.333 40.166 58 50.499
s45.667 14.833 69 13.5c54.667 0 105.667 -7.66699 153 -23c32 -10.667 63.333 -22.167 94 -34.5s60.334 -26.166 89.001 -41.499l32.5 -19c12.333 -7.33301 23.666 -15.833 33.999 -25.5s18.5 -20.334 24.5 -32.001s8.33301 -24.167 7 -37.5
c0 -11.333 -3.33301 -22.166 -10 -32.499s-13.667 -19.5 -21 -27.5c-14.667 -17.333 -29.5 -29.166 -44.5 -35.499s-30.167 -9.5 -45.5 -9.5c-26 0 -51.167 5.5 -75.5 16.5s-47.5 17.833 -69.5 20.5c-57.333 9.33301 -112 21.166 -164 35.499s-97.667 39.5 -137 75.5z
M1014.01 453.003c10.667 -8.66699 14.3311 -18.3301 10.998 -28.9971s-8.33301 -23 -15 -37c-11.333 -24.667 -27.166 -46.5 -47.499 -65.5s-43.166 -36.333 -68.499 -52s-51.333 -30.667 -78 -45s-51 -28.5 -73 -42.5c-28.667 -18.667 -55.167 -33.834 -79.5 -45.501
s-54.5 -25.167 -90.5 -40.5c-16 -6.66699 -34 -13.334 -54 -20.001s-38 -11.667 -54 -15c-14 -2.66699 -28.167 -6.33398 -42.5 -11.001s-28.166 -7 -41.499 -7c-22 -1.33301 -37 7.16699 -45 25.5s-8.66699 37.833 -2 58.5c6.66699 19.333 18.834 37.5 36.501 54.5
l49.5 47.5c27.333 24.667 54.666 42.5 81.999 53.5s56.666 24.167 87.999 39.5l128.5 56l127.5 56c20.667 10 40.5 18.333 59.5 25s37.5 10 55.5 10c20 0 37.667 -5.33301 53 -16z" />
    <glyph glyph-name="braceright" unicode="}" horiz-adv-x="1155" 
d="M1174 623c-15.333 -11.333 -34.6621 -22.834 -57.9951 -34.501s-43 -20.834 -59 -27.501c-22 -6.66699 -41.5 -10 -58.5 -10s-35.167 1.33301 -54.5 4c-10.667 2.66699 -25.334 4 -44.001 4h-60c-31.333 0 -63.5 -0.333008 -96.5 -1s-58.167 -2.33398 -75.5 -5.00098
c-12.667 -1.33301 -25.167 -2.33301 -37.5 -3s-23.833 -1 -34.5 -1c-30 0 -54 5.33301 -72 16c-6.66699 5.33301 -14.834 9.83301 -24.501 13.5s-18.5 8.16699 -26.5 13.5s-14.5 11.833 -19.5 19.5s-5.83301 17.5 -2.5 29.5c2.66699 16.667 11.5 32.5 26.5 47.5
s29.833 27.167 44.5 36.5c15.333 10.667 31.166 16.334 47.499 17.001s32.5 2.66699 48.5 6c15.333 2.66699 30.166 4.33398 44.499 5.00098s29.166 1.66699 44.499 3l92.5 5c36.333 2 73 3.66699 110 5s72.833 2.33301 107.5 3s65 0.333984 91 -0.999023
c20.667 -1.33301 36.834 -5.83301 48.501 -13.5s20.834 -20.167 27.501 -37.5c5.33301 -11.333 8.66602 -26.833 9.99902 -46.5s-5.33398 -35.5 -20.001 -47.5zM688.004 212.999c15.333 -12 22.0029 -27.667 20.0029 -47s-10.667 -39.333 -26 -60
c-16.667 -22.667 -35.834 -39.167 -57.501 -49.5s-44.834 -14.833 -69.501 -13.5c-53.333 0 -104.666 7.66699 -153.999 23c-31.333 10.667 -62 22.167 -92 34.5s-60 25.833 -90 40.5c-20.667 10 -42.5 24.833 -65.5 44.5s-33.167 43.167 -30.5 70.5
c0 10.667 3.33301 21.167 10 31.5s13.667 19.5 21 27.5c14.667 18 29.5 30 44.5 36s30.167 9 45.5 9c26 0 51.167 -5.33301 75.5 -16s47.5 -17.334 69.5 -20.001c57.333 -10 111.666 -22.167 162.999 -36.5s96.666 -39.166 135.999 -74.499zM348.007 894.999
c-10.667 8 -14.6699 17.4971 -12.0029 28.4971s7.33398 22.5 14.001 34.5c11.333 24.667 27.5 47 48.5 67s44.167 37.833 69.5 53.5s51.333 30.334 78 44.001s50.667 27.834 72 42.501c29.333 19.333 55.833 34.833 79.5 46.5s53.834 24.834 90.501 39.501
c16.667 7.33301 34.834 14.333 54.501 21s37.834 11.334 54.501 14.001c14 2.66699 28.167 6.5 42.5 11.5s28.166 7.5 41.499 7.5c20.667 1.33301 35.334 -7.33398 44.001 -26.001s9.66699 -38 3 -58c-6.66699 -19.333 -18.834 -37.5 -36.501 -54.5l-51.5 -48.5
c-27.333 -24.667 -54.666 -42.667 -81.999 -54l-88 -38l-126.5 -56.5c-42.333 -18.333 -84.833 -37.833 -127.5 -58.5c-20.667 -9.33301 -40.5 -17.333 -59.5 -24s-37.5 -10 -55.5 -10c-18.667 0 -36.334 6 -53.001 18z" />
    <glyph glyph-name="asciitilde" unicode="~" horiz-adv-x="1231" 
d="M487 905c32 15.333 66.3311 26.9941 102.998 34.9941s68.667 6.66699 96 -4c23.333 -9.33301 41.166 -24.333 53.499 -45l36 -62.5c11.667 -21 25.334 -40.5 41.001 -58.5s37.834 -29 66.501 -33c23.333 -4 51.666 -0.166992 84.999 11.5s61.666 27.167 84.999 46.5
c9.33301 8 19.5 17.833 30.5 29.5s19.167 22.834 24.5 33.501c6.66699 15.333 9 28 7 38s0.333008 22 7 36c7.33301 13.333 16.666 23.833 27.999 31.5s23.5 12.834 36.5 15.501s26 3.66699 39 3s24.5 -1.66699 34.5 -3c20 -5.33301 35.833 -18 47.5 -38
s16.834 -41.333 15.501 -64c-2.66699 -27.333 -11.834 -55.666 -27.501 -84.999s-35.5 -58 -59.5 -86s-50 -53.667 -78 -77s-55 -42.666 -81 -57.999c-40.667 -22.667 -84.667 -40.5 -132 -53.5s-92.666 -19.5 -135.999 -19.5c-23.333 0 -45.833 1.66699 -67.5 5
s-42.167 9 -61.5 17c-45.333 18 -79.333 49.333 -102 94c-11.333 19.333 -25.166 33.833 -41.499 43.5s-38.833 11.834 -67.5 6.50098c-27.333 -6 -51.166 -20.833 -71.499 -44.5s-36.166 -47.167 -47.499 -70.5c-6.66699 -15.333 -12.667 -27 -18 -35
s-16.333 -15.333 -33 -22c-35.333 -14 -64.666 -16.333 -87.999 -7c-27.333 10 -43.333 26.5 -48 49.5s-3 48.167 5 75.5c10.667 31.333 24.334 58 41.001 80c35.333 46.667 77.666 88.334 126.999 125.001s99.666 66.667 150.999 90z" />
    <glyph glyph-name="uni0401" unicode="&#x401;" horiz-adv-x="1354" 
d="M1133 1434c110 -1.33301 164.999 -20.332 164.999 -56.999c0 -88 -57.667 -153.667 -173 -197h-12l-553 -18c-98.667 -138.667 -148 -282 -148 -430c160 -24.667 294.333 -30.334 403 -17.001c114.667 18 197.667 27 249 27c32 0 54.667 -12.333 68 -37v-18
c0 -74 -65.667 -139.667 -197 -197c-49.333 -8 -88.333 -12 -117 -12l-387 8c-66 -7.33301 -99 -34 -99 -80c0 -74 47.333 -111 142 -111c120 0 312.667 30.667 578 92h18c32.667 0 49 -16.333 49 -49v-12c-19.333 -158 -209.666 -264.667 -570.999 -320
c-39.333 -4 -78.333 -6 -117 -6h-13c-119.333 -0 -234 16.333 -344 49v6c-4 100.667 -6 156 -6 166c0 444.667 158.333 849 475 1213h590zM857.999 1696l21 0.000976562c6.66699 0 13.667 -7 21 -21v-28c0 -59.333 -48.667 -103.333 -146 -132h-21
c-78.667 18.667 -118 39.667 -118 63v27c0 37.333 81 67.666 243 90.999zM1192 1698c27.333 -20.667 39 -38 35 -52l-4 -13c-14 -48 -104.667 -77.667 -272 -89l-7 2l12 38c86 96.667 164.667 134.667 236 114z" />
    <glyph glyph-name="uni0410" unicode="&#x410;" horiz-adv-x="1540" 
d="M1143 1427l4 -1227c-29.333 -129.333 -82 -195 -158 -197s-114 4.33301 -114 19l-22 316h-5c-58 -2.66699 -203.667 -5.33398 -437 -8.00098l-152 -235c-44 -62 -94.167 -93 -150.5 -93s-84.5 3 -84.5 9c96.667 152.667 158.667 256.334 186 311.001
c-118 -6 -177 -6 -177 0v9c0 90.667 53 162.334 159 215.001l153 20c166 246 388.333 531 667 855c43.333 15.333 87 17.333 131 6zM566 582.999h5.00098l286 6v4c0 25.333 -1.33301 156.333 -4 393c-10.667 -10.667 -106.334 -145 -287.001 -403z" />
    <glyph glyph-name="uni0411" unicode="&#x411;" 
d="M300 312c14 -30 70.667 -46.333 170 -49c240 14.667 380.333 67.667 421 159c76.667 210 -45.333 317 -366 321h-72c-94.667 -254 -145.667 -397.667 -153 -431zM624 1180c-13.333 -47.333 -32 -100.996 -56 -160.996l-6 -9c164.667 0 304 -29.667 418 -89
c222 -182.667 262.333 -390.667 121 -624c-35.333 -58.667 -81.666 -106.334 -138.999 -143.001c-117.333 -90.667 -303.666 -141.334 -558.999 -152.001c-302.667 -18.667 -428.334 76.666 -377.001 285.999c172.667 558 306 914.333 400 1069l10 18
c19.333 32 44 52.667 74 62h18l386 -31c132.667 -14 265.667 -15.667 399 -5l6 -2c4.66699 -2.66699 7.66699 -17.334 9 -44.001c-10.667 -70 -51.667 -123.333 -123 -160c-174.667 -74.667 -368.334 -79.667 -581.001 -15z" />
    <glyph glyph-name="uni0412" unicode="&#x412;" horiz-adv-x="1244" 
d="M762 1431c96 6 203.334 -32.666 322.001 -115.999c80.667 -85.333 121 -175.666 121 -270.999c0 -148.667 -101.667 -269.334 -305 -362.001c-8 0 -12 -2.66699 -12 -8c157.333 -63.333 236 -141 236 -233c0 -138 -97 -260.667 -291 -368c-92 -44 -170 -68.333 -234 -73
h-564c-54.667 42.667 -12.334 337 126.999 883c110.667 304.667 219 471 325 499c97.333 43.333 189 59.666 275 48.999zM364.001 651.001c50.667 0 173.333 30.332 368 90.999c118 50.667 189 111.334 213 182.001c6 19.333 9 32.333 9 39v22
c0 78 -95.667 131.333 -287 160h-43c-106.667 -7.33301 -160 -23 -160 -47c0 -4.66699 -33.333 -153.667 -100 -447zM294 368l-24.001 -74c55.333 -50.667 157.333 -71.667 306 -63h33c159.333 9.33301 252 40 278 92c2.66699 55.333 -104.666 84 -321.999 86h-28
c-105.333 2.66699 -186.333 -11 -243 -41z" />
    <glyph glyph-name="uni0413" unicode="&#x413;" horiz-adv-x="1325" 
d="M28 302c49.333 276 137.667 571.667 265 887c71.333 140.667 200 218 386 232l220 18c250.667 -6 368 -89 352 -249c-6 -57.333 -47.333 -74 -124 -50c-155.333 24 -275.666 31.667 -360.999 23c-107.333 -2 -198 -30.333 -272 -85c-87.333 -186 -146.333 -360 -177 -522
c-38.667 -275.333 -65.334 -438 -80.001 -488c-26 -49.333 -71.833 -75 -137.5 -77s-89.5 101.667 -71.5 311z" />
    <glyph glyph-name="uni0414" unicode="&#x414;" horiz-adv-x="1657" 
d="M1105 238c-46 256.667 -100.667 500.667 -164 732h-6l-427 -719c210 22 409 17.667 597 -13zM345 -1c-2 -34 -11.667 -72.335 -29 -115.002l-21 -18c-82.667 -28 -144.334 -16.333 -185.001 35c-45.333 56 -65.666 133.333 -60.999 232
c2.66699 5.33301 5.66699 10.333 9 15c-1.33301 2.66699 -2.33301 5.33398 -3 8.00098l16 14l72 20c24.667 6 49.334 11.333 74.001 16c210.667 372 470.667 781.333 780 1228h167c22 -22 67.333 -133.333 136 -334c106.667 -370 158.667 -673.667 156 -911
c90.667 -13.333 132.667 -74.666 126 -183.999c-1.33301 -14.667 -3.33301 -25.667 -6 -33c-4.66699 -26.667 -13.334 -56 -26.001 -88l-21 -18c-82.667 -28 -144.334 -16.333 -185.001 35c-21.333 26 -37 56.667 -47 92c-47.333 4.66699 -94.666 8 -141.999 10
c-5.33301 -2 -8.66602 -3 -9.99902 -3c0 1.33301 -0.333008 2.66602 -1 3.99902c-104 4 -207.667 2.66699 -311 -4c-182.667 -11.333 -345.334 -11.666 -488.001 -0.999023z" />
    <glyph glyph-name="uni0415" unicode="&#x415;" horiz-adv-x="1354" 
d="M1133 1434c110 -1.33301 164.999 -20.332 164.999 -56.999c0 -88 -57.667 -153.667 -173 -197h-12l-553 -18c-98.667 -138.667 -148 -282 -148 -430c160 -24.667 294.333 -30.334 403 -17.001c114.667 18 197.667 27 249 27c32 0 54.667 -12.333 68 -37v-18
c0 -74 -65.667 -139.667 -197 -197c-49.333 -8 -88.333 -12 -117 -12l-387 8c-66 -7.33301 -99 -34 -99 -80c0 -74 47.333 -111 142 -111c120 0 312.667 30.667 578 92h18c32.667 0 49 -16.333 49 -49v-12c-19.333 -158 -209.666 -264.667 -570.999 -320
c-39.333 -4 -78.333 -6 -117 -6h-13c-119.333 -0 -234 16.333 -344 49v6c-4 100.667 -6 156 -6 166c0 444.667 158.333 849 475 1213h590z" />
    <glyph glyph-name="uni0416" unicode="&#x416;" horiz-adv-x="2093" 
d="M768 525c-0.666992 0.666992 -1.66699 1.3291 -3 1.99609l-62 42c-33.333 6.66699 -193.666 -180.666 -480.999 -561.999c-165.333 -11.333 -214.333 72 -147 250c44.667 84.667 183.667 240.334 417 467.001c8.66699 16 13.667 42.667 15 80
c-208 285.333 -293.667 464 -257 536c50.667 65.333 87.667 98 111 98c25.333 0 59.333 -26.667 102 -80c150 -381.333 265 -599 345 -653l140 580c70 102 133 153 189 153c41.333 0 65 -32.667 71 -98c-23.333 -119.333 -73.666 -305.666 -150.999 -558.999v-71
c0 -1.33301 0.333008 -2.66602 1 -3.99902c2 -9.33301 7.66699 -14 17 -14c80 0 319.667 222 719 666c69.333 53.333 116.666 80 141.999 80c23.333 0 44 -32.667 62 -98c0 -72 -176 -250.667 -528 -536c-17.333 -37.333 -26 -64 -26 -80
c119.333 -226.667 179.666 -382.334 180.999 -467.001c-22.667 -178 -113.667 -261.333 -273 -250c-94.667 381.333 -160.334 568.666 -197.001 561.999l-83 -42c-4 -1.33301 -8.33301 -3.66602 -13 -6.99902c-42 -36 -87.333 -189 -136 -459
c-47.333 -47.333 -94.666 -71 -141.999 -71h-18c-47.333 0 -71 23.667 -71 71v9c0 68.667 25.333 220.334 76 455.001z" />
    <glyph glyph-name="uni0417" unicode="&#x417;" horiz-adv-x="1244" 
d="M565 742c118 50.667 189 111.332 213 181.999c6 19.333 9 32.333 9 39v22c0 78 -62.333 140 -187 186c-108 24.667 -210.667 -4 -308 -86l-123 8c62 176 179 288 351 336c41.333 6 81.333 6.66699 120 2c96 6 203.333 -32.667 322 -116
c80.667 -85.333 121 -175.666 121 -270.999c0 -148.667 -101.667 -269.334 -305 -362.001c-8 0 -12 -2.66699 -12 -8c157.333 -63.333 236 -141 236 -233c0 -138 -97 -260.667 -291 -368c-92 -44 -190.333 -68.333 -295 -73c-238.667 22.667 -353.667 122 -345 298l133 -1
c39.333 -77.333 130.333 -120.666 273 -129.999c144 32.667 219.333 84.667 226 156c6.66699 104.667 -78 158 -254 160h-28c-64 1.33301 -119 -3 -165 -13l64 192c65.333 13.333 147 40 245 80z" />
    <glyph glyph-name="uni0418" unicode="&#x418;" horiz-adv-x="1379" 
d="M442 1115c-84 -312 -124.997 -498 -122.997 -558c12 0 48.333 33.667 109 101c386 481.333 622.667 722 710 722c12 0 30.333 -6 55 -18c78.667 -91.333 107 -198 85 -320c-100 -312.667 -175.667 -635.667 -227 -969c-22 -48.667 -51.333 -73 -88 -73
c-124.667 0 -162 140 -112 420l101 431c-50.667 -23.333 -181.334 -173 -392.001 -449c-169.333 -221.333 -312 -346.333 -428 -375c-60.667 0 -100.667 39.667 -120 119c-19.333 106.667 21.167 334.667 121.5 684s156.166 536 167.499 560
c17.333 18.667 30.666 28 39.999 28h18c94 11.333 121.667 -89.667 83 -303z" />
    <glyph glyph-name="uni0419" unicode="&#x419;" horiz-adv-x="1379" 
d="M442 1115c-84 -312 -124.997 -498 -122.997 -558c12 0 48.333 33.667 109 101c386 481.333 622.667 722 710 722c12 0 30.333 -6 55 -18c78.667 -91.333 107 -198 85 -320c-100 -312.667 -175.667 -635.667 -227 -969c-22 -48.667 -51.333 -73 -88 -73
c-124.667 0 -162 140 -112 420l101 431c-50.667 -23.333 -181.334 -173 -392.001 -449c-169.333 -221.333 -312 -346.333 -428 -375c-60.667 0 -100.667 39.667 -120 119c-19.333 106.667 21.167 334.667 121.5 684s156.166 536 167.499 560
c17.333 18.667 30.666 28 39.999 28h18c94 11.333 121.667 -89.667 83 -303zM648.003 1519c-27.333 -61.333 -37.667 -108.001 -31 -140.001l14 -8c148.667 11.333 261.667 87 339 227c47.333 108.667 57 170.334 29 185.001c-149.333 -23.333 -266.333 -111.333 -351 -264z
" />
    <glyph glyph-name="uni041A" unicode="&#x41a;" horiz-adv-x="1382" 
d="M426 1438c41.333 0 65.001 -32.666 71.001 -97.999c-23.333 -119.333 -73.666 -305.666 -150.999 -558.999v-71c1.33301 -12 7.33301 -18 18 -18c80 0 319.667 222 719 666c69.333 53.333 116.666 80 141.999 80c23.333 0 44 -32.667 62 -98
c0 -72 -176 -250.667 -528 -536c-17.333 -37.333 -26 -64 -26 -80c119.333 -226.667 179.666 -382.334 180.999 -467.001c-22.667 -178 -113.667 -261.333 -273 -250c-94.667 381.333 -160.334 568.666 -197.001 561.999l-83 -42c-45.333 -12.667 -95 -168 -149 -466
c-47.333 -47.333 -94.666 -71 -141.999 -71h-18c-47.333 0 -71 23.667 -71 71v9c0 125.333 85.333 530.333 256 1215c70 102 133 153 189 153z" />
    <glyph glyph-name="uni041B" unicode="&#x41b;" horiz-adv-x="1363" 
d="M964 0c-53.333 345.333 -121.333 668.666 -204 969.999h-6l-562 -939h-7c-104 53.333 -165.667 90.333 -185 111c216.667 388.667 488.667 819.334 816 1292h167c22 -22 67.333 -133.333 136 -334c106.667 -370 160 -681 160 -933
c-199.333 -111.333 -304.333 -167 -315 -167z" />
    <glyph glyph-name="uni041C" unicode="&#x41c;" horiz-adv-x="1457" 
d="M1344 1434c34.667 -10 51.9971 -36.332 51.9971 -78.999c-81.333 -349.333 -158.333 -745 -231 -1187c-48 -122.667 -116.667 -178.667 -206 -168c-40.667 17.333 -61 72.666 -61 165.999v35c0 144.667 26.333 299.334 79 464.001v8h-9
c-178 -356.667 -332.667 -552 -464 -586h-8c-76 0 -116 131.667 -120 395l6 139v9h-9c-58 -114 -107 -269.333 -147 -466c-37.333 -100 -81.333 -153.667 -132 -161c-68 -4 -100 20 -96 72c-6 122.667 75.333 438.667 244 948c122.667 250.667 243 376 361 376h18
c23.333 -8.66699 35 -29 35 -61v-9c-25.333 -253.333 -43.666 -451 -54.999 -593c4.66699 -110.667 22.334 -166 53.001 -166c44.667 23.333 152.334 165.666 323.001 426.999c176 285.333 280.667 428 314 428z" />
    <glyph glyph-name="uni041D" unicode="&#x41d;" horiz-adv-x="1627" 
d="M1464 1434c24 0 41.998 -12.002 53.998 -36.002v-36c-103.333 -251.333 -178.333 -461.666 -225 -630.999c-6 -9.33301 -11.333 -43.666 -16 -102.999l194 -17l-136 -226c-82.667 -19.333 -159.667 -116.333 -231 -291c-38 -65.333 -80 -98 -126 -98
c-65.333 4.66699 -95.666 33 -90.999 85c60 148.667 90 236 90 262c0 16.667 -15 31.667 -45 45c-142.667 -12 -308 -18 -496 -18c-45.333 0 -92.666 -94.667 -141.999 -284c-24 -57.333 -74.333 -84 -151 -80c-42 0 -63 27 -63 81c0 94.667 62.667 330.667 188 708
s250.333 587.333 375 630c30 -9.33301 45 -27.333 45 -54c-138 -370 -207 -562.333 -207 -577c-12 -24 -18 -57.333 -18 -100v-36c2.66699 -12 17.667 -24 45 -36l298 18c66 -6 141.333 -6.66699 226 -2c141.333 528.667 285.333 794 432 796z" />
    <glyph glyph-name="uni041E" unicode="&#x41e;" horiz-adv-x="1402" 
d="M833 1434c221.333 0 361.667 -100.332 421 -300.999c5.33301 -30.667 8 -56.334 8 -77.001v-34c0 -316 -175.667 -622.667 -527 -920c-95.333 -74 -200 -108 -314 -102c-154.667 -0 -277.667 77.333 -369 232c-34.667 70 -52 147.333 -52 232
c24 233.333 107 456.333 249 669c195.333 200.667 390 301 584 301zM226.001 541.001c0 -130 88.667 -205.334 266 -226.001h48c208 0 360 173.333 456 520v59c0 147.333 -96.333 241 -289 281c-184 22.667 -341.333 -162.666 -472 -555.999c-6 -25.333 -9 -51.333 -9 -78z
" />
    <glyph glyph-name="uni041F" unicode="&#x41f;" horiz-adv-x="1518" 
d="M1390 1434c24 0 41.999 -12.002 53.999 -36.002v-36c-103.333 -251.333 -178.333 -461.666 -225 -630.999c-6 -9.33301 -69 -221.666 -189 -636.999c-38 -65.333 -80 -98 -126 -98c-65.333 4.66699 -95.666 33 -90.999 85c210.667 681.333 316 1035 316 1061
c0 16.667 -15 31.667 -45 45c-142.667 -12 -283.334 -18 -422.001 -18c-45.333 0 -168 -361 -368 -1083c-24 -57.333 -74.333 -84 -151 -80c-42 0 -63 27 -63 81c0 94.667 62.667 330.667 188 708s250.333 587.333 375 630l91 -4l224 18c66 -6 141.333 -6.66699 226 -2
c42.667 -4 111.334 -5 206.001 -3z" />
    <glyph glyph-name="uni0420" unicode="&#x420;" 
d="M800 1435c249.333 -10 404.999 -60.332 466.999 -150.999c34.667 -36.667 51.667 -84.667 51 -144c0 -233.333 -166.333 -441 -499 -623c-149.333 -59.333 -306.666 -89 -471.999 -89v-9c-56 -272 -139 -408.667 -249 -410c-10 -6 -25 -9 -45 -9h-17
c-24 9.33301 -36 30 -36 62v18c0 154.667 83 511 249 1069c76 209.333 259.667 304.666 551 285.999zM400.999 695.001h70.999c323.333 4 510.333 110.667 561 320c14.667 91.333 -93.666 144.333 -324.999 159c-100.667 -2.66699 -167 -19 -199 -49
c-12.667 -32.667 -48.667 -176 -108 -430z" />
    <glyph glyph-name="uni0421" unicode="&#x421;" horiz-adv-x="1292" 
d="M1060 1434c110.667 0 165.999 -45.001 165.999 -135.001c0 -72.667 -55.333 -119.667 -166 -141h-6c-51.333 0 -102.333 2 -153 6c-278 0 -462 -100 -552 -300c-32.667 -57.333 -49 -126.666 -49 -207.999c0 -145.333 30.667 -241.333 92 -288
c42 -28.667 117.667 -43 227 -43c148 0 301.333 63.333 460 190h6c40.667 0 61 -16.333 61 -49c0 -80 -118.333 -200.667 -355 -362c-114 -69.333 -224.333 -104 -331 -104c-253.333 0 -406.666 128.667 -459.999 386v86c0 268.667 167.667 525 503 769
c204 128.667 389.667 193 557 193z" />
    <glyph glyph-name="uni0422" unicode="&#x422;" horiz-adv-x="1056" 
d="M612 1430c190 15.333 303.668 -18.332 341.001 -100.999c19.333 -62 -22.334 -112 -125.001 -150c-59.333 -28 -127.333 -42 -204 -42h-28c-40 -152.667 -106.667 -444.334 -200 -875.001c-48 -177.333 -115 -264.666 -201 -261.999h-37c-30 0 -47 24.667 -51 74
c0 38 52.667 239.333 158 604c54 245.333 83.333 397.333 88 456h-5c-53.333 -3.33301 -108.333 -7 -165 -11c-102.667 -2 -155.334 20.667 -158.001 68c2.66699 57.333 53.334 106.666 152.001 147.999c114 54.667 259 85 435 91z" />
    <glyph glyph-name="uni0423" unicode="&#x423;" horiz-adv-x="1638" 
d="M68 3h-24.998c-20 9.33301 -30 29.666 -30 60.999v24c55.333 131.333 164.5 257.833 327.5 379.5s244.5 207.5 244.5 257.5c0 22.667 -51.667 103.334 -155 242.001l-14 18c-64 85.333 -103 158 -117 218v7c0 62.667 64.667 130.334 194 203.001
c7.33301 4 15.666 6 24.999 6c58 0 135 -80.667 231 -242c39.333 -66 82 -145.667 128 -239c53.333 14 191.333 146 414 396c82.667 64.667 153.667 97 213 97c37.333 0 59.666 -28.333 66.999 -85c0 -51.333 -22.333 -88 -67 -110c-208 -188 -390.667 -344.333 -548 -469
c-457.333 -364.667 -753.333 -619.334 -888 -764.001z" />
    <glyph glyph-name="uni0424" unicode="&#x424;" horiz-adv-x="1850" 
d="M973 472l70.998 0.000976562c216.667 -0.666992 350.334 103.666 401.001 312.999c14.667 91.333 -69.666 144.333 -252.999 159c-42 2 -79 -12 -111 -42c-12.667 -32.667 -48.667 -176 -108 -430zM719.998 554.001l27 105.999c18 70.667 41.333 167.334 70 290.001h-71
c-216 0.666992 -349.667 -104 -401 -314c-14.667 -90.667 69.666 -143.334 252.999 -158.001c42 -2 79 11.667 111 41c2.66699 6.66699 6.33398 18.334 11.001 35.001zM1147 1204c42 5.33301 87.666 5.66211 136.999 0.995117c201.333 -10 333 -60.333 395 -151
c34.667 -36.667 51.667 -84.667 51 -144c0 -233.333 -151 -441 -453 -623c-132 -59.333 -251.333 -86.666 -358 -81.999v-9c-17.333 -123.333 -89.333 -188.666 -216 -195.999c-48.667 9.33301 -73 30 -73 62v18c0 45.333 4.33301 91 13 137
c-42 -5.33301 -87.667 -5.66602 -137 -0.999023c-200.667 10.667 -332 61.334 -394 152.001c-35.333 36.667 -52.666 84.334 -51.999 143.001c0 233.333 151 441.333 453 624c132.667 59.333 252 86.666 358 81.999v9c20 136 93.333 208 220 216c48.667 -10 73 -31 73 -63
v-18c0 -45.333 -5.66699 -97.666 -17 -156.999z" />
    <glyph glyph-name="uni0425" unicode="&#x425;" horiz-adv-x="1638" 
d="M1194 382c41.333 -61.333 67.0029 -115.333 77.0029 -162v-7c0 -62.667 -64.667 -130.334 -194 -203.001c-7.33301 -4 -15.666 -6 -24.999 -6c-58 0 -128 84.667 -210 254c-102.667 169.333 -158 258 -166 266c-270.667 -202.667 -473.334 -376.334 -608.001 -521.001
h-25c-20 9.33301 -30 29.666 -30 60.999v24c55.333 131.333 164.5 257.833 327.5 379.5s244.5 207.5 244.5 257.5c0 22.667 -51.667 103.334 -155 242.001l-14 18c-64 85.333 -103 158 -117 218v7c0 62.667 64.667 130.334 194 203.001c7.33301 4 15.666 6 24.999 6
c58 0 135 -80.667 231 -242c39.333 -66 82 -145.667 128 -239c53.333 14 191.333 146 414 396c82.667 64.667 153.667 97 213 97c37.333 0 59.666 -28.333 66.999 -85c0 -51.333 -22.333 -88 -67 -110c-208 -188 -390.667 -344.333 -548 -469
c103.333 -121.333 182.666 -249.666 237.999 -384.999z" />
    <glyph glyph-name="uni0426" unicode="&#x426;" horiz-adv-x="1518" 
d="M890 13c-2.66699 -0.666992 -5.66602 -1.66895 -8.99902 -3.00195l-91 4l-224 -18c-66 6 -141.333 6.66699 -226 2c-42.667 4 -111.334 5 -206.001 3c-24 0 -42 12 -54 36v37c103.333 250.667 178.333 461 225 631c6 8.66699 69 220.667 189 636c38 65.333 80 98 126 98
c65.333 -4 95.666 -32.333 90.999 -85c-210.667 -681.333 -316 -1034.67 -316 -1060c0 -16.667 15 -31.667 45 -45c142.667 12 283.334 18 422.001 18c45.333 0 168 360.667 368 1082c24 57.333 74.333 84 151 80c42 0 63 -27 63 -81c0 -94.667 -62.667 -330.667 -188 -708
c-65.333 -196.667 -130.333 -347.667 -195 -453l59 -13c94 -178.667 64.667 -342 -88 -490c-134.667 -22 -179.667 0.333008 -135 67c66 104.667 86.333 185.334 61 242.001z" />
    <glyph glyph-name="uni0427" unicode="&#x427;" horiz-adv-x="1121" 
d="M517 618l-35.0039 -6.00195c-127.333 7.33301 -216.666 15.666 -267.999 24.999c-93.333 22 -157 83.667 -191 185c-14.667 51.333 -19.334 108 -14.001 170c10.667 118 75.667 247 195 387c36.667 34.667 69.334 52 98.001 52c35.333 0 55 -13.667 59 -41
c-8 -46 -31.333 -94.333 -70 -145c-27.333 -46.667 -41 -89.334 -41 -128.001v-47c26.667 -135.333 82.334 -203 167.001 -203h87c31.333 0 60.333 0.666992 87 2c50.667 141.333 114.667 272.333 192 393c80 112.667 156 169 228 169
c25.333 -9.33301 38 -18.666 38 -27.999v-10c-107.333 -221.333 -185.666 -449.666 -234.999 -684.999s-108.333 -432.666 -177 -591.999c-47.333 -74 -108 -112.667 -182 -116l-9 19v75c8.66699 186.667 32.334 361.334 71.001 524.001z" />
    <glyph glyph-name="uni0428" unicode="&#x428;" horiz-adv-x="1844" 
d="M952 327c-5.33301 -20 -7.99707 -31.9951 -7.99707 -35.9951c0 -16.667 15 -31.667 45 -45l238 18c45.333 0 168 361 368 1083c24 57.333 74.333 84 151 80c42 0 63 -27 63 -81c0 -94.667 -62.667 -330.667 -188 -708s-250.333 -587.333 -375 -630l-91 4
c-92.667 -6 -181.334 -11.333 -266.001 -16c-42.667 4 -123.667 6.16699 -243 6.5s-221.333 -1.83398 -306 -6.50098c-42.667 4 -111.334 5 -206.001 3c-24 0 -42 12 -54 36v36c103.333 251.333 178.333 461.666 225 630.999c6 9.33301 69 221.666 189 636.999
c38 65.333 80 98 126 98c65.333 -4.66699 95.666 -33 90.999 -85c-210.667 -681.333 -316 -1035 -316 -1061c0 -16.667 15 -31.667 45 -45l238 18c19.333 0 52.333 64.333 99 193c30.667 89.333 56.334 171 77.001 245c6 9.33301 69 221.666 189 636.999
c0.666992 0.666992 1 1.66699 1 3c0.666992 1.33301 1.33398 3 2.00098 5c11.333 26.667 28 46.667 50 60c23.333 20 47.666 30 72.999 30c65.333 -4.66699 95.666 -33 90.999 -85v-6c0 -94.667 -62.667 -330.667 -188 -708c-40 -120.667 -80 -224.334 -120 -311.001z" />
    <glyph glyph-name="uni0429" unicode="&#x429;" horiz-adv-x="1854" 
d="M1147 11l-257.998 -14.9961c-42.667 4 -123.667 6.16699 -243 6.5s-221.333 -1.83398 -306 -6.50098c-42.667 4 -111.334 5 -206.001 3c-24 0 -42 12 -54 36v36c103.333 251.333 178.333 461.666 225 630.999c6 9.33301 69 221.666 189 636.999c38 65.333 80 98 126 98
c65.333 -4.66699 95.666 -33 90.999 -85c-210.667 -681.333 -316 -1035 -316 -1061c0 -16.667 15 -31.667 45 -45l238 18c19.333 0 52.333 64.333 99 193c30.667 89.333 56.334 171 77.001 245c6 9.33301 69 221.666 189 636.999c0.666992 0.666992 1 1.66699 1 3
c0.666992 1.33301 1.33398 3 2.00098 5c11.333 26.667 28 46.667 50 60c23.333 20 47.666 30 72.999 30c65.333 -4.66699 95.666 -33 90.999 -85v-6c0 -94.667 -62.667 -330.667 -188 -708c-40 -120.667 -80 -224.334 -120 -311.001c-5.33301 -20 -8 -32 -8 -36
c0 -16.667 15 -31.667 45 -45l238 18c45.333 0 168 361 368 1083c24 57.333 74.333 84 151 80c42 0 63 -27 63 -81c0 -94.667 -62.667 -330.667 -188 -708c-67.333 -203.333 -134.666 -358 -201.999 -464h1c94 -178.667 64.667 -342 -88 -490
c-134.667 -22 -179.667 0.333008 -135 67c66 104.667 86.333 185.334 61 242.001l-58 17l-17 1c-0.666992 -0.666992 -1.33398 -1 -2.00098 -1z" />
    <glyph glyph-name="uni042A" unicode="&#x42a;" 
d="M300 312c14 -30 70.667 -46.333 170 -49c240 14.667 380.333 67.667 421 159c76.667 210 -45.333 317 -366 321h-72c-94.667 -254 -145.667 -397.667 -153 -431zM568 1421c58.667 -14.667 77.332 -94.9971 55.999 -240.997c-13.333 -47.333 -32 -101 -56 -161l-6 -9
c164.667 0 304 -29.667 418 -89c222 -182.667 262.333 -390.667 121 -624c-35.333 -58.667 -81.666 -106.334 -138.999 -143.001c-117.333 -90.667 -303.666 -141.334 -558.999 -152.001c-302.667 -18.667 -428.334 76.666 -377.001 285.999
c124.667 403.333 229 701.333 313 894c-151.333 8 -233 14.333 -245 19l-21 10c-19.333 21.333 -22.333 46.333 -9 75c30 66.667 83.333 109.667 160 129c118 13.333 232.667 16 344 8v-2z" />
    <glyph glyph-name="uni042B" unicode="&#x42b;" horiz-adv-x="1816" 
d="M300 312c14 -30 70.667 -46.333 170 -49c240 14.667 380.333 67.667 421 159c76.667 210 -45.333 317 -366 321h-72c-94.667 -254 -145.667 -397.667 -153 -431zM624 1180c-13.333 -47.333 -32.001 -100.997 -56.001 -160.997l-6 -9c164.667 0 304 -29.667 418 -89
c222 -182.667 262.333 -390.667 121 -624c-35.333 -58.667 -81.666 -106.334 -138.999 -143.001c-117.333 -90.667 -303.666 -141.334 -558.999 -152.001c-302.667 -18.667 -428.334 76.666 -377.001 285.999c172.667 558 306 914.333 400 1069l10 18
c19.333 32 55 48.333 107 49c78 2 105 -79.333 81 -244zM1513 1262c-203.333 -317.333 -315.666 -706.664 -336.999 -1168v-75l9 -19c74 3.33301 134.667 42 182 116c68.667 159.333 127.667 356.666 177 591.999s127.666 463.666 234.999 684.999v10
c0 9.33301 -12.667 18.666 -38 27.999c-72 0 -148 -56.333 -228 -169z" />
    <glyph glyph-name="uni042C" unicode="&#x42c;" 
d="M300 312c14 -30 70.667 -46.333 170 -49c240 14.667 380.333 67.667 421 159c76.667 210 -45.333 317 -366 321h-72c-94.667 -254 -145.667 -397.667 -153 -431zM624 1180c-13.333 -47.333 -32.001 -100.997 -56.001 -160.997l-6 -9c164.667 0 304 -29.667 418 -89
c222 -182.667 262.333 -390.667 121 -624c-35.333 -58.667 -81.666 -106.334 -138.999 -143.001c-117.333 -90.667 -303.666 -141.334 -558.999 -152.001c-302.667 -18.667 -428.334 76.666 -377.001 285.999c172.667 558 306 914.333 400 1069l10 18
c19.333 32 55 48.333 107 49c78 2 105 -79.333 81 -244z" />
    <glyph glyph-name="uni042D" unicode="&#x42d;" horiz-adv-x="1292" 
d="M1164 684c-76.667 -168.667 -223.667 -332.333 -441 -491c-204 -128.667 -390 -193 -558 -193c-110 0 -165 45 -165 135c0 72.667 55 119.667 165 141h7c50.667 0 101.667 -2 153 -6c278 0 461.667 100 551 300c9.33301 16.667 17.333 34.334 24 53.001
c-43.333 -6.66699 -90.333 -12.667 -141 -18c-272 -74.667 -417 -111 -435 -109l-23 2c-24.667 15.333 -35 38.333 -31 69c8 72.667 46 129.667 114 171c178.667 80.667 356.667 131 534 151c-12.667 84.667 -41 143.667 -85 177c-41.333 28.667 -116.666 43 -225.999 43
c-148 0 -301.333 -63.333 -460 -190h-6c-40.667 0 -61 16.333 -61 49c0 80 118.333 200.667 355 362c113.333 69.333 223.666 104 330.999 104c253.333 0 406.666 -128.667 459.999 -386v-86c0 -22.667 -1.33301 -45.334 -4 -68.001
c10.667 -0.666992 21.334 -1.66699 32.001 -3l47 -5c17.333 -1.33301 34.333 -10.333 51 -27c-4 -38.667 -37.667 -81.667 -101 -129c-20.667 -16.667 -49.667 -32 -87 -46z" />
    <glyph glyph-name="uni042E" unicode="&#x42e;" horiz-adv-x="1984" 
d="M808 541c0 -130 88.667 -205.334 266 -226.001h48c208 0 360 173.333 456 520v59c0 147.333 -96.333 241 -289 281c-184 22.667 -341.333 -162.666 -472 -555.999c-6 -25.333 -9 -51.333 -9 -78zM663 808.999c41.333 110.667 97.334 218.665 168.001 323.998
c195.333 200.667 390 301 584 301c221.333 0 361.666 -100.333 420.999 -301c5.33301 -30.667 8 -56.334 8 -77.001v-34c0 -316 -175.667 -622.667 -527 -920c-95.333 -74 -200 -108 -314 -102c-154.667 0 -277.667 77.333 -369 232c-34.667 70 -52 147.333 -52 232
c2.66699 28.667 6.33398 57 11.001 85c-37.333 1.33301 -75 4 -113 8c-42 -170 -89.667 -317 -143 -441c-47.333 -74 -108 -112.667 -182 -116l-9 19v75c8.66699 180.667 31 350.334 67 509.001h-2c-74 28.667 -121.667 77.667 -143 147c-9.33301 30 -3.33301 54.667 18 74
l23 6c10 3.33301 65.333 1.33301 166 -6c53.333 158.667 122.666 304.667 207.999 438c80 112.667 156 169 228 169c25.333 -9.33301 38 -18.666 38 -27.999v-10c-92.667 -191.333 -163.667 -387.666 -213 -588.999l20 -2c37.333 2.66699 73 5 107 7z" />
    <glyph glyph-name="uni042F" unicode="&#x42f;" horiz-adv-x="1467" 
d="M1391 1296c30 -70.667 -20.3311 -310.002 -150.998 -718.002c-64.667 -190 -115.334 -345.333 -152.001 -466c-28 -75.333 -64 -113 -108 -113c-73.333 -19.333 -88 114.334 -44 401.001c-37.333 -16 -89.333 -22 -156 -18c-56.667 8 -105.334 20 -146.001 36
c-209.333 -190.667 -386 -330 -530 -418h-6c-50 108 -69.667 201 -59 279c5.33301 10.667 119.333 95.667 342 255c-160 184 -199.333 358.333 -118 523c61.333 122.667 149.333 213.334 264 272.001c159.333 67.333 362.333 102.333 609 105
c149.333 0 234.333 -46 255 -138zM1160 1167c9.33301 19.333 -30.335 29 -119.002 29c-43.333 0 -96.666 -5.66699 -159.999 -17c-196.667 -30 -323 -101.667 -379 -215c-26 -52 -35.667 -106.333 -29 -163c72 -131.333 205.667 -197 401 -197
c20.667 0 65.334 3.66699 134.001 11c96 358 146.667 542 152 552z" />
    <glyph glyph-name="uni0430" unicode="&#x430;" horiz-adv-x="1540" 
d="M1143 1427l4 -1227c-29.333 -129.333 -82 -195 -158 -197s-114 4.33301 -114 19l-22 316h-5c-58 -2.66699 -203.667 -5.33398 -437 -8.00098l-152 -235c-44 -62 -94.167 -93 -150.5 -93s-84.5 3 -84.5 9c96.667 152.667 158.667 256.334 186 311.001
c-118 -6 -177 -6 -177 0v9c0 90.667 53 162.334 159 215.001l153 20c166 246 388.333 531 667 855c43.333 15.333 87 17.333 131 6zM566 582.999h5.00098l286 6v4c0 25.333 -1.33301 156.333 -4 393c-10.667 -10.667 -106.334 -145 -287.001 -403z" />
    <glyph glyph-name="uni0431" unicode="&#x431;" 
d="M300 312c14 -30 70.667 -46.333 170 -49c240 14.667 380.333 67.667 421 159c76.667 210 -45.333 317 -366 321h-72c-94.667 -254 -145.667 -397.667 -153 -431zM624 1180c-13.333 -47.333 -32 -100.996 -56 -160.996l-6 -9c164.667 0 304 -29.667 418 -89
c222 -182.667 262.333 -390.667 121 -624c-35.333 -58.667 -81.666 -106.334 -138.999 -143.001c-117.333 -90.667 -303.666 -141.334 -558.999 -152.001c-302.667 -18.667 -428.334 76.666 -377.001 285.999c172.667 558 306 914.333 400 1069l10 18
c19.333 32 44 52.667 74 62h18l386 -31c132.667 -14 265.667 -15.667 399 -5l6 -2c4.66699 -2.66699 7.66699 -17.334 9 -44.001c-10.667 -70 -51.667 -123.333 -123 -160c-174.667 -74.667 -368.334 -79.667 -581.001 -15z" />
    <glyph glyph-name="uni0432" unicode="&#x432;" horiz-adv-x="1244" 
d="M762 1431c96 6 203.334 -32.666 322.001 -115.999c80.667 -85.333 121 -175.666 121 -270.999c0 -148.667 -101.667 -269.334 -305 -362.001c-8 0 -12 -2.66699 -12 -8c157.333 -63.333 236 -141 236 -233c0 -138 -97 -260.667 -291 -368c-92 -44 -170 -68.333 -234 -73
h-564c-54.667 42.667 -12.334 337 126.999 883c110.667 304.667 219 471 325 499c97.333 43.333 189 59.666 275 48.999zM364.001 651.001c50.667 0 173.333 30.332 368 90.999c118 50.667 189 111.334 213 182.001c6 19.333 9 32.333 9 39v22
c0 78 -95.667 131.333 -287 160h-43c-106.667 -7.33301 -160 -23 -160 -47c0 -4.66699 -33.333 -153.667 -100 -447zM294 368l-24.001 -74c55.333 -50.667 157.333 -71.667 306 -63h33c159.333 9.33301 252 40 278 92c2.66699 55.333 -104.666 84 -321.999 86h-28
c-105.333 2.66699 -186.333 -11 -243 -41z" />
    <glyph glyph-name="uni0433" unicode="&#x433;" horiz-adv-x="1325" 
d="M28 302c49.333 276 137.667 571.667 265 887c71.333 140.667 200 218 386 232l220 18c250.667 -6 368 -89 352 -249c-6 -57.333 -47.333 -74 -124 -50c-155.333 24 -275.666 31.667 -360.999 23c-107.333 -2 -198 -30.333 -272 -85c-87.333 -186 -146.333 -360 -177 -522
c-38.667 -275.333 -65.334 -438 -80.001 -488c-26 -49.333 -71.833 -75 -137.5 -77s-89.5 101.667 -71.5 311z" />
    <glyph glyph-name="uni0434" unicode="&#x434;" horiz-adv-x="1657" 
d="M1105 238c-46 256.667 -100.667 500.667 -164 732h-6l-427 -719c210 22 409 17.667 597 -13zM345 -1c-2 -34 -11.667 -72.335 -29 -115.002l-21 -18c-82.667 -28 -144.334 -16.333 -185.001 35c-45.333 56 -65.666 133.333 -60.999 232
c2.66699 5.33301 5.66699 10.333 9 15c-1.33301 2.66699 -2.33301 5.33398 -3 8.00098l16 14l72 20c24.667 6 49.334 11.333 74.001 16c210.667 372 470.667 781.333 780 1228h167c22 -22 67.333 -133.333 136 -334c106.667 -370 158.667 -673.667 156 -911
c90.667 -13.333 132.667 -74.666 126 -183.999c-1.33301 -14.667 -3.33301 -25.667 -6 -33c-4.66699 -26.667 -13.334 -56 -26.001 -88l-21 -18c-82.667 -28 -144.334 -16.333 -185.001 35c-21.333 26 -37 56.667 -47 92c-47.333 4.66699 -94.666 8 -141.999 10
c-5.33301 -2 -8.66602 -3 -9.99902 -3c0 1.33301 -0.333008 2.66602 -1 3.99902c-104 4 -207.667 2.66699 -311 -4c-182.667 -11.333 -345.334 -11.666 -488.001 -0.999023z" />
    <glyph glyph-name="uni0435" unicode="&#x435;" horiz-adv-x="1354" 
d="M1133 1434c110 -1.33301 164.999 -20.332 164.999 -56.999c0 -88 -57.667 -153.667 -173 -197h-12l-553 -18c-98.667 -138.667 -148 -282 -148 -430c160 -24.667 294.333 -30.334 403 -17.001c114.667 18 197.667 27 249 27c32 0 54.667 -12.333 68 -37v-18
c0 -74 -65.667 -139.667 -197 -197c-49.333 -8 -88.333 -12 -117 -12l-387 8c-66 -7.33301 -99 -34 -99 -80c0 -74 47.333 -111 142 -111c120 0 312.667 30.667 578 92h18c32.667 0 49 -16.333 49 -49v-12c-19.333 -158 -209.666 -264.667 -570.999 -320
c-39.333 -4 -78.333 -6 -117 -6h-13c-119.333 -0 -234 16.333 -344 49v6c-4 100.667 -6 156 -6 166c0 444.667 158.333 849 475 1213h590z" />
    <glyph glyph-name="uni0436" unicode="&#x436;" horiz-adv-x="2093" 
d="M768 525c-0.666992 0.666992 -1.66699 1.3291 -3 1.99609l-62 42c-33.333 6.66699 -193.666 -180.666 -480.999 -561.999c-165.333 -11.333 -214.333 72 -147 250c44.667 84.667 183.667 240.334 417 467.001c8.66699 16 13.667 42.667 15 80
c-208 285.333 -293.667 464 -257 536c50.667 65.333 87.667 98 111 98c25.333 0 59.333 -26.667 102 -80c150 -381.333 265 -599 345 -653l140 580c70 102 133 153 189 153c41.333 0 65 -32.667 71 -98c-23.333 -119.333 -73.666 -305.666 -150.999 -558.999v-71
c0 -1.33301 0.333008 -2.66602 1 -3.99902c2 -9.33301 7.66699 -14 17 -14c80 0 319.667 222 719 666c69.333 53.333 116.666 80 141.999 80c23.333 0 44 -32.667 62 -98c0 -72 -176 -250.667 -528 -536c-17.333 -37.333 -26 -64 -26 -80
c119.333 -226.667 179.666 -382.334 180.999 -467.001c-22.667 -178 -113.667 -261.333 -273 -250c-94.667 381.333 -160.334 568.666 -197.001 561.999l-83 -42c-4 -1.33301 -8.33301 -3.66602 -13 -6.99902c-42 -36 -87.333 -189 -136 -459
c-47.333 -47.333 -94.666 -71 -141.999 -71h-18c-47.333 0 -71 23.667 -71 71v9c0 68.667 25.333 220.334 76 455.001z" />
    <glyph glyph-name="uni0437" unicode="&#x437;" horiz-adv-x="1244" 
d="M565 742c118 50.667 189 111.332 213 181.999c6 19.333 9 32.333 9 39v22c0 78 -62.333 140 -187 186c-108 24.667 -210.667 -4 -308 -86l-123 8c62 176 179 288 351 336c41.333 6 81.333 6.66699 120 2c96 6 203.333 -32.667 322 -116
c80.667 -85.333 121 -175.666 121 -270.999c0 -148.667 -101.667 -269.334 -305 -362.001c-8 0 -12 -2.66699 -12 -8c157.333 -63.333 236 -141 236 -233c0 -138 -97 -260.667 -291 -368c-92 -44 -190.333 -68.333 -295 -73c-238.667 22.667 -353.667 122 -345 298l133 -1
c39.333 -77.333 130.333 -120.666 273 -129.999c144 32.667 219.333 84.667 226 156c6.66699 104.667 -78 158 -254 160h-28c-64 1.33301 -119 -3 -165 -13l64 192c65.333 13.333 147 40 245 80z" />
    <glyph glyph-name="uni0438" unicode="&#x438;" horiz-adv-x="1379" 
d="M442 1115c-84 -312 -124.997 -498 -122.997 -558c12 0 48.333 33.667 109 101c386 481.333 622.667 722 710 722c12 0 30.333 -6 55 -18c78.667 -91.333 107 -198 85 -320c-100 -312.667 -175.667 -635.667 -227 -969c-22 -48.667 -51.333 -73 -88 -73
c-124.667 0 -162 140 -112 420l101 431c-50.667 -23.333 -181.334 -173 -392.001 -449c-169.333 -221.333 -312 -346.333 -428 -375c-60.667 0 -100.667 39.667 -120 119c-19.333 106.667 21.167 334.667 121.5 684s156.166 536 167.499 560
c17.333 18.667 30.666 28 39.999 28h18c94 11.333 121.667 -89.667 83 -303z" />
    <glyph glyph-name="uni0439" unicode="&#x439;" horiz-adv-x="1379" 
d="M442 1115c-84 -312 -124.997 -498 -122.997 -558c12 0 48.333 33.667 109 101c386 481.333 622.667 722 710 722c12 0 30.333 -6 55 -18c78.667 -91.333 107 -198 85 -320c-100 -312.667 -175.667 -635.667 -227 -969c-22 -48.667 -51.333 -73 -88 -73
c-124.667 0 -162 140 -112 420l101 431c-50.667 -23.333 -181.334 -173 -392.001 -449c-169.333 -221.333 -312 -346.333 -428 -375c-60.667 0 -100.667 39.667 -120 119c-19.333 106.667 21.167 334.667 121.5 684s156.166 536 167.499 560
c17.333 18.667 30.666 28 39.999 28h18c94 11.333 121.667 -89.667 83 -303zM648.003 1519c-27.333 -61.333 -37.667 -108.001 -31 -140.001l14 -8c148.667 11.333 261.667 87 339 227c47.333 108.667 57 170.334 29 185.001c-149.333 -23.333 -266.333 -111.333 -351 -264z
" />
    <glyph glyph-name="uni043A" unicode="&#x43a;" horiz-adv-x="1382" 
d="M426 1438c41.333 0 65.001 -32.666 71.001 -97.999c-23.333 -119.333 -73.666 -305.666 -150.999 -558.999v-71c1.33301 -12 7.33301 -18 18 -18c80 0 319.667 222 719 666c69.333 53.333 116.666 80 141.999 80c23.333 0 44 -32.667 62 -98
c0 -72 -176 -250.667 -528 -536c-17.333 -37.333 -26 -64 -26 -80c119.333 -226.667 179.666 -382.334 180.999 -467.001c-22.667 -178 -113.667 -261.333 -273 -250c-94.667 381.333 -160.334 568.666 -197.001 561.999l-83 -42c-45.333 -12.667 -95 -168 -149 -466
c-47.333 -47.333 -94.666 -71 -141.999 -71h-18c-47.333 0 -71 23.667 -71 71v9c0 125.333 85.333 530.333 256 1215c70 102 133 153 189 153z" />
    <glyph glyph-name="uni043B" unicode="&#x43b;" horiz-adv-x="1363" 
d="M964 0c-53.333 345.333 -121.333 668.666 -204 969.999h-6l-562 -939h-7c-104 53.333 -165.667 90.333 -185 111c216.667 388.667 488.667 819.334 816 1292h167c22 -22 67.333 -133.333 136 -334c106.667 -370 160 -681 160 -933
c-199.333 -111.333 -304.333 -167 -315 -167z" />
    <glyph glyph-name="uni043C" unicode="&#x43c;" horiz-adv-x="1457" 
d="M1344 1434c34.667 -10 51.9971 -36.332 51.9971 -78.999c-81.333 -349.333 -158.333 -745 -231 -1187c-48 -122.667 -116.667 -178.667 -206 -168c-40.667 17.333 -61 72.666 -61 165.999v35c0 144.667 26.333 299.334 79 464.001v8h-9
c-178 -356.667 -332.667 -552 -464 -586h-8c-76 0 -116 131.667 -120 395l6 139v9h-9c-58 -114 -107 -269.333 -147 -466c-37.333 -100 -81.333 -153.667 -132 -161c-68 -4 -100 20 -96 72c-6 122.667 75.333 438.667 244 948c122.667 250.667 243 376 361 376h18
c23.333 -8.66699 35 -29 35 -61v-9c-25.333 -253.333 -43.666 -451 -54.999 -593c4.66699 -110.667 22.334 -166 53.001 -166c44.667 23.333 152.334 165.666 323.001 426.999c176 285.333 280.667 428 314 428z" />
    <glyph glyph-name="uni043D" unicode="&#x43d;" horiz-adv-x="1627" 
d="M1464 1434c24 0 41.998 -12.002 53.998 -36.002v-36c-103.333 -251.333 -178.333 -461.666 -225 -630.999c-6 -9.33301 -11.333 -43.666 -16 -102.999l194 -17l-136 -226c-82.667 -19.333 -159.667 -116.333 -231 -291c-38 -65.333 -80 -98 -126 -98
c-65.333 4.66699 -95.666 33 -90.999 85c60 148.667 90 236 90 262c0 16.667 -15 31.667 -45 45c-142.667 -12 -308 -18 -496 -18c-45.333 0 -92.666 -94.667 -141.999 -284c-24 -57.333 -74.333 -84 -151 -80c-42 0 -63 27 -63 81c0 94.667 62.667 330.667 188 708
s250.333 587.333 375 630c30 -9.33301 45 -27.333 45 -54c-138 -370 -207 -562.333 -207 -577c-12 -24 -18 -57.333 -18 -100v-36c2.66699 -12 17.667 -24 45 -36l298 18c66 -6 141.333 -6.66699 226 -2c141.333 528.667 285.333 794 432 796z" />
    <glyph glyph-name="uni043E" unicode="&#x43e;" horiz-adv-x="1402" 
d="M833 1434c221.333 0 361.667 -100.332 421 -300.999c5.33301 -30.667 8 -56.334 8 -77.001v-34c0 -316 -175.667 -622.667 -527 -920c-95.333 -74 -200 -108 -314 -102c-154.667 -0 -277.667 77.333 -369 232c-34.667 70 -52 147.333 -52 232
c24 233.333 107 456.333 249 669c195.333 200.667 390 301 584 301zM226.001 541.001c0 -130 88.667 -205.334 266 -226.001h48c208 0 360 173.333 456 520v59c0 147.333 -96.333 241 -289 281c-184 22.667 -341.333 -162.666 -472 -555.999c-6 -25.333 -9 -51.333 -9 -78z
" />
    <glyph glyph-name="uni043F" unicode="&#x43f;" horiz-adv-x="1518" 
d="M1390 1434c24 0 41.999 -12.002 53.999 -36.002v-36c-103.333 -251.333 -178.333 -461.666 -225 -630.999c-6 -9.33301 -69 -221.666 -189 -636.999c-38 -65.333 -80 -98 -126 -98c-65.333 4.66699 -95.666 33 -90.999 85c210.667 681.333 316 1035 316 1061
c0 16.667 -15 31.667 -45 45c-142.667 -12 -283.334 -18 -422.001 -18c-45.333 0 -168 -361 -368 -1083c-24 -57.333 -74.333 -84 -151 -80c-42 0 -63 27 -63 81c0 94.667 62.667 330.667 188 708s250.333 587.333 375 630l91 -4l224 18c66 -6 141.333 -6.66699 226 -2
c42.667 -4 111.334 -5 206.001 -3z" />
    <glyph glyph-name="uni0440" unicode="&#x440;" 
d="M800 1435c249.333 -10 404.999 -60.332 466.999 -150.999c34.667 -36.667 51.667 -84.667 51 -144c0 -233.333 -166.333 -441 -499 -623c-149.333 -59.333 -306.666 -89 -471.999 -89v-9c-56 -272 -139 -408.667 -249 -410c-10 -6 -25 -9 -45 -9h-17
c-24 9.33301 -36 30 -36 62v18c0 154.667 83 511 249 1069c76 209.333 259.667 304.666 551 285.999zM400.999 695.001h70.999c323.333 4 510.333 110.667 561 320c14.667 91.333 -93.666 144.333 -324.999 159c-100.667 -2.66699 -167 -19 -199 -49
c-12.667 -32.667 -48.667 -176 -108 -430z" />
    <glyph glyph-name="uni0441" unicode="&#x441;" horiz-adv-x="1292" 
d="M1060 1434c110.667 0 165.999 -45.001 165.999 -135.001c0 -72.667 -55.333 -119.667 -166 -141h-6c-51.333 0 -102.333 2 -153 6c-278 0 -462 -100 -552 -300c-32.667 -57.333 -49 -126.666 -49 -207.999c0 -145.333 30.667 -241.333 92 -288
c42 -28.667 117.667 -43 227 -43c148 0 301.333 63.333 460 190h6c40.667 0 61 -16.333 61 -49c0 -80 -118.333 -200.667 -355 -362c-114 -69.333 -224.333 -104 -331 -104c-253.333 0 -406.666 128.667 -459.999 386v86c0 268.667 167.667 525 503 769
c204 128.667 389.667 193 557 193z" />
    <glyph glyph-name="uni0442" unicode="&#x442;" horiz-adv-x="1056" 
d="M612 1430c190 15.333 303.668 -18.332 341.001 -100.999c19.333 -62 -22.334 -112 -125.001 -150c-59.333 -28 -127.333 -42 -204 -42h-28c-40 -152.667 -106.667 -444.334 -200 -875.001c-48 -177.333 -115 -264.666 -201 -261.999h-37c-30 0 -47 24.667 -51 74
c0 38 52.667 239.333 158 604c54 245.333 83.333 397.333 88 456h-5c-53.333 -3.33301 -108.333 -7 -165 -11c-102.667 -2 -155.334 20.667 -158.001 68c2.66699 57.333 53.334 106.666 152.001 147.999c114 54.667 259 85 435 91z" />
    <glyph glyph-name="uni0443" unicode="&#x443;" horiz-adv-x="1638" 
d="M68 3h-24.998c-20 9.33301 -30 29.666 -30 60.999v24c55.333 131.333 164.5 257.833 327.5 379.5s244.5 207.5 244.5 257.5c0 22.667 -51.667 103.334 -155 242.001l-14 18c-64 85.333 -103 158 -117 218v7c0 62.667 64.667 130.334 194 203.001
c7.33301 4 15.666 6 24.999 6c58 0 135 -80.667 231 -242c39.333 -66 82 -145.667 128 -239c53.333 14 191.333 146 414 396c82.667 64.667 153.667 97 213 97c37.333 0 59.666 -28.333 66.999 -85c0 -51.333 -22.333 -88 -67 -110c-208 -188 -390.667 -344.333 -548 -469
c-457.333 -364.667 -753.333 -619.334 -888 -764.001z" />
    <glyph glyph-name="uni0444" unicode="&#x444;" horiz-adv-x="1850" 
d="M973 472l70.998 0.000976562c216.667 -0.666992 350.334 103.666 401.001 312.999c14.667 91.333 -69.666 144.333 -252.999 159c-42 2 -79 -12 -111 -42c-12.667 -32.667 -48.667 -176 -108 -430zM719.998 554.001l27 105.999c18 70.667 41.333 167.334 70 290.001h-71
c-216 0.666992 -349.667 -104 -401 -314c-14.667 -90.667 69.666 -143.334 252.999 -158.001c42 -2 79 11.667 111 41c2.66699 6.66699 6.33398 18.334 11.001 35.001zM1147 1204c42 5.33301 87.666 5.66211 136.999 0.995117c201.333 -10 333 -60.333 395 -151
c34.667 -36.667 51.667 -84.667 51 -144c0 -233.333 -151 -441 -453 -623c-132 -59.333 -251.333 -86.666 -358 -81.999v-9c-17.333 -123.333 -89.333 -188.666 -216 -195.999c-48.667 9.33301 -73 30 -73 62v18c0 45.333 4.33301 91 13 137
c-42 -5.33301 -87.667 -5.66602 -137 -0.999023c-200.667 10.667 -332 61.334 -394 152.001c-35.333 36.667 -52.666 84.334 -51.999 143.001c0 233.333 151 441.333 453 624c132.667 59.333 252 86.666 358 81.999v9c20 136 93.333 208 220 216c48.667 -10 73 -31 73 -63
v-18c0 -45.333 -5.66699 -97.666 -17 -156.999z" />
    <glyph glyph-name="uni0445" unicode="&#x445;" horiz-adv-x="1638" 
d="M1194 382c41.333 -61.333 67.0029 -115.333 77.0029 -162v-7c0 -62.667 -64.667 -130.334 -194 -203.001c-7.33301 -4 -15.666 -6 -24.999 -6c-58 0 -128 84.667 -210 254c-102.667 169.333 -158 258 -166 266c-270.667 -202.667 -473.334 -376.334 -608.001 -521.001
h-25c-20 9.33301 -30 29.666 -30 60.999v24c55.333 131.333 164.5 257.833 327.5 379.5s244.5 207.5 244.5 257.5c0 22.667 -51.667 103.334 -155 242.001l-14 18c-64 85.333 -103 158 -117 218v7c0 62.667 64.667 130.334 194 203.001c7.33301 4 15.666 6 24.999 6
c58 0 135 -80.667 231 -242c39.333 -66 82 -145.667 128 -239c53.333 14 191.333 146 414 396c82.667 64.667 153.667 97 213 97c37.333 0 59.666 -28.333 66.999 -85c0 -51.333 -22.333 -88 -67 -110c-208 -188 -390.667 -344.333 -548 -469
c103.333 -121.333 182.666 -249.666 237.999 -384.999z" />
    <glyph glyph-name="uni0446" unicode="&#x446;" horiz-adv-x="1518" 
d="M890 13c-2.66699 -0.666992 -5.66602 -1.66895 -8.99902 -3.00195l-91 4l-224 -18c-66 6 -141.333 6.66699 -226 2c-42.667 4 -111.334 5 -206.001 3c-24 0 -42 12 -54 36v37c103.333 250.667 178.333 461 225 631c6 8.66699 69 220.667 189 636c38 65.333 80 98 126 98
c65.333 -4 95.666 -32.333 90.999 -85c-210.667 -681.333 -316 -1034.67 -316 -1060c0 -16.667 15 -31.667 45 -45c142.667 12 283.334 18 422.001 18c45.333 0 168 360.667 368 1082c24 57.333 74.333 84 151 80c42 0 63 -27 63 -81c0 -94.667 -62.667 -330.667 -188 -708
c-65.333 -196.667 -130.333 -347.667 -195 -453l59 -13c94 -178.667 64.667 -342 -88 -490c-134.667 -22 -179.667 0.333008 -135 67c66 104.667 86.333 185.334 61 242.001z" />
    <glyph glyph-name="uni0447" unicode="&#x447;" horiz-adv-x="1121" 
d="M517 618l-35.0039 -6.00195c-127.333 7.33301 -216.666 15.666 -267.999 24.999c-93.333 22 -157 83.667 -191 185c-14.667 51.333 -19.334 108 -14.001 170c10.667 118 75.667 247 195 387c36.667 34.667 69.334 52 98.001 52c35.333 0 55 -13.667 59 -41
c-8 -46 -31.333 -94.333 -70 -145c-27.333 -46.667 -41 -89.334 -41 -128.001v-47c26.667 -135.333 82.334 -203 167.001 -203h87c31.333 0 60.333 0.666992 87 2c50.667 141.333 114.667 272.333 192 393c80 112.667 156 169 228 169
c25.333 -9.33301 38 -18.666 38 -27.999v-10c-107.333 -221.333 -185.666 -449.666 -234.999 -684.999s-108.333 -432.666 -177 -591.999c-47.333 -74 -108 -112.667 -182 -116l-9 19v75c8.66699 186.667 32.334 361.334 71.001 524.001z" />
    <glyph glyph-name="uni0448" unicode="&#x448;" horiz-adv-x="1844" 
d="M952 327c-5.33301 -20 -7.99707 -31.9951 -7.99707 -35.9951c0 -16.667 15 -31.667 45 -45l238 18c45.333 0 168 361 368 1083c24 57.333 74.333 84 151 80c42 0 63 -27 63 -81c0 -94.667 -62.667 -330.667 -188 -708s-250.333 -587.333 -375 -630l-91 4
c-92.667 -6 -181.334 -11.333 -266.001 -16c-42.667 4 -123.667 6.16699 -243 6.5s-221.333 -1.83398 -306 -6.50098c-42.667 4 -111.334 5 -206.001 3c-24 0 -42 12 -54 36v36c103.333 251.333 178.333 461.666 225 630.999c6 9.33301 69 221.666 189 636.999
c38 65.333 80 98 126 98c65.333 -4.66699 95.666 -33 90.999 -85c-210.667 -681.333 -316 -1035 -316 -1061c0 -16.667 15 -31.667 45 -45l238 18c19.333 0 52.333 64.333 99 193c30.667 89.333 56.334 171 77.001 245c6 9.33301 69 221.666 189 636.999
c0.666992 0.666992 1 1.66699 1 3c0.666992 1.33301 1.33398 3 2.00098 5c11.333 26.667 28 46.667 50 60c23.333 20 47.666 30 72.999 30c65.333 -4.66699 95.666 -33 90.999 -85v-6c0 -94.667 -62.667 -330.667 -188 -708c-40 -120.667 -80 -224.334 -120 -311.001z" />
    <glyph glyph-name="uni0449" unicode="&#x449;" horiz-adv-x="1854" 
d="M1147 11l-257.998 -14.9961c-42.667 4 -123.667 6.16699 -243 6.5s-221.333 -1.83398 -306 -6.50098c-42.667 4 -111.334 5 -206.001 3c-24 0 -42 12 -54 36v36c103.333 251.333 178.333 461.666 225 630.999c6 9.33301 69 221.666 189 636.999c38 65.333 80 98 126 98
c65.333 -4.66699 95.666 -33 90.999 -85c-210.667 -681.333 -316 -1035 -316 -1061c0 -16.667 15 -31.667 45 -45l238 18c19.333 0 52.333 64.333 99 193c30.667 89.333 56.334 171 77.001 245c6 9.33301 69 221.666 189 636.999c0.666992 0.666992 1 1.66699 1 3
c0.666992 1.33301 1.33398 3 2.00098 5c11.333 26.667 28 46.667 50 60c23.333 20 47.666 30 72.999 30c65.333 -4.66699 95.666 -33 90.999 -85v-6c0 -94.667 -62.667 -330.667 -188 -708c-40 -120.667 -80 -224.334 -120 -311.001c-5.33301 -20 -8 -32 -8 -36
c0 -16.667 15 -31.667 45 -45l238 18c45.333 0 168 361 368 1083c24 57.333 74.333 84 151 80c42 0 63 -27 63 -81c0 -94.667 -62.667 -330.667 -188 -708c-67.333 -203.333 -134.666 -358 -201.999 -464h1c94 -178.667 64.667 -342 -88 -490
c-134.667 -22 -179.667 0.333008 -135 67c66 104.667 86.333 185.334 61 242.001l-58 17l-17 1c-0.666992 -0.666992 -1.33398 -1 -2.00098 -1z" />
    <glyph glyph-name="uni044A" unicode="&#x44a;" 
d="M300 312c14 -30 70.667 -46.333 170 -49c240 14.667 380.333 67.667 421 159c76.667 210 -45.333 317 -366 321h-72c-94.667 -254 -145.667 -397.667 -153 -431zM568 1421c58.667 -14.667 77.332 -94.9971 55.999 -240.997c-13.333 -47.333 -32 -101 -56 -161l-6 -9
c164.667 0 304 -29.667 418 -89c222 -182.667 262.333 -390.667 121 -624c-35.333 -58.667 -81.666 -106.334 -138.999 -143.001c-117.333 -90.667 -303.666 -141.334 -558.999 -152.001c-302.667 -18.667 -428.334 76.666 -377.001 285.999
c124.667 403.333 229 701.333 313 894c-151.333 8 -233 14.333 -245 19l-21 10c-19.333 21.333 -22.333 46.333 -9 75c30 66.667 83.333 109.667 160 129c118 13.333 232.667 16 344 8v-2z" />
    <glyph glyph-name="uni044B" unicode="&#x44b;" horiz-adv-x="1816" 
d="M300 312c14 -30 70.667 -46.333 170 -49c240 14.667 380.333 67.667 421 159c76.667 210 -45.333 317 -366 321h-72c-94.667 -254 -145.667 -397.667 -153 -431zM624 1180c-13.333 -47.333 -32.001 -100.997 -56.001 -160.997l-6 -9c164.667 0 304 -29.667 418 -89
c222 -182.667 262.333 -390.667 121 -624c-35.333 -58.667 -81.666 -106.334 -138.999 -143.001c-117.333 -90.667 -303.666 -141.334 -558.999 -152.001c-302.667 -18.667 -428.334 76.666 -377.001 285.999c172.667 558 306 914.333 400 1069l10 18
c19.333 32 55 48.333 107 49c78 2 105 -79.333 81 -244zM1513 1262c-203.333 -317.333 -315.666 -706.664 -336.999 -1168v-75l9 -19c74 3.33301 134.667 42 182 116c68.667 159.333 127.667 356.666 177 591.999s127.666 463.666 234.999 684.999v10
c0 9.33301 -12.667 18.666 -38 27.999c-72 0 -148 -56.333 -228 -169z" />
    <glyph glyph-name="uni044C" unicode="&#x44c;" 
d="M300 312c14 -30 70.667 -46.333 170 -49c240 14.667 380.333 67.667 421 159c76.667 210 -45.333 317 -366 321h-72c-94.667 -254 -145.667 -397.667 -153 -431zM624 1180c-13.333 -47.333 -32.001 -100.997 -56.001 -160.997l-6 -9c164.667 0 304 -29.667 418 -89
c222 -182.667 262.333 -390.667 121 -624c-35.333 -58.667 -81.666 -106.334 -138.999 -143.001c-117.333 -90.667 -303.666 -141.334 -558.999 -152.001c-302.667 -18.667 -428.334 76.666 -377.001 285.999c172.667 558 306 914.333 400 1069l10 18
c19.333 32 55 48.333 107 49c78 2 105 -79.333 81 -244z" />
    <glyph glyph-name="uni044D" unicode="&#x44d;" horiz-adv-x="1292" 
d="M1164 684c-76.667 -168.667 -223.667 -332.333 -441 -491c-204 -128.667 -390 -193 -558 -193c-110 0 -165 45 -165 135c0 72.667 55 119.667 165 141h7c50.667 0 101.667 -2 153 -6c278 0 461.667 100 551 300c9.33301 16.667 17.333 34.334 24 53.001
c-43.333 -6.66699 -90.333 -12.667 -141 -18c-272 -74.667 -417 -111 -435 -109l-23 2c-24.667 15.333 -35 38.333 -31 69c8 72.667 46 129.667 114 171c178.667 80.667 356.667 131 534 151c-12.667 84.667 -41 143.667 -85 177c-41.333 28.667 -116.666 43 -225.999 43
c-148 0 -301.333 -63.333 -460 -190h-6c-40.667 0 -61 16.333 -61 49c0 80 118.333 200.667 355 362c113.333 69.333 223.666 104 330.999 104c253.333 0 406.666 -128.667 459.999 -386v-86c0 -22.667 -1.33301 -45.334 -4 -68.001
c10.667 -0.666992 21.334 -1.66699 32.001 -3l47 -5c17.333 -1.33301 34.333 -10.333 51 -27c-4 -38.667 -37.667 -81.667 -101 -129c-20.667 -16.667 -49.667 -32 -87 -46z" />
    <glyph glyph-name="uni044E" unicode="&#x44e;" horiz-adv-x="1984" 
d="M808 541c0 -130 88.667 -205.334 266 -226.001h48c208 0 360 173.333 456 520v59c0 147.333 -96.333 241 -289 281c-184 22.667 -341.333 -162.666 -472 -555.999c-6 -25.333 -9 -51.333 -9 -78zM663 808.999c41.333 110.667 97.334 218.665 168.001 323.998
c195.333 200.667 390 301 584 301c221.333 0 361.666 -100.333 420.999 -301c5.33301 -30.667 8 -56.334 8 -77.001v-34c0 -316 -175.667 -622.667 -527 -920c-95.333 -74 -200 -108 -314 -102c-154.667 0 -277.667 77.333 -369 232c-34.667 70 -52 147.333 -52 232
c2.66699 28.667 6.33398 57 11.001 85c-37.333 1.33301 -75 4 -113 8c-42 -170 -89.667 -317 -143 -441c-47.333 -74 -108 -112.667 -182 -116l-9 19v75c8.66699 180.667 31 350.334 67 509.001h-2c-74 28.667 -121.667 77.667 -143 147c-9.33301 30 -3.33301 54.667 18 74
l23 6c10 3.33301 65.333 1.33301 166 -6c53.333 158.667 122.666 304.667 207.999 438c80 112.667 156 169 228 169c25.333 -9.33301 38 -18.666 38 -27.999v-10c-92.667 -191.333 -163.667 -387.666 -213 -588.999l20 -2c37.333 2.66699 73 5 107 7z" />
    <glyph glyph-name="uni044F" unicode="&#x44f;" horiz-adv-x="1467" 
d="M1391 1296c30 -70.667 -20.3311 -310.002 -150.998 -718.002c-64.667 -190 -115.334 -345.333 -152.001 -466c-28 -75.333 -64 -113 -108 -113c-73.333 -19.333 -88 114.334 -44 401.001c-37.333 -16 -89.333 -22 -156 -18c-56.667 8 -105.334 20 -146.001 36
c-209.333 -190.667 -386 -330 -530 -418h-6c-50 108 -69.667 201 -59 279c5.33301 10.667 119.333 95.667 342 255c-160 184 -199.333 358.333 -118 523c61.333 122.667 149.333 213.334 264 272.001c159.333 67.333 362.333 102.333 609 105
c149.333 0 234.333 -46 255 -138zM1160 1167c9.33301 19.333 -30.335 29 -119.002 29c-43.333 0 -96.666 -5.66699 -159.999 -17c-196.667 -30 -323 -101.667 -379 -215c-26 -52 -35.667 -106.333 -29 -163c72 -131.333 205.667 -197 401 -197
c20.667 0 65.334 3.66699 134.001 11c96 358 146.667 542 152 552z" />
    <glyph glyph-name="uni0451" unicode="&#x451;" horiz-adv-x="1354" 
d="M1133 1434c110 -1.33301 164.999 -20.332 164.999 -56.999c0 -88 -57.667 -153.667 -173 -197h-12l-553 -18c-98.667 -138.667 -148 -282 -148 -430c160 -24.667 294.333 -30.334 403 -17.001c114.667 18 197.667 27 249 27c32 0 54.667 -12.333 68 -37v-18
c0 -74 -65.667 -139.667 -197 -197c-49.333 -8 -88.333 -12 -117 -12l-387 8c-66 -7.33301 -99 -34 -99 -80c0 -74 47.333 -111 142 -111c120 0 312.667 30.667 578 92h18c32.667 0 49 -16.333 49 -49v-12c-19.333 -158 -209.666 -264.667 -570.999 -320
c-39.333 -4 -78.333 -6 -117 -6h-13c-119.333 -0 -234 16.333 -344 49v6c-4 100.667 -6 156 -6 166c0 444.667 158.333 849 475 1213h590zM857.999 1696l21 0.000976562c6.66699 0 13.667 -7 21 -21v-28c0 -59.333 -48.667 -103.333 -146 -132h-21
c-78.667 18.667 -118 39.667 -118 63v27c0 37.333 81 67.666 243 90.999zM1192 1698c27.333 -20.667 39 -38 35 -52l-4 -13c-14 -48 -104.667 -77.667 -272 -89l-7 2l12 38c86 96.667 164.667 134.667 236 114z" />
    <glyph glyph-name="nonmarkingreturn" horiz-adv-x="508" 
 />
  </font>
</defs>
</svg>
